<svg width="978.02" height="419.69" version="1.1" viewBox="0 0 978.02 419.69" xmlns="http://www.w3.org/2000/svg">
 <g transform="translate(-4.176 -54.272)">
  <g>
   <path d="m252 303.62c0-0.20765 0.7875-0.99515 1.75-1.75 1.5861-1.2439 1.6214-1.2085 0.37756 0.37756-1.3064 1.6658-2.1276 2.1955-2.1276 1.3724zm300.08-8.2058c0.048-1.165 0.28494-1.4019 0.60416-0.60417 0.28887 0.72187 0.25335 1.5844-0.0789 1.9167-0.33229 0.33229-0.56864-0.25834-0.52522-1.3125zm-87.884-7.9167c0.0204-1.65 0.2445-2.2039 0.49804-1.231s0.23687 2.323-0.0371 3c-0.27393 0.67703-0.48137-0.11903-0.46099-1.769zm-238.12-1.0833c0.048-1.165 0.28494-1.4019 0.60416-0.60417 0.28887 0.72187 0.25335 1.5844-0.0789 1.9167-0.3323 0.33229-0.56864-0.25834-0.52522-1.3125zm185-3c0.048-1.165 0.28494-1.4019 0.60416-0.60417 0.28887 0.72187 0.25335 1.5844-0.0789 1.9167-0.33229 0.33229-0.56864-0.25834-0.52522-1.3125zm140-3c0.048-1.165 0.28494-1.4019 0.60416-0.60417 0.28887 0.72187 0.25335 1.5844-0.0789 1.9167-0.33229 0.33229-0.56864-0.25834-0.52522-1.3125zm112.17-1.9167c0.0111-2.2 0.21589-2.9822 0.45508-1.7383s0.23011 3.0439-0.0202 4c-0.25029 0.95609-0.446-0.0617-0.4349-2.2617zm124.83 0.91667c0.048-1.165 0.28494-1.4019 0.60416-0.60417 0.28887 0.72187 0.25335 1.5844-0.0789 1.9167-0.33229 0.33229-0.56864-0.25834-0.52522-1.3125zm-313-1c0.048-1.165 0.28494-1.4019 0.60416-0.60417 0.28887 0.72187 0.25335 1.5844-0.0789 1.9167-0.33229 0.33229-0.56864-0.25834-0.52522-1.3125zm438 0c0.048-1.165 0.28494-1.4019 0.60416-0.60417 0.28887 0.72187 0.25335 1.5844-0.0789 1.9167-0.33229 0.33229-0.56864-0.25834-0.52522-1.3125zm-791.92-1.4167c0-1.375 0.22698-1.9375 0.50439-1.25s0.27741 1.8125 0 2.5-0.50439 0.125-0.50439-1.25zm441.04-1.5c0.0204-1.65 0.2445-2.2039 0.49804-1.231s0.23687 2.323-0.0371 3c-0.27393 0.67703-0.48137-0.11903-0.46099-1.769zm-402.12-0.0833c0.048-1.165 0.28494-1.4019 0.60416-0.60417 0.28887 0.72187 0.25335 1.5844-0.0789 1.9167-0.3323 0.33229-0.56864-0.25834-0.52522-1.3125zm262.25-4.9167c4e-3 -3.85 0.18518-5.3025 0.40166-3.2277 0.21647 2.0748 0.21284 5.2248-8e-3 7-0.22091 1.7752-0.39803 0.0777-0.39359-3.7723zm72.867 2c0.0204-1.65 0.2445-2.2039 0.49804-1.231s0.23687 2.323-0.0371 3c-0.27393 0.67703-0.48137-0.11903-0.46099-1.769zm-468.38-0.18311c0.72188-0.28887 1.5844-0.25335 1.9167 0.0789 0.33229 0.33229-0.25833 0.56864-1.3125 0.52522-1.1649-0.048-1.4019-0.28494-0.60417-0.60416zm725.35-2.3169c0-1.375 0.22698-1.9375 0.50439-1.25s0.27741 1.8125 0 2.5-0.50439 0.125-0.50439-1.25zm-289.08-0.58333c0.048-1.165 0.28494-1.4019 0.60416-0.60417 0.28887 0.72187 0.25335 1.5844-0.0789 1.9167-0.33229 0.33229-0.56864-0.25834-0.52522-1.3125zm-142-3c0.048-1.165 0.28494-1.4019 0.60416-0.60417 0.28887 0.72187 0.25335 1.5844-0.0789 1.9167-0.33229 0.33229-0.56864-0.25834-0.52522-1.3125zm466-1c0.048-1.165 0.28494-1.4019 0.60416-0.60417 0.28887 0.72187 0.25335 1.5844-0.0789 1.9167-0.33229 0.33229-0.56864-0.25834-0.52522-1.3125zm-237-1c0.048-1.165 0.28494-1.4019 0.60416-0.60417 0.28887 0.72187 0.25335 1.5844-0.0789 1.9167-0.33229 0.33229-0.56864-0.25834-0.52522-1.3125zm-350-2c0.048-1.165 0.28494-1.4019 0.60416-0.60417 0.28887 0.72187 0.25335 1.5844-0.0789 1.9167-0.3323 0.33229-0.56864-0.25834-0.52522-1.3125zm196 0c0.048-1.165 0.28494-1.4019 0.60416-0.60417 0.28887 0.72187 0.25335 1.5844-0.0789 1.9167-0.33229 0.33229-0.56864-0.25834-0.52522-1.3125zm15 0c0.048-1.165 0.28494-1.4019 0.60416-0.60417 0.28887 0.72187 0.25335 1.5844-0.0789 1.9167-0.33229 0.33229-0.56864-0.25834-0.52522-1.3125zm-101-1c0.048-1.165 0.28494-1.4019 0.60416-0.60417 0.28887 0.72187 0.25335 1.5844-0.0789 1.9167-0.33229 0.33229-0.56864-0.25834-0.52522-1.3125zm-84-2c0.048-1.165 0.28494-1.4019 0.60416-0.60417 0.28887 0.72187 0.25335 1.5844-0.0789 1.9167-0.3323 0.33229-0.56864-0.25834-0.52522-1.3125zm196 0c0.048-1.165 0.28494-1.4019 0.60416-0.60417 0.28887 0.72187 0.25335 1.5844-0.0789 1.9167-0.33229 0.33229-0.56864-0.25834-0.52522-1.3125zm329.12-1.9167c0.0204-1.65 0.2445-2.2039 0.49804-1.231s0.23687 2.323-0.0371 3c-0.27393 0.67703-0.48137-0.11903-0.46099-1.769zm45.884-2.0833c0.048-1.165 0.28494-1.4019 0.60416-0.60417 0.28887 0.72187 0.25335 1.5844-0.0789 1.9167-0.33229 0.33229-0.56864-0.25834-0.52522-1.3125zm-476.92-5.4167c0-1.375 0.22698-1.9375 0.50439-1.25s0.27741 1.8125 0 2.5-0.50439 0.125-0.50439-1.25zm466 0c0-1.375 0.22698-1.9375 0.50439-1.25s0.27741 1.8125 0 2.5-0.50439 0.125-0.50439-1.25zm-724-4c0-1.375 0.22697-1.9375 0.50439-1.25 0.27741 0.6875 0.27741 1.8125 0 2.5-0.27741 0.6875-0.50439 0.125-0.50439-1.25zm807.71 0.25c-1.2439-1.5861-1.2085-1.6214 0.37756-0.37756 1.6658 1.3064 2.1955 2.1276 1.3724 2.1276-0.20765 0-0.99515-0.7875-1.75-1.75zm-560.71-3.25c0-1.375 0.22698-1.9375 0.50439-1.25s0.27741 1.8125 0 2.5-0.50439 0.125-0.50439-1.25zm641.71 0.25c-1.2439-1.5861-1.2085-1.6214 0.37756-0.37756 1.6658 1.3064 2.1955 2.1276 1.3724 2.1276-0.20765 0-0.99515-0.7875-1.75-1.75zm-154.71-5.25c0-1.375 0.22698-1.9375 0.50439-1.25s0.27741 1.8125 0 2.5-0.50439 0.125-0.50439-1.25zm-477-6c0-1.375 0.22698-1.9375 0.50439-1.25s0.27741 1.8125 0 2.5-0.50439 0.125-0.50439-1.25zm466-1c0-1.375 0.22698-1.9375 0.50439-1.25s0.27741 1.8125 0 2.5-0.50439 0.125-0.50439-1.25zm-462.16-6.3776c0-0.20765 0.7875-0.99515 1.75-1.75 1.5861-1.2439 1.6214-1.2085 0.37756 0.37756-1.3064 1.6658-2.1276 2.1955-2.1276 1.3724zm-45.805-4.1224c0.0204-1.65 0.2445-2.2039 0.49804-1.231s0.23687 2.323-0.0371 3c-0.27393 0.67703-0.48137-0.11903-0.46099-1.769zm-267.04-1.5c0-1.375 0.22697-1.9375 0.50439-1.25 0.27741 0.6875 0.27741 1.8125 0 2.5-0.27741 0.6875-0.50439 0.125-0.50439-1.25zm785.04-0.5c0.0204-1.65 0.2445-2.2039 0.49804-1.231s0.23687 2.323-0.0371 3c-0.27393 0.67703-0.48137-0.11903-0.46099-1.769zm-702.12-2.0833c0.04798-1.165 0.28494-1.4019 0.60417-0.60417 0.28887 0.72187 0.25334 1.5844-0.07895 1.9167-0.33229 0.33229-0.56864-0.25834-0.52522-1.3125zm691.08-3.4167c0-1.375 0.22698-1.9375 0.50439-1.25s0.27741 1.8125 0 2.5-0.50439 0.125-0.50439-1.25zm-466-2c0-1.375 0.22698-1.9375 0.50439-1.25s0.27741 1.8125 0 2.5-0.50439 0.125-0.50439-1.25zm-11.079-1.5833c0.048-1.165 0.28494-1.4019 0.60416-0.60417 0.28887 0.72187 0.25335 1.5844-0.0789 1.9167-0.33229 0.33229-0.56864-0.25834-0.52522-1.3125zm487-10c0.048-1.165 0.28494-1.4019 0.60416-0.60417 0.28887 0.72187 0.25335 1.5844-0.0789 1.9167-0.33229 0.33229-0.56864-0.25834-0.52522-1.3125zm-477-5c0.048-1.165 0.28494-1.4019 0.60416-0.60417 0.28887 0.72187 0.25335 1.5844-0.0789 1.9167-0.33229 0.33229-0.56864-0.25834-0.52522-1.3125zm466 0c0.048-1.165 0.28494-1.4019 0.60416-0.60417 0.28887 0.72187 0.25335 1.5844-0.0789 1.9167-0.33229 0.33229-0.56864-0.25834-0.52522-1.3125zm-478-12c0.048-1.165 0.28494-1.4019 0.60416-0.60417 0.28887 0.72187 0.25335 1.5844-0.0789 1.9167-0.33229 0.33229-0.56864-0.25834-0.52522-1.3125zm488 0c0.048-1.165 0.28494-1.4019 0.60416-0.60417 0.28887 0.72187 0.25335 1.5844-0.0789 1.9167-0.33229 0.33229-0.56864-0.25834-0.52522-1.3125zm-10.884-1.9167c0.0204-1.65 0.2445-2.2039 0.49804-1.231s0.23687 2.323-0.0371 3c-0.27393 0.67703-0.48137-0.11903-0.46099-1.769zm-641-17c0.0204-1.65 0.2445-2.2039 0.49804-1.231s0.23687 2.323-0.0371 3c-0.27393 0.67703-0.48137-0.11903-0.46099-1.769zm-75.116-7.0833c0.04798-1.165 0.28494-1.4019 0.60417-0.60417 0.28887 0.72187 0.25334 1.5844-0.07895 1.9167-0.33229 0.33229-0.56864-0.25834-0.52522-1.3125zm481-5c0.048-1.165 0.28494-1.4019 0.60416-0.60417 0.28887 0.72187 0.25335 1.5844-0.0789 1.9167-0.33229 0.33229-0.56864-0.25834-0.52522-1.3125zm-470.27-5.0998c0.72188-0.28887 1.5844-0.25335 1.9167 0.0789 0.33229 0.33229-0.25833 0.56864-1.3125 0.52522-1.1649-0.048-1.4019-0.28494-0.60417-0.60416zm27.898-26.317c-0.28766-1.1-0.11514-2 0.38337-2s0.90638 0.9 0.90638 2-0.17252 2-0.38337 2-0.61872-0.9-0.90638-2zm-26.898-8.6831c0.72188-0.28887 1.5844-0.25335 1.9167 0.0789 0.33229 0.3323-0.25833 0.56864-1.3125 0.52522-1.1649-0.048-1.4019-0.28494-0.60417-0.60416z" fill="#e0e0e0"/>
   <path d="m422.19 430.5c0.0204-1.65 0.2445-2.2039 0.49804-1.231s0.23687 2.323-0.0371 3c-0.27393 0.67703-0.48137-0.11903-0.46099-1.769zm532.68-179.25c-1.2439-1.5861-1.2085-1.6214 0.37756-0.37756 0.9625 0.75485 1.75 1.5424 1.75 1.75 0 0.82304-0.82119 0.29331-2.1276-1.3724z" fill="#dbdbdb"/>
   <path d="m502.75 446.34c0.6875-0.27741 1.8125-0.27741 2.5 0s0.125 0.50439-1.25 0.50439-1.9375-0.22698-1.25-0.50439zm-7.481-34.031c0.97297-0.25354 2.323-0.23687 3 0.0371 0.67703 0.27393-0.11903 0.48137-1.769 0.46099-1.65-0.0204-2.2039-0.2445-1.231-0.49804zm-418.27-145.68c0-0.20765 0.7875-0.99515 1.75-1.75 1.5861-1.2439 1.6214-1.2085 0.37756 0.37756-1.3064 1.6658-2.1276 2.1955-2.1276 1.3724zm52-15c0-0.20765 0.7875-0.99515 1.75-1.75 1.5861-1.2439 1.6214-1.2085 0.37756 0.37756-1.3064 1.6658-2.1276 2.1955-2.1276 1.3724zm-48.5-55.622c0.99549-1.1 2.035-2 2.31-2s-0.31449 0.9-1.31 2-2.035 2-2.31 2 0.31449-0.9 1.31-2zm575.01-0.98855c-0.35034-0.56686 0.0511-0.7345 0.94098-0.39301 1.7324 0.66479 2.0494 1.3816 0.61096 1.3816-0.51754 0-1.2159-0.44485-1.5519-0.98855zm-74.745-13.719c1.2439-0.23919 3.0439-0.23011 4 0.0202 0.95609 0.25029-0.0617 0.446-2.2617 0.4349-2.2-0.0111-2.9822-0.21589-1.7383-0.45508zm3.9883-8.9985c1.2375-0.23836 3.2625-0.23836 4.5 0 1.2375 0.23835 0.225 0.43337-2.25 0.43337s-3.4875-0.19502-2.25-0.43337zm-47.938-42.977c0.72187-0.28887 1.5844-0.25335 1.9167 0.0789 0.33229 0.33229-0.25834 0.56864-1.3125 0.52522-1.165-0.048-1.4019-0.28494-0.60417-0.60416z" fill="#d5d5d5"/>
   <path d="m446.4 461.75-1.905-2.25 2.25 1.905c1.2375 1.0477 2.25 2.0602 2.25 2.25 0 0.80025-0.80479 0.20945-2.595-1.905zm142.93-383.21c0-0.80081 0.38234-1.2197 0.84965-0.9309 0.4673 0.28881 0.59075 0.94402 0.27431 1.456-0.80862 1.3084-1.124 1.1611-1.124-0.52511zm17.072-0.79399-1.905-2.25 2.25 1.905c1.2375 1.0477 2.25 2.0602 2.25 2.25 0 0.80025-0.80479 0.20946-2.595-1.905z" fill="#cfcfcf"/>
   <path d="m424.08 433.42c0.048-1.165 0.28494-1.4019 0.60416-0.60417 0.28887 0.72187 0.25335 1.5844-0.0789 1.9167-0.33229 0.33229-0.56864-0.25834-0.52522-1.3125zm-247.58-132.42c0.99549-1.1 2.035-2 2.31-2s-0.31449 0.9-1.31 2-2.035 2-2.31 2 0.31449-0.9 1.31-2zm725.46-76.25c2.452-2.6125 4.5895-4.75 4.75-4.75 0.75088 0-0.043 0.89783-4.4582 5.0418l-4.75 4.4582zm-563.96-18.128c0-0.20765 0.7875-0.99515 1.75-1.75 1.5861-1.2439 1.6214-1.2085 0.37756 0.37756-1.3064 1.6658-2.1276 2.1955-2.1276 1.3724z" fill="#cacaca"/>
   <path d="m954.08 321.42c0.048-1.165 0.28494-1.4019 0.60416-0.60417 0.28887 0.72187 0.25335 1.5844-0.0789 1.9167-0.33229 0.33229-0.56864-0.25834-0.52522-1.3125zm-402-30c0.048-1.165 0.28494-1.4019 0.60416-0.60417 0.28887 0.72187 0.25335 1.5844-0.0789 1.9167-0.33229 0.33229-0.56864-0.25834-0.52522-1.3125zm-87.884-9.9167c0.0204-1.65 0.2445-2.2039 0.49804-1.231s0.23687 2.323-0.0371 3c-0.27393 0.67703-0.48137-0.11903-0.46099-1.769zm219-1c0.0204-1.65 0.2445-2.2039 0.49804-1.231s0.23687 2.323-0.0371 3c-0.27393 0.67703-0.48137-0.11903-0.46099-1.769zm-132.12-4.0833c0.048-1.165 0.28494-1.4019 0.60416-0.60417 0.28887 0.72187 0.25335 1.5844-0.0789 1.9167-0.33229 0.33229-0.56864-0.25834-0.52522-1.3125zm-240-3c0.048-1.165 0.28494-1.4019 0.60416-0.60417 0.28887 0.72187 0.25335 1.5844-0.0789 1.9167-0.33229 0.33229-0.56864-0.25834-0.52522-1.3125zm193.08-7.4167c0-1.375 0.22698-1.9375 0.50439-1.25s0.27741 1.8125 0 2.5-0.50439 0.125-0.50439-1.25zm71.921 0.41667c0.048-1.165 0.28494-1.4019 0.60416-0.60417 0.28887 0.72187 0.25335 1.5844-0.0789 1.9167-0.33229 0.33229-0.56864-0.25834-0.52522-1.3125zm-191-4c0.048-1.165 0.28494-1.4019 0.60416-0.60417 0.28887 0.72187 0.25335 1.5844-0.0789 1.9167-0.33229 0.33229-0.56864-0.25834-0.52522-1.3125zm402 0c0.048-1.165 0.28494-1.4019 0.60416-0.60417 0.28887 0.72187 0.25335 1.5844-0.0789 1.9167-0.33229 0.33229-0.56864-0.25834-0.52522-1.3125zm-587-4c0.048-1.165 0.28494-1.4019 0.60416-0.60417 0.28887 0.72187 0.25335 1.5844-0.0789 1.9167-0.3323 0.33229-0.56864-0.25834-0.52522-1.3125zm110.08-1.4167c0-1.375 0.22698-1.9375 0.50439-1.25s0.27741 1.8125 0 2.5-0.50439 0.125-0.50439-1.25zm-84-1c0-1.375 0.22698-1.9375 0.50439-1.25s0.27741 1.8125 0 2.5-0.50439 0.125-0.50439-1.25zm322.92-4.5833c0.048-1.165 0.28494-1.4019 0.60416-0.60417 0.28887 0.72187 0.25335 1.5844-0.0789 1.9167-0.33229 0.33229-0.56864-0.25834-0.52522-1.3125zm237.08-6.4167c0-1.375 0.22698-1.9375 0.50439-1.25s0.27741 1.8125 0 2.5-0.50439 0.125-0.50439-1.25zm-477-7c0-1.375 0.22698-1.9375 0.50439-1.25s0.27741 1.8125 0 2.5-0.50439 0.125-0.50439-1.25zm476-12c0-1.375 0.22698-1.9375 0.50439-1.25s0.27741 1.8125 0 2.5-0.50439 0.125-0.50439-1.25zm110.8-3.25c2.452-2.6125 4.5895-4.75 4.75-4.75 0.75088 0-0.043 0.89783-4.4582 5.0418l-4.75 4.4582zm-587.8-1.75c0-1.375 0.22698-1.9375 0.50439-1.25s0.27741 1.8125 0 2.5-0.50439 0.125-0.50439-1.25zm476-13c0-1.375 0.22698-1.9375 0.50439-1.25s0.27741 1.8125 0 2.5-0.50439 0.125-0.50439-1.25zm-477.08-1.5833c0.048-1.165 0.28494-1.4019 0.60416-0.60417 0.28887 0.72187 0.25335 1.5844-0.0789 1.9167-0.33229 0.33229-0.56864-0.25834-0.52522-1.3125zm476.08-16.417c0-1.375 0.22698-1.9375 0.50439-1.25s0.27741 1.8125 0 2.5-0.50439 0.125-0.50439-1.25zm-160.08-49.583c0.048-1.165 0.28494-1.4019 0.60416-0.60417 0.28887 0.72187 0.25335 1.5844-0.0789 1.9167-0.33229 0.33229-0.56864-0.25834-0.52522-1.3125z" fill="#c4c4c4"/>
   <path d="m422.32 284c0-3.575 0.1815-5.0375 0.40333-3.25 0.22182 1.7875 0.22182 4.7125 0 6.5-0.22183 1.7875-0.40333 0.325-0.40333-3.25zm52.875-0.5c0.0204-1.65 0.2445-2.2039 0.49804-1.231s0.23687 2.323-0.0371 3c-0.27393 0.67703-0.48137-0.11903-0.46099-1.769zm87-2c0.0204-1.65 0.2445-2.2039 0.49804-1.231s0.23687 2.323-0.0371 3c-0.27393 0.67703-0.48137-0.11903-0.46099-1.769zm-402.12-3.0833c0.048-1.165 0.28494-1.4019 0.60416-0.60417 0.28887 0.72187 0.25335 1.5844-0.0789 1.9167-0.3323 0.33229-0.56864-0.25834-0.52522-1.3125zm77.291-10.417c0-5.775 0.16528-8.1375 0.36728-5.25s0.202 7.6125 0 10.5-0.36728 0.525-0.36728-5.25zm560.82 7.5c0.0204-1.65 0.2445-2.2039 0.49804-1.231s0.23687 2.323-0.0371 3c-0.27393 0.67703-0.48137-0.11903-0.46099-1.769zm-477.12-5.0833c0.048-1.165 0.28494-1.4019 0.60416-0.60417 0.28887 0.72187 0.25335 1.5844-0.0789 1.9167-0.33229 0.33229-0.56864-0.25834-0.52522-1.3125zm153-4c0.048-1.165 0.28494-1.4019 0.60416-0.60417 0.28887 0.72187 0.25335 1.5844-0.0789 1.9167-0.33229 0.33229-0.56864-0.25834-0.52522-1.3125zm-263-4c0.048-1.165 0.28494-1.4019 0.60416-0.60417 0.28887 0.72187 0.25335 1.5844-0.0789 1.9167-0.3323 0.33229-0.56864-0.25834-0.52522-1.3125zm-202.88-1.9167c0.02038-1.65 0.2445-2.2039 0.49804-1.231s0.23687 2.323-0.037054 3-0.48137-0.11903-0.46099-1.769zm788.88-1.0833c0.048-1.165 0.28494-1.4019 0.60416-0.60417 0.28887 0.72187 0.25335 1.5844-0.0789 1.9167-0.33229 0.33229-0.56864-0.25834-0.52522-1.3125zm-477-5c0.048-1.165 0.28494-1.4019 0.60416-0.60417 0.28887 0.72187 0.25335 1.5844-0.0789 1.9167-0.33229 0.33229-0.56864-0.25834-0.52522-1.3125zm476-12c0.048-1.165 0.28494-1.4019 0.60416-0.60417 0.28887 0.72187 0.25335 1.5844-0.0789 1.9167-0.33229 0.33229-0.56864-0.25834-0.52522-1.3125zm-477-6c0.048-1.165 0.28494-1.4019 0.60416-0.60417 0.28887 0.72187 0.25335 1.5844-0.0789 1.9167-0.33229 0.33229-0.56864-0.25834-0.52522-1.3125zm476.12-12.917c0.0204-1.65 0.2445-2.2039 0.49804-1.231s0.23687 2.323-0.0371 3c-0.27393 0.67703-0.48137-0.11903-0.46099-1.769zm-709.12-10.083c0.04798-1.165 0.28494-1.4019 0.60417-0.60417 0.28887 0.72187 0.25334 1.5844-0.07895 1.9167-0.33229 0.33229-0.56864-0.25834-0.52522-1.3125zm708.08-9.4167c0-1.375 0.22698-1.9375 0.50439-1.25s0.27741 1.8125 0 2.5-0.50439 0.125-0.50439-1.25zm-477.08-5.5833c0.048-1.165 0.28494-1.4019 0.60416-0.60417 0.28887 0.72187 0.25335 1.5844-0.0789 1.9167-0.33229 0.33229-0.56864-0.25834-0.52522-1.3125zm476.08-12.417c0-1.375 0.22698-1.9375 0.50439-1.25s0.27741 1.8125 0 2.5-0.50439 0.125-0.50439-1.25zm-477.08-3.5833c0.048-1.165 0.28494-1.4019 0.60416-0.60417 0.28887 0.72187 0.25335 1.5844-0.0789 1.9167-0.33229 0.33229-0.56864-0.25834-0.52522-1.3125zm-255-54c0.04798-1.165 0.28494-1.4019 0.60417-0.60417 0.28887 0.72187 0.25334 1.5844-0.07895 1.9167-0.33229 0.33229-0.56864-0.25834-0.52522-1.3125z" fill="#bfbfbf"/>
   <path d="m500.25 468.5c0.0111-2.2 0.21589-2.9822 0.45508-1.7383s0.23011 3.0439-0.0202 4c-0.25029 0.95609-0.446-0.0617-0.4349-2.2617zm-38.173-41.083c0.048-1.165 0.28494-1.4019 0.60416-0.60417 0.28887 0.72187 0.25335 1.5844-0.0789 1.9167-0.33229 0.33229-0.56864-0.25834-0.52522-1.3125zm184.79-245.17c-1.2439-1.5861-1.2085-1.6214 0.37756-0.37756 0.9625 0.75485 1.75 1.5424 1.75 1.75 0 0.82304-0.82119 0.29331-2.1276-1.3724zm0-9c-1.2439-1.5861-1.2085-1.6214 0.37756-0.37756 0.9625 0.75485 1.75 1.5424 1.75 1.75 0 0.82304-0.82119 0.29331-2.1276-1.3724zm-15-13c-1.2439-1.5861-1.2085-1.6214 0.37756-0.37756 1.6658 1.3064 2.1955 2.1276 1.3724 2.1276-0.20765 0-0.99515-0.7875-1.75-1.75zm-529-7c-1.2439-1.5861-1.2085-1.6214 0.37756-0.37756 0.9625 0.75485 1.75 1.5424 1.75 1.75 0 0.82304-0.82119 0.29331-2.1276-1.3724z" fill="#b9b9b9"/>
   <path d="m965.81 298.32c0.72187-0.28887 1.5844-0.25335 1.9167 0.0789 0.33229 0.33229-0.25834 0.56864-1.3125 0.52522-1.165-0.048-1.4019-0.28494-0.60417-0.60416zm-68-106c0.72187-0.28887 1.5844-0.25335 1.9167 0.0789 0.33229 0.33229-0.25834 0.56864-1.3125 0.52522-1.165-0.048-1.4019-0.28494-0.60417-0.60416z" fill="#b3b3b3"/>
   <path d="m531.81 122.32c0.72187-0.28887 1.5844-0.25335 1.9167 0.0789 0.33229 0.3323-0.25834 0.56864-1.3125 0.52522-1.165-0.048-1.4019-0.28494-0.60417-0.60416z" fill="#aeaeae"/>
   <path d="m965.81 304.32c0.72187-0.28887 1.5844-0.25335 1.9167 0.0789 0.33229 0.33229-0.25834 0.56864-1.3125 0.52522-1.165-0.048-1.4019-0.28494-0.60417-0.60416zm-815.58-23.317c0-1.925 0.2058-2.7125 0.45733-1.75 0.25152 0.9625 0.25152 2.5375 0 3.5-0.25153 0.9625-0.45733 0.175-0.45733-1.75zm77.111-7.5c4e-3 -4.4 0.17944-6.0756 0.39069-3.7236 0.21124 2.352 0.20827 5.952-7e-3 8-0.21487 2.048-0.38771 0.12357-0.38408-4.2764zm455.74 1.9167c0.048-1.165 0.28494-1.4019 0.60416-0.60417 0.28887 0.72187 0.25335 1.5844-0.0789 1.9167-0.33229 0.33229-0.56864-0.25834-0.52522-1.3125zm30.079-2.4167c0-1.375 0.22698-1.9375 0.50439-1.25s0.27741 1.8125 0 2.5-0.50439 0.125-0.50439-1.25zm-162.08-0.58333c0.048-1.165 0.28494-1.4019 0.60416-0.60417 0.28887 0.72187 0.25335 1.5844-0.0789 1.9167-0.33229 0.33229-0.56864-0.25834-0.52522-1.3125zm25-2c0.048-1.165 0.28494-1.4019 0.60416-0.60417 0.28887 0.72187 0.25335 1.5844-0.0789 1.9167-0.33229 0.33229-0.56864-0.25834-0.52522-1.3125zm137.08-6.4167c0-1.375 0.22698-1.9375 0.50439-1.25s0.27741 1.8125 0 2.5-0.50439 0.125-0.50439-1.25zm-328-6c0-1.375 0.22698-1.9375 0.50439-1.25s0.27741 1.8125 0 2.5-0.50439 0.125-0.50439-1.25zm401.92 0.41667c0.048-1.165 0.28494-1.4019 0.60416-0.60417 0.28887 0.72187 0.25335 1.5844-0.0789 1.9167-0.33229 0.33229-0.56864-0.25834-0.52522-1.3125zm-376-3c0.048-1.165 0.28494-1.4019 0.60416-0.60417 0.28887 0.72187 0.25335 1.5844-0.0789 1.9167-0.33229 0.33229-0.56864-0.25834-0.52522-1.3125zm51.079-0.41667c0-1.375 0.22698-1.9375 0.50439-1.25s0.27741 1.8125 0 2.5-0.50439 0.125-0.50439-1.25zm-262.08-0.58333c0.048-1.165 0.28494-1.4019 0.60416-0.60417 0.28887 0.72187 0.25335 1.5844-0.0789 1.9167-0.3323 0.33229-0.56864-0.25834-0.52522-1.3125zm110-2c0.048-1.165 0.28494-1.4019 0.60416-0.60417 0.28887 0.72187 0.25335 1.5844-0.0789 1.9167-0.33229 0.33229-0.56864-0.25834-0.52522-1.3125zm476.08-12.417c0-1.375 0.22698-1.9375 0.50439-1.25s0.27741 1.8125 0 2.5-0.50439 0.125-0.50439-1.25zm-1-18c0-1.375 0.22698-1.9375 0.50439-1.25s0.27741 1.8125 0 2.5-0.50439 0.125-0.50439-1.25zm-1-18c0-1.375 0.22698-1.9375 0.50439-1.25s0.27741 1.8125 0 2.5-0.50439 0.125-0.50439-1.25zm-176.08-100.58c0.048-1.165 0.28494-1.4019 0.60416-0.60417 0.28887 0.72187 0.25335 1.5844-0.0789 1.9167-0.33229 0.33229-0.56864-0.25834-0.52522-1.3125zm-8-3c0.048-1.1649 0.28494-1.4019 0.60416-0.60417 0.28887 0.72187 0.25335 1.5844-0.0789 1.9167-0.33229 0.33229-0.56864-0.25834-0.52522-1.3125z" fill="#a8a8a8"/>
   <path d="m408.87 359.25c-1.2439-1.5861-1.2085-1.6214 0.37756-0.37756 1.6658 1.3064 2.1955 2.1276 1.3724 2.1276-0.20765 0-0.99515-0.7875-1.75-1.75zm524.21-67.833c0.048-1.165 0.28494-1.4019 0.60416-0.60417 0.28887 0.72187 0.25335 1.5844-0.0789 1.9167-0.33229 0.33229-0.56864-0.25834-0.52522-1.3125zm43.079-2.4167c0-1.375 0.22698-1.9375 0.50439-1.25s0.27741 1.8125 0 2.5-0.50439 0.125-0.50439-1.25zm-954.16-24.378c0-0.20765 0.7875-0.99515 1.75-1.75 1.5861-1.2439 1.6214-1.2085 0.37756 0.37756-1.3064 1.6658-2.1276 2.1955-2.1276 1.3724zm-6.9211-3.2058c0.04798-1.165 0.28494-1.4019 0.60417-0.60417 0.28887 0.72187 0.25334 1.5844-0.07895 1.9167-0.33229 0.33229-0.56864-0.25834-0.52522-1.3125zm851-28c0.048-1.165 0.28494-1.4019 0.60416-0.60417 0.28887 0.72187 0.25335 1.5844-0.0789 1.9167-0.33229 0.33229-0.56864-0.25834-0.52522-1.3125zm-783-9c0.04798-1.165 0.28494-1.4019 0.60417-0.60417 0.28887 0.72187 0.25334 1.5844-0.07895 1.9167-0.33229 0.33229-0.56864-0.25834-0.52522-1.3125zm-15-6c0.04798-1.165 0.28494-1.4019 0.60417-0.60417 0.28887 0.72187 0.25334 1.5844-0.07895 1.9167-0.33229 0.33229-0.56864-0.25834-0.52522-1.3125zm816-49c0.048-1.165 0.28494-1.4019 0.60416-0.60417 0.28887 0.72187 0.25335 1.5844-0.0789 1.9167-0.33229 0.33229-0.56864-0.25834-0.52522-1.3125zm-12-20c0.048-1.165 0.28494-1.4019 0.60416-0.60417 0.28887 0.72187 0.25335 1.5844-0.0789 1.9167-0.33229 0.33229-0.56864-0.25834-0.52522-1.3125z" fill="#a3a3a3"/>
   <path d="m425.92 460.25-2.4243-2.75 2.75 2.4243c2.5703 2.2659 3.2086 3.0757 2.4243 3.0757-0.17912 0-1.4166-1.2375-2.75-2.75zm40.155-73.833c0.048-1.165 0.28494-1.4019 0.60416-0.60417 0.28887 0.72187 0.25335 1.5844-0.0789 1.9167-0.33229 0.33229-0.56864-0.25834-0.52522-1.3125zm-74.674-40.667-1.905-2.25 2.25 1.905c2.1144 1.7902 2.7052 2.595 1.905 2.595-0.18976 0-1.2023-1.0125-2.25-2.25zm555.79-18.25c0.0204-1.65 0.2445-2.2039 0.49804-1.231s0.23687 2.323-0.0371 3c-0.27393 0.67703-0.48137-0.11903-0.46099-1.769zm-128.12-32.083c0.048-1.165 0.28494-1.4019 0.60416-0.60417 0.28887 0.72187 0.25335 1.5844-0.0789 1.9167-0.33229 0.33229-0.56864-0.25834-0.52522-1.3125zm-343.85-6.4167c0-1.925 0.2058-2.7125 0.45733-1.75 0.25152 0.9625 0.25152 2.5375 0 3.5-0.25153 0.9625-0.45733 0.175-0.45733-1.75zm87-1c0-1.925 0.2058-2.7125 0.45733-1.75 0.25152 0.9625 0.25152 2.5375 0 3.5-0.25153 0.9625-0.45733 0.175-0.45733-1.75zm-324.91-4c0-3.575 0.1815-5.0375 0.40333-3.25 0.22182 1.7875 0.22182 4.7125 0 6.5-0.22183 1.7875-0.40333 0.325-0.40333-3.25zm455.91-5c0-1.925 0.2058-2.7125 0.45733-1.75 0.25152 0.9625 0.25152 2.5375 0 3.5-0.25153 0.9625-0.45733 0.175-0.45733-1.75zm104.85 0.41667c0.048-1.165 0.28494-1.4019 0.60416-0.60417 0.28887 0.72187 0.25335 1.5844-0.0789 1.9167-0.33229 0.33229-0.56864-0.25834-0.52522-1.3125zm-666.92-1.4167c0-1.375 0.22698-1.9375 0.50439-1.25s0.27741 1.8125 0 2.5-0.50439 0.125-0.50439-1.25zm189.92-4.5833c0.048-1.165 0.28494-1.4019 0.60416-0.60417 0.28887 0.72187 0.25335 1.5844-0.0789 1.9167-0.33229 0.33229-0.56864-0.25834-0.52522-1.3125zm402.21-4.9167c8e-3 -2.75 0.20172-3.7563 0.43157-2.2362 0.22986 1.5201 0.22371 3.7701-0.0136 5-0.23736 1.2299-0.42542-0.0138-0.41792-2.7638zm-698.29 3.1224c0-0.20765 0.7875-0.99515 1.75-1.75 1.5861-1.2439 1.6214-1.2085 0.37756 0.37756-1.3064 1.6658-2.1276 2.1955-2.1276 1.3724zm449.08-1.2058c0.048-1.165 0.28494-1.4019 0.60416-0.60417 0.28887 0.72187 0.25335 1.5844-0.0789 1.9167-0.33229 0.33229-0.56864-0.25834-0.52522-1.3125zm87-4c0.048-1.165 0.28494-1.4019 0.60416-0.60417 0.28887 0.72187 0.25335 1.5844-0.0789 1.9167-0.33229 0.33229-0.56864-0.25834-0.52522-1.3125zm201.12-2.9167c0.0204-1.65 0.2445-2.2039 0.49804-1.231s0.23687 2.323-0.0371 3c-0.27393 0.67703-0.48137-0.11903-0.46099-1.769zm34.884-0.0833c0.048-1.165 0.28494-1.4019 0.60416-0.60417 0.28887 0.72187 0.25335 1.5844-0.0789 1.9167-0.33229 0.33229-0.56864-0.25834-0.52522-1.3125zm-477-5c0.048-1.165 0.28494-1.4019 0.60416-0.60417 0.28887 0.72187 0.25335 1.5844-0.0789 1.9167-0.33229 0.33229-0.56864-0.25834-0.52522-1.3125zm476.08-11.417c0-1.375 0.22698-1.9375 0.50439-1.25s0.27741 1.8125 0 2.5-0.50439 0.125-0.50439-1.25zm-477-6c0-1.375 0.22698-1.9375 0.50439-1.25s0.27741 1.8125 0 2.5-0.50439 0.125-0.50439-1.25zm611.09-10.5c0.0111-2.2 0.21589-2.9822 0.45508-1.7383s0.23011 3.0439-0.0202 4c-0.25029 0.95609-0.446-0.0617-0.4349-2.2617zm-135.09-2.5c0-1.375 0.22698-1.9375 0.50439-1.25s0.27741 1.8125 0 2.5-0.50439 0.125-0.50439-1.25zm-708.96-9.5c0.02038-1.65 0.2445-2.2039 0.49804-1.231 0.25354 0.97297 0.23687 2.323-0.03705 3-0.27393 0.67703-0.48137-0.11903-0.46099-1.769zm707.96-9.5c0-1.375 0.22698-1.9375 0.50439-1.25s0.27741 1.8125 0 2.5-0.50439 0.125-0.50439-1.25zm-778.66-3c0.99549-1.1 2.035-2 2.31-2s-0.31449 0.9-1.31 2-2.035 2-2.31 2 0.31449-0.9 1.31-2zm27.658 0c0-1.375 0.22697-1.9375 0.50439-1.25 0.27741 0.6875 0.27741 1.8125 0 2.5-0.27741 0.6875-0.50439 0.125-0.50439-1.25zm274-3c0-1.375 0.22698-1.9375 0.50439-1.25s0.27741 1.8125 0 2.5-0.50439 0.125-0.50439-1.25zm-205-7c0-1.375 0.22698-1.9375 0.50439-1.25s0.27741 1.8125 0 2.5-0.50439 0.125-0.50439-1.25zm680.92-5.5833c0.048-1.165 0.28494-1.4019 0.60416-0.60417 0.28887 0.72187 0.25335 1.5844-0.0789 1.9167-0.33229 0.33229-0.56864-0.25834-0.52522-1.3125zm-476.92-4.4167c0-1.375 0.22698-1.9375 0.50439-1.25s0.27741 1.8125 0 2.5-0.50439 0.125-0.50439-1.25zm588.71-9.75c-1.2439-1.5861-1.2085-1.6214 0.37756-0.37756 1.6658 1.3064 2.1955 2.1276 1.3724 2.1276-0.20765 0-0.99515-0.7875-1.75-1.75zm-804.79-31.833c0.048-1.165 0.28494-1.4019 0.60416-0.60417 0.28887 0.72187 0.25335 1.5844-0.0789 1.9167-0.3323 0.33229-0.56864-0.25834-0.52522-1.3125z" fill="#9d9d9d"/>
   <path d="m445.08 402.42c0.048-1.165 0.28494-1.4019 0.60416-0.60417 0.28887 0.72187 0.25335 1.5844-0.0789 1.9167-0.33229 0.33229-0.56864-0.25834-0.52522-1.3125zm-316.21-100.17c-1.2439-1.5861-1.2085-1.6214 0.37756-0.37756 0.9625 0.75485 1.75 1.5424 1.75 1.75 0 0.82304-0.82119 0.29331-2.1276-1.3724zm379-51c-1.2439-1.5861-1.2085-1.6214 0.37756-0.37756 0.9625 0.75485 1.75 1.5424 1.75 1.75 0 0.82304-0.82119 0.29331-2.1276-1.3724z" fill="#929292"/>
   <path d="m600.16 138c0-1.375 0.22698-1.9375 0.50439-1.25s0.27741 1.8125 0 2.5-0.50439 0.125-0.50439-1.25zm-34.079-73.583c0.048-1.1649 0.28494-1.4019 0.60416-0.60417 0.28887 0.72188 0.25335 1.5844-0.0789 1.9167-0.33229 0.33229-0.56864-0.25833-0.52522-1.3125z" fill="#8c8c8c"/>
   <path d="m940.08 332.42c0.048-1.165 0.28494-1.4019 0.60416-0.60417 0.28887 0.72187 0.25335 1.5844-0.0789 1.9167-0.33229 0.33229-0.56864-0.25834-0.52522-1.3125zm-503.08-29.794c0-0.20765 0.7875-0.99515 1.75-1.75 1.5861-1.2439 1.6214-1.2085 0.37756 0.37756-1.3064 1.6658-2.1276 2.1955-2.1276 1.3724zm28.232-8.6224c0-1.925 0.2058-2.7125 0.45733-1.75 0.25152 0.9625 0.25152 2.5375 0 3.5-0.25153 0.9625-0.45733 0.175-0.45733-1.75zm108.96-3.5c0.0204-1.65 0.2445-2.2039 0.49804-1.231s0.23687 2.323-0.0371 3c-0.27393 0.67703-0.48137-0.11903-0.46099-1.769zm306.96-1.5c0-1.375 0.22698-1.9375 0.50439-1.25s0.27741 1.8125 0 2.5-0.50439 0.125-0.50439-1.25zm-379.08-0.58333c0.048-1.165 0.28494-1.4019 0.60416-0.60417 0.28887 0.72187 0.25335 1.5844-0.0789 1.9167-0.33229 0.33229-0.56864-0.25834-0.52522-1.3125zm231.08-3.4167c0-1.375 0.22698-1.9375 0.50439-1.25s0.27741 1.8125 0 2.5-0.50439 0.125-0.50439-1.25zm-181.08-0.58333c0.048-1.165 0.28494-1.4019 0.60416-0.60417 0.28887 0.72187 0.25335 1.5844-0.0789 1.9167-0.33229 0.33229-0.56864-0.25834-0.52522-1.3125zm201.25-5.9167c4e-3 -3.85 0.18518-5.3025 0.40166-3.2277 0.21647 2.0748 0.21284 5.2248-8e-3 7-0.22091 1.7752-0.39803 0.0777-0.39359-3.7723zm35.751 3.9167c0.048-1.165 0.28494-1.4019 0.60416-0.60417 0.28887 0.72187 0.25335 1.5844-0.0789 1.9167-0.33229 0.33229-0.56864-0.25834-0.52522-1.3125zm-477-2c0.048-1.165 0.28494-1.4019 0.60416-0.60417 0.28887 0.72187 0.25335 1.5844-0.0789 1.9167-0.33229 0.33229-0.56864-0.25834-0.52522-1.3125zm341.17-1.9167c0.0111-2.2 0.21589-2.9822 0.45508-1.7383s0.23011 3.0439-0.0202 4c-0.25029 0.95609-0.446-0.0617-0.4349-2.2617zm-240.9-5.5c0-4.675 0.17226-6.5875 0.3828-4.25 0.21053 2.3375 0.21053 6.1625 0 8.5-0.21054 2.3375-0.3828 0.425-0.3828-4.25zm-262.27 1.4167c0.048-1.165 0.28494-1.4019 0.60416-0.60417 0.28887 0.72187 0.25335 1.5844-0.0789 1.9167-0.3323 0.33229-0.56864-0.25834-0.52522-1.3125zm314-1c0.048-1.165 0.28494-1.4019 0.60416-0.60417 0.28887 0.72187 0.25335 1.5844-0.0789 1.9167-0.33229 0.33229-0.56864-0.25834-0.52522-1.3125zm324-4c0.048-1.165 0.28494-1.4019 0.60416-0.60417 0.28887 0.72187 0.25335 1.5844-0.0789 1.9167-0.33229 0.33229-0.56864-0.25834-0.52522-1.3125zm-237-1c0.048-1.165 0.28494-1.4019 0.60416-0.60417 0.28887 0.72187 0.25335 1.5844-0.0789 1.9167-0.33229 0.33229-0.56864-0.25834-0.52522-1.3125zm162.08-0.41667c0-1.375 0.22698-1.9375 0.50439-1.25s0.27741 1.8125 0 2.5-0.50439 0.125-0.50439-1.25zm-402.08-2.5833c0.048-1.165 0.28494-1.4019 0.60416-0.60417 0.28887 0.72187 0.25335 1.5844-0.0789 1.9167-0.33229 0.33229-0.56864-0.25834-0.52522-1.3125zm-84-3c0.048-1.165 0.28494-1.4019 0.60416-0.60417 0.28887 0.72187 0.25335 1.5844-0.0789 1.9167-0.3323 0.33229-0.56864-0.25834-0.52522-1.3125zm711.79-3.1667c-1.2439-1.5861-1.2085-1.6214 0.37756-0.37756 1.6658 1.3064 2.1955 2.1276 1.3724 2.1276-0.20765 0-0.99515-0.7875-1.75-1.75zm-151.71-5.25c0-1.375 0.22698-1.9375 0.50439-1.25s0.27741 1.8125 0 2.5-0.50439 0.125-0.50439-1.25zm-477-6c0-1.375 0.22698-1.9375 0.50439-1.25s0.27741 1.8125 0 2.5-0.50439 0.125-0.50439-1.25zm476-13c0-1.375 0.22698-1.9375 0.50439-1.25s0.27741 1.8125 0 2.5-0.50439 0.125-0.50439-1.25zm-467.16-7.3776c0-0.20765 0.7875-0.99515 1.75-1.75 1.5861-1.2439 1.6214-1.2085 0.37756 0.37756-1.3064 1.6658-2.1276 2.1955-2.1276 1.3724zm466.16-10.622c0-1.375 0.22698-1.9375 0.50439-1.25s0.27741 1.8125 0 2.5-0.50439 0.125-0.50439-1.25zm-477.08-3.5833c0.048-1.165 0.28494-1.4019 0.60416-0.60417 0.28887 0.72187 0.25335 1.5844-0.0789 1.9167-0.33229 0.33229-0.56864-0.25834-0.52522-1.3125zm-1-14c0.048-1.165 0.28494-1.4019 0.60416-0.60417 0.28887 0.72187 0.25335 1.5844-0.0789 1.9167-0.33229 0.33229-0.56864-0.25834-0.52522-1.3125zm477.08-0.41667c0-1.375 0.22698-1.9375 0.50439-1.25s0.27741 1.8125 0 2.5-0.50439 0.125-0.50439-1.25zm86.655-1.6831c0.72187-0.28887 1.5844-0.25335 1.9167 0.0789 0.33229 0.33229-0.25834 0.56864-1.3125 0.52522-1.165-0.048-1.4019-0.28494-0.60417-0.60416zm61-12c0.72187-0.28887 1.5844-0.25335 1.9167 0.0789 0.33229 0.33229-0.25834 0.56864-1.3125 0.52522-1.165-0.048-1.4019-0.28494-0.60417-0.60416z" fill="#878787"/>
   <path d="m55.872 265.25c-1.2439-1.5861-1.2085-1.6214 0.37756-0.37756 0.9625 0.75485 1.75 1.5424 1.75 1.75 0 0.82304-0.82119 0.29331-2.1276-1.3724zm30.207-42.833c0.04798-1.165 0.28494-1.4019 0.60417-0.60417 0.28887 0.72187 0.25334 1.5844-0.07895 1.9167-0.33229 0.33229-0.56864-0.25834-0.52522-1.3125zm32.116-27.917c0.0204-1.65 0.2445-2.2039 0.49804-1.231s0.23687 2.323-0.037 3c-0.27393 0.67703-0.48137-0.11903-0.46099-1.769zm-85.116-28.083c0.04798-1.165 0.28494-1.4019 0.60417-0.60417 0.28887 0.72187 0.25334 1.5844-0.07895 1.9167-0.33229 0.33229-0.56864-0.25834-0.52522-1.3125zm31.326-31.667-1.905-2.25 2.25 1.905c2.1144 1.7902 2.7052 2.595 1.905 2.595-0.18976 0-1.2023-1.0125-2.25-2.25zm-10.326-7.3333c0.04798-1.165 0.28494-1.4019 0.60417-0.60417 0.28887 0.72187 0.25334 1.5844-0.07895 1.9167-0.33229 0.33229-0.56864-0.25834-0.52522-1.3125zm39-8c0.04798-1.165 0.28494-1.4019 0.60417-0.60417 0.28887 0.72187 0.25334 1.5844-0.07895 1.9167-0.33229 0.33229-0.56864-0.25834-0.52522-1.3125z" fill="#818181"/>
   <path d="m938.81 343.32c0.72187-0.28887 1.5844-0.25335 1.9167 0.0789 0.33229 0.33229-0.25834 0.56864-1.3125 0.52522-1.165-0.048-1.4019-0.28494-0.60417-0.60416zm8.2664-10.9c0.048-1.165 0.28494-1.4019 0.60416-0.60417 0.28887 0.72187 0.25335 1.5844-0.0789 1.9167-0.33229 0.33229-0.56864-0.25834-0.52522-1.3125zm-384.77-34.917c6e-3 -3.3 0.1923-4.5294 0.41486-2.7321s0.21797 4.4974-0.0102 6c-0.22818 1.5026-0.41027 0.0321-0.40466-3.2679zm-87.038-1.5c0-2.475 0.19502-3.4875 0.43337-2.25 0.23836 1.2375 0.23836 3.2625 0 4.5-0.23835 1.2375-0.43337 0.225-0.43337-2.25zm-307.27-0.37756c0-0.20765 0.7875-0.99515 1.75-1.75 1.5861-1.2439 1.6214-1.2085 0.37756 0.37756-1.3064 1.6658-2.1276 2.1955-2.1276 1.3724zm720.16-5.6224c0-1.375 0.22698-1.9375 0.50439-1.25s0.27741 1.8125 0 2.5-0.50439 0.125-0.50439-1.25zm-757.08-7.5833c0.048-1.165 0.28494-1.4019 0.60416-0.60417 0.28887 0.72187 0.25335 1.5844-0.0789 1.9167-0.3323 0.33229-0.56864-0.25834-0.52522-1.3125zm631.28-7.4167c0-5.225 0.16854-7.3625 0.37454-4.75s0.206 6.8875 0 9.5-0.37454 0.475-0.37454-4.75zm-441.11 4.5c0.0111-2.2 0.21589-2.9822 0.45508-1.7383s0.23011 3.0439-0.0202 4c-0.25029 0.95609-0.446-0.0617-0.4349-2.2617zm401.94-3c0.0204-1.65 0.2445-2.2039 0.49804-1.231s0.23687 2.323-0.0371 3c-0.27393 0.67703-0.48137-0.11903-0.46099-1.769zm-249.04-2.5c0-1.375 0.22698-1.9375 0.50439-1.25s0.27741 1.8125 0 2.5-0.50439 0.125-0.50439-1.25zm87-3c0-1.375 0.22698-1.9375 0.50439-1.25s0.27741 1.8125 0 2.5-0.50439 0.125-0.50439-1.25zm25.094-2.5c0.0111-2.2 0.21589-2.9822 0.45508-1.7383s0.23011 3.0439-0.0202 4c-0.25029 0.95609-0.446-0.0617-0.4349-2.2617zm-92.02-1.5c0-1.925 0.2058-2.7125 0.45733-1.75 0.25152 0.9625 0.25152 2.5375 0 3.5-0.25153 0.9625-0.45733 0.175-0.45733-1.75zm19.926 1c0-1.375 0.22698-1.9375 0.50439-1.25s0.27741 1.8125 0 2.5-0.50439 0.125-0.50439-1.25zm282.92-0.58333c0.048-1.165 0.28494-1.4019 0.60416-0.60417 0.28887 0.72187 0.25335 1.5844-0.0789 1.9167-0.33229 0.33229-0.56864-0.25834-0.52522-1.3125zm-477-5c0.048-1.165 0.28494-1.4019 0.60416-0.60417 0.28887 0.72187 0.25335 1.5844-0.0789 1.9167-0.33229 0.33229-0.56864-0.25834-0.52522-1.3125zm403.12-0.91667c0.0204-1.65 0.2445-2.2039 0.49804-1.231s0.23687 2.323-0.0371 3c-0.27393 0.67703-0.48137-0.11903-0.46099-1.769zm-328.12-3.0833c0.048-1.165 0.28494-1.4019 0.60416-0.60417 0.28887 0.72187 0.25335 1.5844-0.0789 1.9167-0.33229 0.33229-0.56864-0.25834-0.52522-1.3125zm329-6c0.048-1.165 0.28494-1.4019 0.60416-0.60417 0.28887 0.72187 0.25335 1.5844-0.0789 1.9167-0.33229 0.33229-0.56864-0.25834-0.52522-1.3125zm72-1c0.048-1.165 0.28494-1.4019 0.60416-0.60417 0.28887 0.72187 0.25335 1.5844-0.0789 1.9167-0.33229 0.33229-0.56864-0.25834-0.52522-1.3125zm-477-6c0.048-1.165 0.28494-1.4019 0.60416-0.60417 0.28887 0.72187 0.25335 1.5844-0.0789 1.9167-0.33229 0.33229-0.56864-0.25834-0.52522-1.3125zm476.08-12.417c0-1.375 0.22698-1.9375 0.50439-1.25s0.27741 1.8125 0 2.5-0.50439 0.125-0.50439-1.25zm-1-19c0-1.375 0.22698-1.9375 0.50439-1.25s0.27741 1.8125 0 2.5-0.50439 0.125-0.50439-1.25zm-477-7c0-1.375 0.22698-1.9375 0.50439-1.25s0.27741 1.8125 0 2.5-0.50439 0.125-0.50439-1.25zm549.6-3.7073c1.2439-0.23919 3.0439-0.23011 4 0.0202 0.95609 0.25029-0.0617 0.446-2.2617 0.4349-2.2-0.0111-2.9822-0.21589-1.7383-0.45508zm-73.604-8.2927c0-1.375 0.22698-1.9375 0.50439-1.25s0.27741 1.8125 0 2.5-0.50439 0.125-0.50439-1.25zm-477-5c0-1.375 0.22698-1.9375 0.50439-1.25s0.27741 1.8125 0 2.5-0.50439 0.125-0.50439-1.25z" fill="#7b7b7b"/>
   <path d="m594.19 137.5c0.0204-1.65 0.2445-2.2039 0.49804-1.231s0.23687 2.323-0.0371 3c-0.27393 0.67703-0.48137-0.11903-0.46099-1.769zm39.057-1c0.0111-2.2 0.21589-2.9822 0.45508-1.7383s0.23011 3.0439-0.0202 4c-0.25029 0.95609-0.446-0.0617-0.4349-2.2617zm-18.252-29.441c0-0.51754 0.44485-1.2159 0.98855-1.5519 0.56686-0.35034 0.7345 0.0511 0.39301 0.94098-0.66479 1.7324-1.3816 2.0494-1.3816 0.61096z" fill="#767676"/>
   <path d="m463.19 459.5c0.0204-1.65 0.2445-2.2039 0.49804-1.231s0.23687 2.323-0.0371 3c-0.27393 0.67703-0.48137-0.11903-0.46099-1.769zm-61.963-55.5c0-1.925 0.2058-2.7125 0.45733-1.75 0.25152 0.9625 0.25152 2.5375 0 3.5-0.25153 0.9625-0.45733 0.175-0.45733-1.75zm33.926-11c0-1.375 0.22698-1.9375 0.50439-1.25s0.27741 1.8125 0 2.5-0.50439 0.125-0.50439-1.25zm247.71-142.75c-1.2439-1.5861-1.2085-1.6214 0.37756-0.37756 1.6658 1.3064 2.1955 2.1276 1.3724 2.1276-0.20765 0-0.99515-0.7875-1.75-1.75z" fill="#707070"/>
   <path d="m441.16 468c0-1.375 0.22698-1.9375 0.50439-1.25s0.27741 1.8125 0 2.5-0.50439 0.125-0.50439-1.25zm-189.16-165.38c0-0.20765 0.7875-0.99515 1.75-1.75 1.5861-1.2439 1.6214-1.2085 0.37756 0.37756-1.3064 1.6658-2.1276 2.1955-2.1276 1.3724zm71.5-79.622c0.99549-1.1 2.035-2 2.31-2s-0.31449 0.9-1.31 2-2.035 2-2.31 2 0.31449-0.9 1.31-2z" fill="#6b6b6b"/>
   <path d="m940.08 328.42c0.048-1.165 0.28494-1.4019 0.60416-0.60417 0.28887 0.72187 0.25335 1.5844-0.0789 1.9167-0.33229 0.33229-0.56864-0.25834-0.52522-1.3125zm-387-33c0.048-1.165 0.28494-1.4019 0.60416-0.60417 0.28887 0.72187 0.25335 1.5844-0.0789 1.9167-0.33229 0.33229-0.56864-0.25834-0.52522-1.3125zm-51-4c0.048-1.165 0.28494-1.4019 0.60416-0.60417 0.28887 0.72187 0.25335 1.5844-0.0789 1.9167-0.33229 0.33229-0.56864-0.25834-0.52522-1.3125zm-36.884-3.9167c0.0204-1.65 0.2445-2.2039 0.49804-1.231s0.23687 2.323-0.0371 3c-0.27393 0.67703-0.48137-0.11903-0.46099-1.769zm-238.12-1.0833c0.048-1.165 0.28494-1.4019 0.60416-0.60417 0.28887 0.72187 0.25335 1.5844-0.0789 1.9167-0.3323 0.33229-0.56864-0.25834-0.52522-1.3125zm185-3c0.048-1.165 0.28494-1.4019 0.60416-0.60417 0.28887 0.72187 0.25335 1.5844-0.0789 1.9167-0.33229 0.33229-0.56864-0.25834-0.52522-1.3125zm140-3c0.048-1.165 0.28494-1.4019 0.60416-0.60417 0.28887 0.72187 0.25335 1.5844-0.0789 1.9167-0.33229 0.33229-0.56864-0.25834-0.52522-1.3125zm237-1c0.048-1.165 0.28494-1.4019 0.60416-0.60417 0.28887 0.72187 0.25335 1.5844-0.0789 1.9167-0.33229 0.33229-0.56864-0.25834-0.52522-1.3125zm125-1c0.048-1.165 0.28494-1.4019 0.60416-0.60417 0.28887 0.72187 0.25335 1.5844-0.0789 1.9167-0.33229 0.33229-0.56864-0.25834-0.52522-1.3125zm-791.92-1.4167c0-1.375 0.22698-1.9375 0.50439-1.25s0.27741 1.8125 0 2.5-0.50439 0.125-0.50439-1.25zm631-7c0-1.375 0.22698-1.9375 0.50439-1.25s0.27741 1.8125 0 2.5-0.50439 0.125-0.50439-1.25zm-289.08-0.58333c0.048-1.165 0.28494-1.4019 0.60416-0.60417 0.28887 0.72187 0.25335 1.5844-0.0789 1.9167-0.33229 0.33229-0.56864-0.25834-0.52522-1.3125zm324-4c0.048-1.165 0.28494-1.4019 0.60416-0.60417 0.28887 0.72187 0.25335 1.5844-0.0789 1.9167-0.33229 0.33229-0.56864-0.25834-0.52522-1.3125zm-237-1c0.048-1.165 0.28494-1.4019 0.60416-0.60417 0.28887 0.72187 0.25335 1.5844-0.0789 1.9167-0.33229 0.33229-0.56864-0.25834-0.52522-1.3125zm-350-2c0.048-1.165 0.28494-1.4019 0.60416-0.60417 0.28887 0.72187 0.25335 1.5844-0.0789 1.9167-0.3323 0.33229-0.56864-0.25834-0.52522-1.3125zm211 0c0.048-1.165 0.28494-1.4019 0.60416-0.60417 0.28887 0.72187 0.25335 1.5844-0.0789 1.9167-0.33229 0.33229-0.56864-0.25834-0.52522-1.3125zm-101-1c0.048-1.165 0.28494-1.4019 0.60416-0.60417 0.28887 0.72187 0.25335 1.5844-0.0789 1.9167-0.33229 0.33229-0.56864-0.25834-0.52522-1.3125zm-84-2c0.048-1.165 0.28494-1.4019 0.60416-0.60417 0.28887 0.72187 0.25335 1.5844-0.0789 1.9167-0.3323 0.33229-0.56864-0.25834-0.52522-1.3125zm525.15-2.4167c0-1.925 0.2058-2.7125 0.45733-1.75 0.25152 0.9625 0.25152 2.5375 0 3.5-0.25153 0.9625-0.45733 0.175-0.45733-1.75zm34.926-7c0-1.375 0.22698-1.9375 0.50439-1.25s0.27741 1.8125 0 2.5-0.50439 0.125-0.50439-1.25zm-477-7c0-1.375 0.22698-1.9375 0.50439-1.25s0.27741 1.8125 0 2.5-0.50439 0.125-0.50439-1.25zm476-12c0-1.375 0.22698-1.9375 0.50439-1.25s0.27741 1.8125 0 2.5-0.50439 0.125-0.50439-1.25zm-507.96-10.5c0.0204-1.65 0.2445-2.2039 0.49804-1.231s0.23687 2.323-0.0371 3c-0.27393 0.67703-0.48137-0.11903-0.46099-1.769zm506.96-7.5c0-1.375 0.22698-1.9375 0.50439-1.25s0.27741 1.8125 0 2.5-0.50439 0.125-0.50439-1.25zm-477.08-3.5833c0.048-1.165 0.28494-1.4019 0.60416-0.60417 0.28887 0.72187 0.25335 1.5844-0.0789 1.9167-0.33229 0.33229-0.56864-0.25834-0.52522-1.3125zm578-5c0.048-1.165 0.28494-1.4019 0.60416-0.60417 0.28887 0.72187 0.25335 1.5844-0.0789 1.9167-0.33229 0.33229-0.56864-0.25834-0.52522-1.3125zm-102-10c0.048-1.165 0.28494-1.4019 0.60416-0.60417 0.28887 0.72187 0.25335 1.5844-0.0789 1.9167-0.33229 0.33229-0.56864-0.25834-0.52522-1.3125zm-478-12c0.048-1.165 0.28494-1.4019 0.60416-0.60417 0.28887 0.72187 0.25335 1.5844-0.0789 1.9167-0.33229 0.33229-0.56864-0.25834-0.52522-1.3125zm477.12-1.9167c0.0204-1.65 0.2445-2.2039 0.49804-1.231s0.23687 2.323-0.0371 3c-0.27393 0.67703-0.48137-0.11903-0.46099-1.769zm-235.12-29.083c0.048-1.165 0.28494-1.4019 0.60416-0.60417 0.28887 0.72187 0.25335 1.5844-0.0789 1.9167-0.33229 0.33229-0.56864-0.25834-0.52522-1.3125zm58.326-72.667-1.905-2.25 2.25 1.905c1.2375 1.0477 2.25 2.0602 2.25 2.25 0 0.80025-0.80479 0.20946-2.595-1.905z" fill="#656565"/>
   <path d="m446.87 461.25c-1.2439-1.5861-1.2085-1.6214 0.37756-0.37756 1.6658 1.3064 2.1955 2.1276 1.3724 2.1276-0.20765 0-0.99515-0.7875-1.75-1.75zm-390.79-213.83c0.04798-1.165 0.28494-1.4019 0.60417-0.60417 0.28887 0.72187 0.25334 1.5844-0.07895 1.9167-0.33229 0.33229-0.56864-0.25834-0.52522-1.3125zm7.0789-1.4167c0-1.375 0.22697-1.9375 0.50439-1.25 0.27741 0.6875 0.27741 1.8125 0 2.5-0.27741 0.6875-0.50439 0.125-0.50439-1.25zm-54-27c0-1.375 0.22697-1.9375 0.50439-1.25s0.27741 1.8125 0 2.5-0.50439 0.125-0.50439-1.25zm69.842-22.378c0-0.20765 0.7875-0.99515 1.75-1.75 1.5861-1.2439 1.6214-1.2085 0.37756 0.37756-1.3064 1.6658-2.1276 2.1955-2.1276 1.3724zm61.158-33.622c0-1.375 0.22698-1.9375 0.50439-1.25s0.27741 1.8125 0 2.5-0.50439 0.125-0.50439-1.25zm-4.0789-0.58333c0.048-1.165 0.28494-1.4019 0.60416-0.60417 0.28887 0.72187 0.25335 1.5844-0.0789 1.9167-0.3323 0.33229-0.56864-0.25834-0.52522-1.3125zm-69-6c0.04798-1.165 0.28494-1.4019 0.60417-0.60417 0.28887 0.72187 0.25334 1.5844-0.07895 1.9167-0.33229 0.33229-0.56864-0.25834-0.52522-1.3125zm39.079-36.417c0-1.375 0.22698-1.9375 0.50439-1.25s0.27741 1.8125 0 2.5-0.50439 0.125-0.50439-1.25zm0.92106-23.583c0.048-1.1649 0.28494-1.4019 0.60416-0.60417 0.28887 0.72188 0.25335 1.5844-0.0789 1.9167-0.3323 0.33229-0.56864-0.25833-0.52522-1.3125zm481.33-20.667-1.905-2.25 2.25 1.905c1.2375 1.0477 2.25 2.0602 2.25 2.25 0 0.80025-0.80479 0.20946-2.595-1.905z" fill="#5f5f5f"/>
   <path d="m662.27 278c0-2.475 0.19502-3.4875 0.43337-2.25 0.23836 1.2375 0.23836 3.2625 0 4.5-0.23835 1.2375-0.43337 0.225-0.43337-2.25zm-188.19 0.41667c0.048-1.165 0.28494-1.4019 0.60416-0.60417 0.28887 0.72187 0.25335 1.5844-0.0789 1.9167-0.33229 0.33229-0.56864-0.25834-0.52522-1.3125zm87.116-2.9167c0.0204-1.65 0.2445-2.2039 0.49804-1.231s0.23687 2.323-0.0371 3c-0.27393 0.67703-0.48137-0.11903-0.46099-1.769zm-139.87-5c4e-3 -3.85 0.18518-5.3025 0.40166-3.2277 0.21647 2.0748 0.21284 5.2248-8e-3 7-0.22091 1.7752-0.39803 0.0777-0.39359-3.7723zm72.867 2c0.0204-1.65 0.2445-2.2039 0.49804-1.231s0.23687 2.323-0.0371 3c-0.27393 0.67703-0.48137-0.11903-0.46099-1.769zm-99.116-10.083c0.048-1.165 0.28494-1.4019 0.60416-0.60417 0.28887 0.72187 0.25335 1.5844-0.0789 1.9167-0.33229 0.33229-0.56864-0.25834-0.52522-1.3125zm26-3c0.048-1.165 0.28494-1.4019 0.60416-0.60417 0.28887 0.72187 0.25335 1.5844-0.0789 1.9167-0.33229 0.33229-0.56864-0.25834-0.52522-1.3125zm375-4c0.048-1.165 0.28494-1.4019 0.60416-0.60417 0.28887 0.72187 0.25335 1.5844-0.0789 1.9167-0.33229 0.33229-0.56864-0.25834-0.52522-1.3125zm-666.08-3.7942c0-0.20765 0.7875-0.99515 1.75-1.75 1.5861-1.2439 1.6214-1.2085 0.37756 0.37756-1.3064 1.6658-2.1276 2.1955-2.1276 1.3724zm189.08-1.2058c0.048-1.165 0.28494-1.4019 0.60416-0.60417 0.28887 0.72187 0.25335 1.5844-0.0789 1.9167-0.33229 0.33229-0.56864-0.25834-0.52522-1.3125zm476.08-12.417c0-1.375 0.22698-1.9375 0.50439-1.25s0.27741 1.8125 0 2.5-0.50439 0.125-0.50439-1.25zm-477-6c0-1.375 0.22698-1.9375 0.50439-1.25s0.27741 1.8125 0 2.5-0.50439 0.125-0.50439-1.25zm476.04-13.5c0.0204-1.65 0.2445-2.2039 0.49804-1.231s0.23687 2.323-0.0371 3c-0.27393 0.67703-0.48137-0.11903-0.46099-1.769zm-477.12-7.0833c0.048-1.165 0.28494-1.4019 0.60416-0.60417 0.28887 0.72187 0.25335 1.5844-0.0789 1.9167-0.33229 0.33229-0.56864-0.25834-0.52522-1.3125zm476-12c0.048-1.165 0.28494-1.4019 0.60416-0.60417 0.28887 0.72187 0.25335 1.5844-0.0789 1.9167-0.33229 0.33229-0.56864-0.25834-0.52522-1.3125zm-477-5c0.048-1.165 0.28494-1.4019 0.60416-0.60417 0.28887 0.72187 0.25335 1.5844-0.0789 1.9167-0.33229 0.33229-0.56864-0.25834-0.52522-1.3125zm476-12c0.048-1.165 0.28494-1.4019 0.60416-0.60417 0.28887 0.72187 0.25335 1.5844-0.0789 1.9167-0.33229 0.33229-0.56864-0.25834-0.52522-1.3125zm-729.83-10.133c1.5125-0.22913 3.9875-0.22913 5.5 0 1.5125 0.22912 0.275 0.41659-2.75 0.41659s-4.2625-0.18747-2.75-0.41659z" fill="#5a5a5a"/>
   <path d="m421.19 430.5c0.0204-1.65 0.2445-2.2039 0.49804-1.231s0.23687 2.323-0.0371 3c-0.27393 0.67703-0.48137-0.11903-0.46099-1.769zm479.76-205.75c2.452-2.6125 4.5895-4.75 4.75-4.75 0.75088 0-0.043 0.89783-4.4582 5.0418l-4.75 4.4582zm-4.4582-1.75c2.7086-2.75 5.1498-5 5.4248-5s-1.7162 2.25-4.4248 5-5.1498 5-5.4248 5 1.7162-2.25 4.4248-5zm-311.75-49.706c1.2375-0.23836 3.2625-0.23836 4.5 0 1.2375 0.23835 0.225 0.43337-2.25 0.43337s-3.4875-0.19502-2.25-0.43337zm-47.938-42.977c0.72187-0.28887 1.5844-0.25335 1.9167 0.0789 0.33229 0.33229-0.25834 0.56864-1.3125 0.52522-1.165-0.048-1.4019-0.28494-0.60417-0.60416z" fill="#545454"/>
   <path d="m497.75 445.34c0.6875-0.27741 1.8125-0.27741 2.5 0s0.125 0.50439-1.25 0.50439-1.9375-0.22698-1.25-0.50439zm-72.671-11.921c0.048-1.165 0.28494-1.4019 0.60416-0.60417 0.28887 0.72187 0.25335 1.5844-0.0789 1.9167-0.33229 0.33229-0.56864-0.25834-0.52522-1.3125z" fill="#4f4f4f"/>
   <path d="m175.5 301c0.99549-1.1 2.035-2 2.31-2s-0.31449 0.9-1.31 2-2.035 2-2.31 2 0.31449-0.9 1.31-2zm471.37-119.75c-1.2439-1.5861-1.2085-1.6214 0.37756-0.37756 0.9625 0.75485 1.75 1.5424 1.75 1.75 0 0.82304-0.82119 0.29331-2.1276-1.3724zm0-7c-1.2439-1.5861-1.2085-1.6214 0.37756-0.37756 0.9625 0.75485 1.75 1.5424 1.75 1.75 0 0.82304-0.82119 0.29331-2.1276-1.3724zm-16-14c-1.2439-1.5861-1.2085-1.6214 0.37756-0.37756 1.6658 1.3064 2.1955 2.1276 1.3724 2.1276-0.20765 0-0.99515-0.7875-1.75-1.75z" fill="#494949"/>
   <path d="m955.16 322c0-1.375 0.22698-1.9375 0.50439-1.25s0.27741 1.8125 0 2.5-0.50439 0.125-0.50439-1.25zm-402.08-30.583c0.048-1.165 0.28494-1.4019 0.60416-0.60417 0.28887 0.72187 0.25335 1.5844-0.0789 1.9167-0.33229 0.33229-0.56864-0.25834-0.52522-1.3125zm-87.884-9.9167c0.0204-1.65 0.2445-2.2039 0.49804-1.231s0.23687 2.323-0.0371 3c-0.27393 0.67703-0.48137-0.11903-0.46099-1.769zm219-1c0.0204-1.65 0.2445-2.2039 0.49804-1.231s0.23687 2.323-0.0371 3c-0.27393 0.67703-0.48137-0.11903-0.46099-1.769zm-132.12-4.0833c0.048-1.165 0.28494-1.4019 0.60416-0.60417 0.28887 0.72187 0.25335 1.5844-0.0789 1.9167-0.33229 0.33229-0.56864-0.25834-0.52522-1.3125zm-240-3c0.048-1.165 0.28494-1.4019 0.60416-0.60417 0.28887 0.72187 0.25335 1.5844-0.0789 1.9167-0.33229 0.33229-0.56864-0.25834-0.52522-1.3125zm193.08-7.4167c0-1.375 0.22698-1.9375 0.50439-1.25s0.27741 1.8125 0 2.5-0.50439 0.125-0.50439-1.25zm71.921 0.41667c0.048-1.165 0.28494-1.4019 0.60416-0.60417 0.28887 0.72187 0.25335 1.5844-0.0789 1.9167-0.33229 0.33229-0.56864-0.25834-0.52522-1.3125zm-191-4c0.048-1.165 0.28494-1.4019 0.60416-0.60417 0.28887 0.72187 0.25335 1.5844-0.0789 1.9167-0.33229 0.33229-0.56864-0.25834-0.52522-1.3125zm402 0c0.048-1.165 0.28494-1.4019 0.60416-0.60417 0.28887 0.72187 0.25335 1.5844-0.0789 1.9167-0.33229 0.33229-0.56864-0.25834-0.52522-1.3125zm-778.88-1.9167c0.02038-1.65 0.2445-2.2039 0.49804-1.231s0.23687 2.323-0.037054 3-0.48137-0.11903-0.46099-1.769zm191.88-2.0833c0.048-1.165 0.28494-1.4019 0.60416-0.60417 0.28887 0.72187 0.25335 1.5844-0.0789 1.9167-0.3323 0.33229-0.56864-0.25834-0.52522-1.3125zm110.08-1.4167c0-1.375 0.22698-1.9375 0.50439-1.25s0.27741 1.8125 0 2.5-0.50439 0.125-0.50439-1.25zm-84-1c0-1.375 0.22698-1.9375 0.50439-1.25s0.27741 1.8125 0 2.5-0.50439 0.125-0.50439-1.25zm322.92-4.5833c0.048-1.165 0.28494-1.4019 0.60416-0.60417 0.28887 0.72187 0.25335 1.5844-0.0789 1.9167-0.33229 0.33229-0.56864-0.25834-0.52522-1.3125zm237.08-6.4167c0-1.375 0.22698-1.9375 0.50439-1.25s0.27741 1.8125 0 2.5-0.50439 0.125-0.50439-1.25zm-477-7c0-1.375 0.22698-1.9375 0.50439-1.25s0.27741 1.8125 0 2.5-0.50439 0.125-0.50439-1.25zm476-12c0-1.375 0.22698-1.9375 0.50439-1.25s0.27741 1.8125 0 2.5-0.50439 0.125-0.50439-1.25zm-477-5c0-1.375 0.22698-1.9375 0.50439-1.25s0.27741 1.8125 0 2.5-0.50439 0.125-0.50439-1.25zm-222.08-7.5833c0.04798-1.165 0.28494-1.4019 0.60417-0.60417 0.28887 0.72187 0.25334 1.5844-0.07895 1.9167-0.33229 0.33229-0.56864-0.25834-0.52522-1.3125zm5 0c0.04798-1.165 0.28494-1.4019 0.60417-0.60417 0.28887 0.72187 0.25334 1.5844-0.07895 1.9167-0.33229 0.33229-0.56864-0.25834-0.52522-1.3125zm693.08-5.4167c0-1.375 0.22698-1.9375 0.50439-1.25s0.27741 1.8125 0 2.5-0.50439 0.125-0.50439-1.25zm-477.08-1.5833c0.048-1.165 0.28494-1.4019 0.60416-0.60417 0.28887 0.72187 0.25335 1.5844-0.0789 1.9167-0.33229 0.33229-0.56864-0.25834-0.52522-1.3125zm476.08-16.417c0-1.375 0.22698-1.9375 0.50439-1.25s0.27741 1.8125 0 2.5-0.50439 0.125-0.50439-1.25zm-203.4-9.7073c1.2439-0.23919 3.0439-0.23011 4 0.0202 0.95609 0.25029-0.0617 0.446-2.2617 0.4349-2.2-0.0111-2.9822-0.21589-1.7383-0.45508zm-475.68-35.876c0.048-1.165 0.28494-1.4019 0.60416-0.60417 0.28887 0.72187 0.25335 1.5844-0.0789 1.9167-0.3323 0.33229-0.56864-0.25834-0.52522-1.3125zm519-4c0.048-1.165 0.28494-1.4019 0.60416-0.60417 0.28887 0.72187 0.25335 1.5844-0.0789 1.9167-0.33229 0.33229-0.56864-0.25834-0.52522-1.3125z" fill="#444"/>
   <path d="m746.81 306.32c0.72187-0.28887 1.5844-0.25335 1.9167 0.0789 0.33229 0.33229-0.25834 0.56864-1.3125 0.52522-1.165-0.048-1.4019-0.28494-0.60417-0.60416zm-325.49-22.317c0-3.575 0.1815-5.0375 0.40333-3.25 0.22182 1.7875 0.22182 4.7125 0 6.5-0.22183 1.7875-0.40333 0.325-0.40333-3.25zm52.875-0.5c0.0204-1.65 0.2445-2.2039 0.49804-1.231s0.23687 2.323-0.0371 3c-0.27393 0.67703-0.48137-0.11903-0.46099-1.769zm87-2c0.0204-1.65 0.2445-2.2039 0.49804-1.231s0.23687 2.323-0.0371 3c-0.27393 0.67703-0.48137-0.11903-0.46099-1.769zm-402.12-3.0833c0.048-1.165 0.28494-1.4019 0.60416-0.60417 0.28887 0.72187 0.25335 1.5844-0.0789 1.9167-0.3323 0.33229-0.56864-0.25834-0.52522-1.3125zm77.291-10.417c0-5.775 0.16528-8.1375 0.36728-5.25s0.202 7.6125 0 10.5-0.36728 0.525-0.36728-5.25zm560.82 7.5c0.0204-1.65 0.2445-2.2039 0.49804-1.231s0.23687 2.323-0.0371 3c-0.27393 0.67703-0.48137-0.11903-0.46099-1.769zm-477.12-5.0833c0.048-1.165 0.28494-1.4019 0.60416-0.60417 0.28887 0.72187 0.25335 1.5844-0.0789 1.9167-0.33229 0.33229-0.56864-0.25834-0.52522-1.3125zm153-4c0.048-1.165 0.28494-1.4019 0.60416-0.60417 0.28887 0.72187 0.25335 1.5844-0.0789 1.9167-0.33229 0.33229-0.56864-0.25834-0.52522-1.3125zm-263-4c0.048-1.165 0.28494-1.4019 0.60416-0.60417 0.28887 0.72187 0.25335 1.5844-0.0789 1.9167-0.3323 0.33229-0.56864-0.25834-0.52522-1.3125zm586-3c0.048-1.165 0.28494-1.4019 0.60416-0.60417 0.28887 0.72187 0.25335 1.5844-0.0789 1.9167-0.33229 0.33229-0.56864-0.25834-0.52522-1.3125zm-477-5c0.048-1.165 0.28494-1.4019 0.60416-0.60417 0.28887 0.72187 0.25335 1.5844-0.0789 1.9167-0.33229 0.33229-0.56864-0.25834-0.52522-1.3125zm476-12c0.048-1.165 0.28494-1.4019 0.60416-0.60417 0.28887 0.72187 0.25335 1.5844-0.0789 1.9167-0.33229 0.33229-0.56864-0.25834-0.52522-1.3125zm-477-6c0.048-1.165 0.28494-1.4019 0.60416-0.60417 0.28887 0.72187 0.25335 1.5844-0.0789 1.9167-0.33229 0.33229-0.56864-0.25834-0.52522-1.3125zm476.12-12.917c0.0204-1.65 0.2445-2.2039 0.49804-1.231s0.23687 2.323-0.0371 3c-0.27393 0.67703-0.48137-0.11903-0.46099-1.769zm-1.0371-19.5c0-1.375 0.22698-1.9375 0.50439-1.25s0.27741 1.8125 0 2.5-0.50439 0.125-0.50439-1.25zm-477.08-5.5833c0.048-1.165 0.28494-1.4019 0.60416-0.60417 0.28887 0.72187 0.25335 1.5844-0.0789 1.9167-0.33229 0.33229-0.56864-0.25834-0.52522-1.3125zm476.08-12.417c0-1.375 0.22698-1.9375 0.50439-1.25s0.27741 1.8125 0 2.5-0.50439 0.125-0.50439-1.25zm-477.08-3.5833c0.048-1.165 0.28494-1.4019 0.60416-0.60417 0.28887 0.72187 0.25335 1.5844-0.0789 1.9167-0.33229 0.33229-0.56864-0.25834-0.52522-1.3125z" fill="#3e3e3e"/>
   <path d="m499.25 468.5c0.0111-2.2 0.21589-2.9822 0.45508-1.7383s0.23011 3.0439-0.0202 4c-0.25029 0.95609-0.446-0.0617-0.4349-2.2617zm3.4978-23.162c0.6875-0.27741 1.8125-0.27741 2.5 0s0.125 0.50439-1.25 0.50439-1.9375-0.22698-1.25-0.50439zm-41.671-17.921c0.048-1.165 0.28494-1.4019 0.60416-0.60417 0.28887 0.72187 0.25335 1.5844-0.0789 1.9167-0.33229 0.33229-0.56864-0.25834-0.52522-1.3125zm13.734-13.1c0.72187-0.28887 1.5844-0.25335 1.9167 0.0789 0.33229 0.33229-0.25834 0.56864-1.3125 0.52522-1.165-0.048-1.4019-0.28494-0.60417-0.60416zm20.438-3.0062c0.9625-0.25152 2.5375-0.25152 3.5 0 0.9625 0.25153 0.175 0.45733-1.75 0.45733s-2.7125-0.2058-1.75-0.45733zm459.26-102.3c-0.35034-0.56686 0.0511-0.7345 0.94098-0.39301 1.7324 0.66479 2.0494 1.3816 0.61096 1.3816-0.51754 0-1.2159-0.44485-1.5519-0.98855zm-61.635-3.7614c-1.2439-1.5861-1.2085-1.6214 0.37756-0.37756 1.6658 1.3064 2.1955 2.1276 1.3724 2.1276-0.20765 0-0.99515-0.7875-1.75-1.75zm-462.87-8.6276c0-0.20765 0.7875-0.99515 1.75-1.75 1.5861-1.2439 1.6214-1.2085 0.37756 0.37756-1.3064 1.6658-2.1276 2.1955-2.1276 1.3724zm-369.25-128.35c2.3375-0.21053 6.1625-0.21053 8.5 0 2.3375 0.21054 0.425 0.3828-4.25 0.3828s-6.5875-0.17226-4.25-0.3828z" fill="#383838"/>
   <path d="m462.75 470.89c-5.4102-2.1193-9.4267-4.5681-13.302-8.1099-3.7213-3.4011-5.8832-4.7424-6.5572-4.0684-0.55301 0.55301-1.2661 3.5302-1.5845 6.616l-0.57905 5.6105-6.021-4.218c-10.478-7.3403-21.484-22.007-27.159-36.193-7.355-18.384-7.3075-34.652 0.14791-50.723l3.5709-7.6972-7.2766-10.803c-4.0021-5.9416-8.8702-12.482-10.818-14.534-1.9478-2.0524-3.3456-3.8956-3.1063-4.0961 0.23926-0.20045 1.9205-1.0857 3.736-1.9672 3.0633-1.4873 3.3365-1.4804 3.7942 0.0961 1.7402 5.9944 7.1883 14.642 12.292 19.51l5.7675 5.5013 6.4228-1.5035c9.6122-2.2502 26.345-1.3489 35.423 1.9079 13.713 4.9198 25.915 13.585 34.73 24.663 5.277 6.6319 11.77 17.638 11.77 19.952 0 0.48899-2.6606 0.83932-5.9124 0.77852-3.2518-0.0608-6.2367 0.21185-6.6331 0.60587-0.3964 0.39403 0.65972 2.2886 2.3469 4.2103 4.734 5.3918 8.3596 12.186 10.368 19.429 2.6203 9.4496 2.7761 9.1445-4.6695 9.1445-3.575 0-6.5 0.16901-6.5 0.37557s1.1858 3.0191 2.6351 6.25c3.3574 7.4847 4.6046 20.374 1.9715 20.374-3.2676 0-12.985-4.0142-19.295-7.9702-3.5349-2.2164-6.8868-4.0298-7.4488-4.0298-0.57541 0-0.79197 1.2012-0.49577 2.75 1.3881 7.2582 1.7335 11.247 0.97088 11.212-0.46085-0.0209-4.3256-1.4042-8.5883-3.074zm1.2614-10.638c6e-3 -2.0625 0.26511-5.55 0.57568-7.75l0.56469-4-2.47 2.6829c-1.3585 1.4756-2.6471 3.2143-2.8636 3.8638-0.25768 0.77304-1.7239 0.27815-4.2452-1.4329-3.7898-2.5718-7.5725-3.4454-7.5725-1.7486 0 2.7348 11.365 12.135 14.671 12.135 0.8666 0 1.3324-1.3039 1.3396-3.75zm17.093-2.7848c-3.3608-3.8277-3.9929-5.7437-1.5909-4.8219 1.844 0.70759 4.4873-1.317 4.4873-3.437 0-2.1841-2.9698-5.2063-5.116-5.2063-2.3312 0-5.884 3.8162-5.884 6.3201 0 2.1272 7.9858 10.68 9.972 10.68 0.67935 0-0.16144-1.5907-1.8684-3.5348zm13.339 1.2848c-0.38061-1.2375-1.2555-3.3474-1.9442-4.6886l-1.2521-2.4386-1.5954 3.0851c-1.5272 2.9534-1.5005 3.1514 0.62678 4.6362 3.3295 2.324 4.9896 2.0872 4.1649-0.59406zm-53.546-10.053 3.041-5.781-3.1792-2.8406c-2.6707-2.3862-3.5454-2.6737-5.4687-1.7974-2.6569 1.2106-2.6286 1.0187-1.17 7.9229 1.1015 5.2142 2.7089 9.3041 3.3892 8.6238 0.19068-0.19069 1.7151-2.9482 3.3877-6.1277zm-13.372-4.2647c-1.7572-6.7462-1.9936-15.687-0.48918-18.498 0.59362-1.1092 2.0866-1.9343 3.5-1.9343 2.5017 0 2.8392 0.65522 2.4922 4.8394-0.25831 3.1154 2.5666 2.5911 5.2221-0.96919 4.522-6.0627-3.5055-13.48-10.524-9.7234-5.9874 3.2044-7.8132 10.059-5.2962 19.884 1.5083 5.8874 5.2842 13.589 6.209 12.664 0.22566-0.22566-0.27567-3.0439-1.1141-6.2627zm32.338 1.5406 2.2381-3.0272-3.3001-1.3995c-3.1497-1.3358-3.3988-1.2775-5.4668 1.2772l-2.1668 2.6768 3.1668 1.7081c1.7417 0.93945 3.1947 1.727 3.2287 1.75 0.0341 0.0231 1.0691-1.3203 2.3001-2.9853zm36.138-5.8898c0-1.3779-8.4045-8.0875-9.1209-7.2815-0.34149 0.38421-0.91517 1.9464-1.2748 3.4716-0.53685 2.2765-0.24663 2.9366 1.6209 3.6866 3 1.2048 8.7748 1.286 8.7748 0.12329zm-18.223-2.6396c1.2224-0.85619 2.2225-2.48 2.2225-3.6084 0-1.6758-0.44714-1.9395-2.4404-1.4392-1.8243 0.45787-2.8342 0.0504-4-1.6141-2.0064-2.8645-1.9676-3.3735 0.44042-5.7816 3.5716-3.5716 9.8224-2.2667 17.816 3.719 1.8236 1.3656 3.5476 2.251 3.831 1.9676 1.93-1.93-10.815-14.116-16.311-15.596-7.2517-1.9527-14.994 2.3154-17.395 9.5889-0.93309 2.8273-0.77779 4.0261 0.99631 7.6909 1.1559 2.3878 3.1055 4.826 4.3323 5.418 3.2809 1.5834 7.9751 1.4293 10.508-0.34487zm-25.092-2.6176c1.6288-1.5302 2.2903-3.2336 2.2329-5.75l-0.0816-3.5757-1.3901 3.1736c-2.4666 5.6311-8.2259 5.2791-6.7967-0.41532 0.67136-2.6749-0.30215-2.8831-2.8213-0.60332-2.2742 2.0582-2.345 5.1171-0.17375 7.5163 2.2265 2.4603 6.2059 2.308 9.0306-0.34557zm-34.297-13.576c0.7917-1.5125 4.2211-5.9 7.6209-9.75 7.7693-8.7981 10.392-14.252 9.72-20.212-0.71812-6.3712-6.9518-12.294-12.929-12.284-5.533 9e-3 -11.8 6.6434-11.8 12.492 0 5.6778 7.7967 9.4886 12.352 6.0374 1.7004-1.2881 1.7248-1.5852 0.29756-3.6228-2.7806-3.9699 1.7484-8.1122 5.1502-4.7104 2.5918 2.5918 1.249 7.3152-4.9315 17.347-6.2332 10.118-9.5323 17.453-7.8498 17.453 0.51148 0 1.5777-1.2375 2.3694-2.75zm-4.0597-9.3486c1.5556-3.3428 2.6806-6.2158 2.5-6.3845-0.47963-0.44785-7.9803-3.5169-8.5952-3.5169-0.66971 0 0.43261 11.966 1.3139 14.262 1.0584 2.7582 1.7704 2.1088 4.7813-4.361zm29.699 3.1499c-0.57361-1.0718-1.9419-2.5784-3.0406-3.3479-1.577-1.1046-1.8744-2.1156-1.4121-4.8013l0.58559-3.4021-3.0533 3.5c-1.6793 1.925-3.0654 3.7471-3.0802 4.0491s1.5039 1.1027 3.3749 1.7792c1.871 0.67656 3.9511 1.892 4.6224 2.7009 1.7815 2.1466 3.2237 1.8025 2.0032-0.47794zm12.334-5.5513c0.69771-1.8182 3.2944-1.9834 3.93-0.25 0.36432 0.99362 0.73574 0.98797 1.8108-0.0275 1.6368-1.546 0.14021-4.5343-2.5341-5.0601-2.1959-0.43178-5.5684 2.592-5.5684 4.9926 0 2.218 1.5557 2.4453 2.3616 0.34501zm-7.1068-1.75c0.26839-1.2375 0.78823-2.9574 1.1552-3.8219 0.46152-1.0872-0.12997-1.9351-1.9185-2.75-3.3888-1.544-3.1448-1.7028-3.8248 2.4879-0.45118 2.7803-0.18078 3.9806 1.1192 4.9682 2.3947 1.8192 2.9111 1.6876 3.4689-0.88423zm21.264 0.85955c1.6435-1.2018 1.7373-1.751 0.69113-4.0471-0.66574-1.4611-1.2104-3.5354-1.2104-4.6095 0-2.2193-1.2963-2.556-2.7061-0.70295-1.0498 1.3799-0.51315 10.75 0.61569 10.75 0.3895 0 1.5639-0.6257 2.6097-1.3904zm7.7298-7.0918c-0.40304-3.5758-0.16626-4.6123 1.1709-5.1254 1.0328-0.39632 2.1779 0.043 2.9834 1.1447 0.80185 1.0966 1.952 1.5405 2.9746 1.1481 4.5225-1.7354 1.8009-8.6852-3.4011-8.6852-4.1652 0-6.977 3.1344-6.977 7.7775 0 3.0958 2.141 8.2225 3.4339 8.2225 0.17625 0 0.0931-2.017-0.18476-4.4822zm15.507 3.2322c-0.63724-1.9407-5.7562-2.2221-5.7562-0.31642 0 1.0832 0.95115 1.5664 3.0833 1.5664 2.0189 0 2.9416-0.43152 2.6729-1.25zm-29.425-10.794c2.5639-2.8695 2.8419-3.8035 2.4247-8.1451-0.54105-5.6307-3.7106-9.6708-10.256-13.072-5.4858-2.8511-14.444-4.8793-16.427-3.7192-1.3771 0.80562-1.3509 0.92424 0.20985 0.95085 2.9379 0.0501 11.087 4.6295 14.56 8.1818 2.6216 2.6814 3.1916 4.0011 2.9525 6.8358-0.2492 2.9551-0.67587 3.5129-2.6872 3.5129-2.3383 0-3.3698-1.1027-4.5487-4.8626-0.4956-1.5807-0.825-1.6626-2.1763-0.5411-2.8676 2.3798-3.5358 5.7814-1.8386 9.3582 2.0002 4.2152 4.8459 5.6162 10.422 5.1309 3.5049-0.305 5.0916-1.0872 7.3635-3.6299zm10.174-6.9644c0.78166-1.2648-0.34237-4.991-1.5055-4.991s-2.2872 3.7263-1.5055 4.991c0.34296 0.55492 1.0204 1.009 1.5055 1.009s1.1626-0.45403 1.5055-1.009zm-33.706-5.191c1.8229-1.8229 1.473-2.2901-1.8023-2.4065-1.6488-0.0586-2.9977 0.18893-2.9977 0.55 0 0.82191 2.1933 3.0565 3 3.0565 0.33 0 1.14-0.54 1.8-1.2zm491.68-40.194c-4.4242-1.9277-8.9833-7.6371-11.399-14.274-1.1672-3.2076-2.7975-7.671-3.6228-9.9186-0.82534-2.2477-2.119-4.9323-2.8747-5.9659-1.3241-1.8108-1.5722-1.8168-6.8176-0.16331-11.453 3.6103-17.93 1.0386-23.382-9.2841-2.8731-5.4396-2.4278-19.709 1.0288-32.963 3.907-14.981 2.2884-20.037-6.4141-20.037-7.183 0-11.37-5.7798-11.298-15.597 0.0347-4.7621 0.86594-8.0096 3.7963-14.832 5.7006-13.272 5.1218-15.524-3.9982-15.559-9.5119-0.0362-15.38-6.5738-14.124-15.736 0.78336-5.7152 3.41-10.55 9.657-17.776 9.5318-11.025 12.138-20.324 7.9817-28.472-1.0921-2.1408-2.4421-4.1744-3-4.5192-1.5231-0.9413-1.22-3.4927 0.49299-4.15 0.90228-0.34623 3.0955 0.85647 5.4641 2.9964 9.6084 8.6806 24.681 13.43 49.529 15.606 6.05 0.5299 13.27 1.6452 16.044 2.4785 9.3713 2.815 17.379 12.149 17.434 20.321 0.0481 7.1373-5.3262 14.513-12.597 17.289l-2.8806 1.0997 7.0325 3.2621c11.675 5.4155 17.201 13.806 14.494 22.007-1.4453 4.3792-5.0249 7.2998-10.698 8.7283-2.3807 0.59947-4.3286 1.6345-4.3286 2.3 0 0.66553 3.5152 5.2612 7.8117 10.212 15.091 17.391 20.643 25.614 24.253 35.92 3.9201 11.192 2.3041 22.167-3.8584 26.205-1.3723 0.89919-5.007 2.1364-8.077 2.7495l-5.5818 1.1146-1.1828 10.672c-0.75946 6.8529-1.9589 12.276-3.3514 15.152-4.8843 10.09-16.401 15.111-25.531 11.133zm8.5186-8.9328c0-7.769-2.0344-27.037-2.956-27.997-0.43471-0.45276-1.7364 0.70747-2.8926 2.5783-2.1483 3.476-5.7578 5.7449-9.1394 5.7449-3.0635 0-3.1081 1.303-0.32887 9.6162 3.0295 9.0618 8.2483 15.384 12.699 15.384 2.4959 0 2.6176-0.24774 2.6176-5.3263zm11.394-1.4237c3.6442-5.6406 4.0843-9.3794 1.7305-14.701-1.9022-4.3001-4.2476-5.7777-5.6274-3.5451-0.34135 0.55232 0.41304 2.8434 1.6764 5.0913 2.2541 4.0107 2.2611 4.1134 0.37049 5.4958-1.0596 0.77481-2.403 1.4085-2.9854 1.4081-0.65024-3.8e-4 -0.92515 1.9292-0.71236 5 0.42538 6.1387 2.1401 6.5253 5.5479 1.2506zm5.3651-25.641c0.9567-3.577 1.764-4.5962 4.3566-5.5 1.7503-0.61015 4.7106-1.1094 6.5785-1.1094 5.2782 0 8.3053-3.6428 8.3053-9.9944 0-13.597-14.145-24.119-24.928-18.543-3.2934 1.7031-4.0797 3.3281-4.0496 8.3688 0.04 6.6771 4.7144 14.168 8.8409 14.168 1.2371 0 4.1372-2.8296 4.1372-4.0366 0-0.49158-1.35-2.4313-3-4.3106-3.3135-3.7739-3.8273-6.3981-1.4325-7.317 2.3754-0.91152 6.5096 1.7581 8.1946 5.2915 3.2352 6.7844-1.4748 14.359-8.9354 14.369-8.3508 0.0117-13.92-13.71-10.348-25.496 0.4949-1.6332-0.22691-2.3822-3.9356-4.0839-2.4979-1.1462-4.715-1.9106-4.927-1.6986-0.21191 0.21192 0.43601 3.6247 1.4398 7.5839 1.0038 3.9592 2.7696 12.374 3.924 18.699s2.3041 12.47 2.5549 13.655c0.39492 1.8667 0.96464 2.0872 4.2522 1.6463 2.7342-0.36674 4.1685-0.0606 5.1271 1.0945 2.0038 2.4144 2.5628 2.0094 3.8456-2.7869zm-50.665 1.2932c5.0153-1.5233 6.9052-2.5634 6.9052-3.8 0-2.1884 1.9234-4.1026 4.1224-4.1026 1.0882 0 2.1562 1.3143 2.9004 3.5694 2.194 6.6478 8.6364 6.2387 11.423-0.72542 3.1369-7.8399 1.4449-19.864-3.8108-27.082-2.1012-2.8858-9.3646-8.3653-10.106-7.6239-0.23915 0.23915 0.28926 2.4484 1.1742 4.9095 3.2461 9.0269-1.4849 17.953-9.5155 17.953-6.9396 0-10.977-5.6542-7.2194-10.111l2.0146-2.3894 2.7586 3.259c3.284 3.8798 4.9155 4.088 6.4057 0.81752 1.7229-3.7813 0.18631-9.1765-3.7285-13.091-3.8889-3.8889-7.5785-4.4882-12.372-2.0095-5.3256 2.754-10.056 14.045-10.037 23.956 0.0126 6.514 3.7792 14.851 7.6599 16.954 3.6279 1.9663 3.3169 1.9794 11.425-0.48336zm22.91-43.052c-4.5734-17.657-7.9688-25.314-8.0265-18.101-0.0246 3.0802-3.1762 10.636-4.8739 11.686-1.9413 1.1998-1.1849 3.506 1.3595 4.1446 1.355 0.34008 4.595 2.1337 7.2 3.9858 2.605 1.8521 4.9009 3.2028 5.1021 3.0017 0.20117-0.20116-0.14137-2.3237-0.76119-4.7167zm39.996 1.2591c0-1.6016-8.501-12.419-17.376-22.11-4.7848-5.225-8.945-10.467-9.2449-11.648-1.469-5.7881 0.76766-8.2679 9.3638-10.382 7.8846-1.9389 9.1573-9.216 2.6162-14.959-6.2429-5.4813-14.36-3.3461-14.36 3.7775 0 3.1845 1.7449 6.2118 3.5805 6.2118 1.1843 0 1.3684-0.75526 0.85352-3.5-0.56434-3.0082-0.38804-3.5 1.2547-3.5 2.6436 0 4.3141 1.9249 4.296 4.95-0.0187 3.1119-0.82204 4.4018-3.6775 5.9049-4.3411 2.2851-9.3072-2.2424-9.3072-8.4853 0-3.8343-2.1534-2.4667-5 3.1753-2.2844 4.5277-2.5 6.0765-2.5 17.955 0 12.108 0.18575 13.378 2.7074 18.512 3.8251 7.7883 8.6486 12.216 13.474 12.367 3.2811 0.10323 3.8649-0.20806 4.1488-2.2123 0.39201-2.7678-2.3734-6.1675-5.0167-6.1675-2.3856 0-3.4134-2.5724-1.8031-4.5127 2.063-2.4857 6.8239-1.8066 10.066 1.4358 2.3792 2.3792 2.9231 3.7746 2.9231 7.5v4.5769l3.75 0.0703c2.0625 0.0387 4.65 0.45702 5.75 0.92971 2.6737 1.1489 3.5 1.1749 3.5 0.11001zm-74.175-1.7001c1.8009-1.2614 2.0283-1.8815 1.1001-3-1.513-1.823-3.9252-1.8179-3.9252 8e-3 0 0.78002-0.27314 2.13-0.60699 3-0.77483 2.0192 0.54208 2.016 3.4322-8e-3zm15.215-5.9305c8.517-4.4043 10.324-23.898 3.7961-40.956-2.2628-5.913-3.313-6.7459-4.3573-3.4556-0.36088 1.137-4.26 5.8933-8.6646 10.569-7.7315 8.208-9.2044 10.713-4.9654 8.4442 3.9536-2.1159 8.1432-1.2892 11.751 2.319 1.87 1.87 3.4 4.3082 3.4 5.4182 0 5.391-3.3514 7.1747-4.3259 2.3023-0.7258-3.629-3.177-6.125-5.9955-6.1052-3.2229 0.0227-4.604 1.2378-5.6829 4.9998-1.3577 4.7341 0.44713 10.628 4.494 14.674 3.6539 3.6539 6.1324 4.0744 10.55 1.7898zm-26.558-13.729c0.23059-0.6875 0.91952-3.2023 1.531-5.5884 0.83694-3.2661 3.026-6.3557 8.8565-12.5 4.2596-4.4889 8.7316-9.4598 9.9376-11.046 4.0814-5.3693 2.2097-13.123-3.7652-15.598-5.5737-2.3087-9.2559 2.6733-5.5738 7.5415 1.7248 2.2805 1.9812 6.0454 0.47496 6.9763-2.0242 1.251-5.9171-0.58401-7.425-3.5-2.4944-4.8236-1.9288-8.6169 1.9084-12.8 3.2079-3.4969 3.7794-3.7271 8.953-3.6069l5.5264 0.1284-3.0759-6.1284c-4.676-9.3164-10.951-19.628-11.944-19.628-0.48731 0-0.88603 1.2056-0.88603 2.679s-0.51096 4.092-1.1355 5.8191c-1.0252 2.8351-0.87951 3.396 1.5 5.7755 3.0759 3.0759 3.5265 8.0843 0.98048 10.898-3.1431 3.4731-9.0237 1.3965-8.1366-2.8732 0.24404-1.1746 1.1395-1.7154 2.5826-1.5598 3.0812 0.33227 2.8323-2.2837-0.42013-4.4148-2.5464-1.6684-2.688-1.6499-4.5 0.58773-2.4144 2.9816-2.3617 6.6623 0.21681 15.152l2.0877 6.8732-4.2267 9.1756c-5.8975 12.803-6.5321 21.738-1.8972 26.713 2.2219 2.3849 7.738 2.9902 8.4306 0.9252zm41.977-20.5c0.37725-2.6125 1.7848-7.181 3.1279-10.152 1.3431-2.9712 2.3039-5.5404 2.1351-5.7092-0.69706-0.69705-14.722 0.96973-14.722 1.7496 0 1.7624 7.2447 18.862 7.9914 18.862 0.42983 0 1.0902-2.1375 1.4674-4.75zm6.8977-21.683c9.3862-2.5824 10.766-3.2297 8.5366-4.0037-0.76622-0.26595-3.8681-1.4013-6.8931-2.523-6.8288-2.5322-7-2.529-7 0.13076 0 4.414-5.1467 7.2895-8.8484 4.9436-2.309-1.4633-0.88768-4.5543 2.3522-5.1155l2.9794-0.51607-2.2416-2.2416c-2.6259-2.6259-5.4664-2.874-7.6702-0.6702-3.0396 3.0396-1.4811 8.3274 3.2037 10.87 3.7268 2.0224 5.3936 1.9289 15.581-0.874zm-59.11-11.317c0.34382-5.2287 0.14573-7.8845-0.60888-8.1635-1.5803-0.58418-6.1932-5.3166-6.9169-7.0962-0.46542-1.1444-1.3236-0.67794-3.697 2.0096-5.7588 6.5212-6.3542 13.761-1.5286 18.586 1.8969 1.8969 3.4664 2.4139 7.3278 2.4139h4.914zm37.936-1.75c3.6059-3.0342 7.2067-3.1698 11.684-0.4401l3.3665 2.0524 1.4429-2.0601c1.2588-1.7972 2.3666-2.0325 8.6815-1.8442 6.105 0.18205 7.7307-0.13461 10.381-2.0221 7.7633-5.528 4.0717-14.355-7.3981-17.689-6.7846-1.9724-10.341-0.82249-10.341 3.3437 0 3.5473 3.4504 8.1596 6.104 8.1596 2.7539 0 3.348-2.3806 1.3537-5.4242-1.367-2.0862-1.4546-2.8746-0.45355-4.0808 1.6462-1.9835 2.6042-1.8867 4.9958 0.50501 2.9777 2.9777 2.6667 8.3304-0.63486 10.927-4.0382 3.1764-8.0424 2.6945-11.939-1.4368l-3.3098-3.5094-3.6978 2.5094c-6.5936 4.4745-14.01 2.7136-18.824-4.4696-1.2979-1.9365-4.1976-6.7236-6.4436-10.638-4.08-7.1101-9.9893-13.383-12.607-13.383-0.82564 0 1.5148 4.3755 5.7848 10.815 3.9443 5.948 9.6465 15.39 12.671 20.982s5.66 10.175 5.8556 10.185c0.19561 0.0101 1.6926-1.1067 3.3267-2.4817zm-29.525-11.067c2.318-2.318 2.5276-3.1661 2.1626-8.75-0.4158-6.3608-4.1553-15.683-6.291-15.683-0.61389 0-1.5979 1.8048-2.1867 4.0107-1.0093 3.7814-0.92635 4.0815 1.4512 5.25 3.8165 1.8757 5.0198 4.3543 3.0635 6.3105-1.4576 1.4576-1.8882 1.4642-4.5843 0.07-5.6618-2.9279-7.4162 3.3695-2.35 8.4357 3.5925 3.5925 5.4237 3.6672 8.7346 0.35629zm38.648-3.4593c3.4664-2.7266 4.1068-5.275 2.2351-8.8943-1.8907-3.6562-4.8896-5.4212-7.6972-4.5301-1.7998 0.57122-2.0139 1.2508-1.5872 5.0367 0.60117 5.3335-1.3218 7.7774-4.007 5.0922-3.4308-3.4308-0.82211-13.193 3.852-14.415 3.5568-0.93012 1.9094-2.1179-3.8518-2.7772-3.1625-0.3619-7.325-1.0668-9.25-1.5664-5.724-1.4856-6.4912-1.2654-4.6355 1.3305 0.88467 1.2375 3.2893 5.1716 5.3436 8.7425 5.5708 9.6832 9.8228 14.008 13.773 14.008 1.7868 0 4.4079-0.91174 5.8245-2.0261zm28.694-8.7996c0-1.5726-4.5462-5.0861-9.3046-7.1909-5.0121-2.2171-17.887-4.1012-19.828-2.9016-0.71481 0.44178-0.34598 0.94901 1.0009 1.3765 1.173 0.3723 3.3267 2.2423 4.786 4.1554 1.8468 2.4213 2.9712 3.1606 3.6993 2.4324 1.7353-1.7353 10.818-1.2188 14.646 0.83288 4.0805 2.187 5 2.4252 5 1.2953zm-814.32 140.38c-5.1581-1.8396-7.0798-3.7675-9.8413-9.8725-2.0513-4.535-2.3363-6.6702-2.2929-17.179 0.0417-10.095 0.41515-12.926 2.3525-17.832 4.4762-11.336 11.21-15.951 19.173-13.141 2.178 0.76844 4.5275 1.1794 5.2211 0.91324 4.1812-1.6045 6.5478 6.462 9.1655 31.24 0.76581 7.2487 1.891 14.111 2.5005 15.25 1.6566 3.0954 5.1944 2.5358 9.0377-1.4295 3.547-3.6595 5.7816-4.3184 7.8-2.3 2.0498 2.0498 1.3399 4.6394-2.4098 8.7899-6.1016 6.7537-13.984 7.709-18.996 2.3019l-2.4349-2.6273-2.7298 2.5746c-2.387 2.2513-8.7922 4.824-11.73 4.7115-0.55-0.0211-2.7173-0.65078-4.8162-1.3993zm9.721-8.6898c4.1322-1.8828 5.5981-6.4904 5.5714-17.513-0.0271-11.191-1.0191-16.59-3.7099-20.194-2.8764-3.8527-4.7692-4.7122-7.9634-3.6163-4.4633 1.5313-7.4546 8.7205-8.0622 19.376-1.0277 18.024 4.3811 26.404 14.164 21.947zm322.96 7.5726c-1.2821-1.9567-1.8777-6.2899-2.5086-18.25-0.45501-8.6262-1.2772-19.509-1.8271-24.184-1.0868-9.2391-0.40551-13.747 2.3309-15.423 1.3524-0.82856 2.0359-0.70213 2.9676 0.54888 0.92924 1.2477 2.368 1.5169 6.1914 1.1583 4.1758-0.39156 5.5942-0.0481 8.7753 2.1246 2.0869 1.4254 3.979 2.5917 4.2045 2.5917 0.22558 0 1.5351-1.125 2.9101-2.5 5.2009-5.2009 15.589-2.3442 19.524 5.369 3.2035 6.2793 3.4996 11.212 1.5146 25.231-1.6926 11.954-1.7083 13.068-0.20601 14.571 1.4049 1.4049 2.0554 1.4492 4.7699 0.32476 1.7288-0.71607 3.8351-2.3579 4.6807-3.6486 2.5309-3.8626 7.3075-2.4699 7.3075 2.1306 0 2.5853-5.0149 8.1978-8.5134 9.5279-6.6089 2.5127-13.525 0.5405-15.938-4.5448-1.948-4.105-1.9516-9.4994-0.0156-23.38 1.3568-9.7281 1.3628-11.395 0.052-14.532-1.9236-4.6038-5.9439-6.6167-8.3715-4.1914-1.3153 1.314-1.7932 3.8994-2.0581 11.134-0.38492 10.511-1.462 12.602-5.5364 10.745-1.7927-0.81683-2.4722-2.1615-2.9796-5.897-0.94143-6.9308-3.4072-13.819-5.6843-15.88-1.6538-1.4966-2.3768-1.5876-4.593-0.57785-2.6101 1.1892-2.6255 1.2611-2.014 9.4087 0.33895 4.5156 0.91383 14.378 1.2775 21.917 0.57145 11.846 0.43497 14.052-1.005 16.25-2.0984 3.2025-3.145 3.1979-5.2553-0.0229zm87.178-0.68407c-1.3547-3.2484-4.0426-35.918-4.0426-49.136 0-5.3778 0.37043-7.1205 1.6915-7.958 1.2902-0.81791 2.1466-0.66037 3.6102 0.66412 1.5358 1.3899 2.4585 1.5312 4.6236 0.70796 6.721-2.5553 16.48 0.22169 20.47 5.8246 4.0942 5.7498 4.7274 12.448 2.6175 27.687-1.5292 11.045-1.6402 13.764-0.58811 14.414 1.9827 1.2254 4.7627 0.12345 7.9732-3.1603 3.7727-3.8588 6.4908-3.437 6.9236 1.0744 0.81515 8.4964-14.117 14.928-20.301 8.7441-3.4086-3.4086-4.0097-8.4864-2.495-21.074 1.8495-15.37 1.7495-20.023-0.4834-22.491-2.8641-3.1648-8.1422-4.2409-12.293-2.5064-3.4766 1.4526-3.4795 1.4592-2.8902 6.7068 1.4156 12.606 1.891 39.418 0.73713 41.574-1.6756 3.1309-3.9868 2.6852-5.5533-1.0709zm169.91 1.82c-5.7316-2.451-8.6901-10.122-10.629-27.561-1.2512-11.252-0.0875-25.78 2.295-28.651 1.4148-1.7047 5.854-1.7848 5.9635-0.10765 0.0449 0.6875 0.15739 9.8 0.25 20.25 0.15373 17.346 0.36276 19.421 2.4015 23.839 1.3043 2.8262 2.7601 4.6672 3.5 4.4262 2.1589-0.70347 4.0778-5.9484 4.7135-12.883 0.6421-7.0052 2.1262-9.8817 5.0983-9.8817 2.0776 0 3.1616 3.0128 4.9276 13.695 1.3832 8.3666 3.0449 10.505 6.0505 7.7845 3.5344-3.1986 4.2773-8.7607 3.5869-26.856-0.66917-17.54-0.30927-19.623 3.3912-19.623 3.4809 0 4.4989 5.4308 4.4989 24 0 19.685-1.1674 24.859-6.6486 29.472-3.8897 3.273-10.997 3.5495-13.583 0.52844-2.1228-2.4792-3.0852-2.5014-5.7035-0.13124-2.8886 2.6148-6.5393 3.229-10.112 1.7012zm73.855-0.0248c-1.9424-0.85203-3.9673-2.9187-5.1705-5.2772-3.6402-7.1353-4.3891-14.902-8.1927-84.963-2.1796-40.148-2.0717-42.305 2.1159-42.305 3.6742 0 3.7604 0.70685 6.4615 53 3.0403 58.86 3.8193 66.433 7.2266 70.25 2.2185 2.4856 3.5102 2.2116 8.252-1.75 4.992-4.1707 7.5395-4.4709 8.4128-0.99137 1.8779 7.4821-10.997 15.593-19.106 12.037zm-587.21-2.5983c-5.1284-5.1284-9.7293-25.008-10.288-44.454-0.25875-8.9995 0.26869-10.493 3.7066-10.493 3.1548 0 4.0706 3.4547 5.5449 20.917 1.9936 23.612 5.3686 31.598 11.882 28.112 3.9234-2.0998 5.0545-8.0135 5.0545-26.427 0-18.551 0.51163-20.527 4.9497-19.118 2.6814 0.85104 2.8259 1.807 3.5557 23.516 0.65715 19.548 1.4849 23 5.5148 23 1.0857 0 3.7174-1.575 5.8482-3.5 4.1034-3.7072 5.9803-4.2514 7.9317-2.3 1.8809 1.8809 1.4238 4.3806-1.4191 7.7592-5.5005 6.537-14.765 8.1948-19.786 3.5408-1.4836-1.375-2.9469-2.5-3.2517-2.5-0.30476 0-1.8911 1.125-3.5252 2.5-4.5135 3.7978-11.616 3.5479-15.717-0.55316zm107.39-0.25724c-1.8207-1.8207-3.7799-5.0832-4.3537-7.25-1.2932-4.8835-2.8461-22.957-3.7478-43.62-0.37634-8.6243-0.97222-16.146-1.3242-16.716-0.4279-0.69235-2.2841-0.5265-5.602 0.50055-13.109 4.0578-25.462-3.2462-25.462-15.055 0-4.9322 2.272-8.9824 6.743-12.021 5.7728-3.9227 10.257-2.9793 10.257 2.1579 0 1.6578-0.94037 2.6795-3.4195 3.7153-3.7855 1.5817-5.5805 4.158-5.5805 8.0093 0 6.0017 11.956 8.2515 19.4 3.6507 3.5973-2.2232 3.7582-2.5441 3.2338-6.4508-1.2052-8.9787-2.9048-41.395-2.2973-43.815 1.0093-4.0215 5.6961-4.7596 7.0938-1.1173 0.32166 0.83822 1.1083 10.478 1.748 21.423 0.63977 10.944 1.514 19.899 1.9427 19.899 0.42872 0 3.8855-3.7125 7.6816-8.25 15.635-18.688 23.052-22.177 32.913-15.482 8.6133 5.8481 7.2284 21.351-2.2616 25.316-4.6052 1.9242-9.1297 1.7469-14.204-0.5566-7.3396-3.3316-4.9214-9.2 3.0435-7.3859 5.5616 1.2667 8.8435 0.36918 10.691-2.924 1.7779-3.1683 0.83428-5.3568-3.3274-7.7171-2.4454-1.3869-2.9913-1.3164-7.2383 0.93514-2.9204 1.5482-6.8276 5.1903-10.728 10-3.374 4.1607-8.5491 10.122-11.5 13.247l-5.3658 5.682 1.9562 31.389c1.1147 17.887 2.4526 32.316 3.1103 33.545 2.7721 5.1798 6.5418 4.8639 12.817-1.0742 2.6936-2.5488 3.4565-2.831 4.75-1.7576 0.84754 0.7034 1.541 2.4737 1.541 3.934 0 5.8196-6.8827 11.1-14.468 11.1-4.023 0-5.228-0.49598-8.0424-3.3104zm78.284 1.3471c-3.7007-2.911-6.5619-10.57-8.6838-23.245-3.936-23.512-3.7032-32.792 0.82275-32.792 3.262 0 4.2467 2.6923 5.197 14.21 1.5162 18.376 2.7977 26.022 5.1603 30.79 2.6243 5.2957 5.4956 6.2414 8.6547 2.8504 3.445-3.6978 4.2754-9.1528 3.9466-25.924-0.31264-15.948 0.25833-18.926 3.6286-18.926 3.3646 0 3.9961 3.1502 4.5 22.446 0.41999 16.084 0.78372 19.58 2.273 21.851 2.4004 3.6593 5.3133 3.406 9.1631-0.79699 3.6071-3.9381 6.9567-4.5031 8.5911-1.4492 0.86336 1.6132 0.6993 2.7327-0.76888 5.2466-4.4669 7.6484-15.62 10.432-20.849 5.2026-1.375-1.375-2.7521-2.5-3.0602-2.5-0.3081 0-1.8972 1.125-3.5313 2.5-3.8266 3.2199-11.294 3.4863-15.044 0.53671zm266.5-0.13859c-2.0763-1.3298-4.397-4.4403-6.5-8.7121-3.1148-6.3271-3.2675-7.1696-3.2014-17.665 0.0555-8.8138 0.50206-12.123 2.2297-16.521 2.98-7.5869 7.1668-12.374 12.121-13.858 12.835-3.8453 23.134 9.781 23.324 30.858 0.11887 13.169-2.9114 20.837-10.167 25.726-4.5266 3.0505-13.183 3.134-17.808 0.17192zm13.584-7.3231c5.2772-2.729 7.5788-11.668 6.0806-23.616-1.6675-13.299-6.2774-19.648-12.624-17.387-3.6255 1.2915-5.9961 4.9121-7.7843 11.889-4.9388 19.269 2.8316 35.06 14.327 29.115zm-654.85-19.275c-9.3225-3.372-13.002-7.9823-12.995-16.282 0.003643-4.4555 0.8692-7.347 4.4955-15.018 2.47-5.225 4.493-10.02 4.4955-10.655 0.0025-0.635-2.458-2.5443-5.4678-4.2429-6.0755-3.4288-8.349-6.2263-9.1695-11.283-1.4889-9.1753 6.2131-19.65 20.781-28.262 14.522-8.585 16.244-10.869 12.479-16.558-1.3967-2.1106-2.825-4.975-3.1739-6.3653-1.7772-7.0811 5.8191-15.647 17.822-20.095 11.054-4.0972 12.749-6.3076 8.1392-10.614-7.6176-7.1165-6.8681-16.44 1.742-21.671 3.8869-2.3618 6.147-2.8844 18.223-4.2139 9.8495-1.0844 16.822-3.8762 19.362-7.7521 0.89528-1.3664 2.1586-4.5774 2.8074-7.1357 1.9314-7.6158 3.8504-6.5081 5.1172 2.9538 1.4472 10.809 7.6177 22.973 18.462 36.395 12.171 15.063 13.382 17.477 13.382 26.673 0 8.2391-1.2473 11.056-6.6976 15.125-3.3089 2.4704-10.861 3.3345-14.818 1.6954-1.6768-0.69453-3.2535-1.0579-3.5039-0.80751-0.2504 0.2504 0.43903 2.9997 1.5321 6.1096 2.4491 6.9681 2.5225 12.149 0.23579 16.633-3.7282 7.3115-10.902 9.3027-17.91 4.9714-2.0742-1.2819-3.8508-1.7883-4.3883-1.2508-0.49672 0.49672-1.37 6.2913-1.9406 12.877-2.3433 27.044-7.012 40.797-16.238 47.834-6.4068 4.8867-12.315 4.7352-18.241-0.4676-3.4664-3.0435-3.5325-3.0574-5.8791-1.2356-1.3054 1.0134-4.8262 3.7451-7.8241 6.0704-7.6896 5.9644-15.603 8.4614-20.828 6.5717zm13.662-7.4059c3.3579-3.0959 5.8447-8.7874 4.4493-10.183-1.3196-1.3196-4.1108 0.86713-4.1108 3.2205 0 0.92753-0.64471 2.5599-1.4327 3.6276-1.1483 1.5558-1.6842 1.693-2.7 0.69113-2.0381-2.0102-3.453-1.482-6.4083 2.3926l-2.7783 3.6426 5.1923-0.49892c3.6021-0.34611 5.9874-1.232 7.7885-2.8926zm-9.1504-9.9696c11.766-13.505 11.496-12.924 5.996-12.924-2.5335 0-5.9472-0.69339-7.5861-1.5409-1.6388-0.84747-3.4612-1.2433-4.0498-0.87952-0.58854 0.36373-2.375 3.4196-3.9698 6.7909-4.1138 8.6957-3.8094 17.63 0.60072 17.63 0.60614 0 4.6602-4.0842 9.009-9.0759zm43.537 3.8225c4.8315-3.2559 7.2377-7.9458 7.2377-14.107 0-6.3088-2.2866-11.06-6.5843-13.68-4.5629-2.7822-6.4349-2.4614-10.736 1.8399-6.1721 6.1721-6.4319 14.201-0.45948 14.201 2.383 0 3.455-2.2 3.4805-7.143 0.01713-3.3159 2.9358-4.6839 4.7373-2.2203 2.5576 3.4977 0.45928 11.125-3.6682 13.334-5.3118 2.8428-13.055-1.7226-13.055-7.6971 0-4.9035 4.8403-13.213 9.401-16.138 4.01-2.5724 4.0853-2.7237 3.1768-6.3849-0.51178-2.0625-1.4136-3.7495-2.0041-3.749s-2.2889 2.1648-3.7742 4.8094c-1.4853 2.6446-6.1444 9.6369-10.354 15.538l-7.653 10.73 2.6036 2.4129c1.432 1.3271 2.6036 3.3344 2.6036 4.4607 0 2.4157 1.2589 2.6456 3 0.54775 1.8436-2.2214 6.4593-1.8206 9.6733 0.84002 3.4066 2.82 6.4351 4.5884 7.9288 4.6296 0.60616 0.0167 2.6068-0.98362 4.4459-2.223zm14.781-29.483c0.58443-4.2698 1.3643-12.488 1.7329-18.263s1.3047-11.738 2.0801-13.25c1.8013-3.5138 5.3965-3.5879 10.858-0.22391 4.9293 3.036 7.2016 3.1029 10.186 0.2996 4.7974-4.5069 1.7194-15.826-4.3036-15.826-2.7159 0-7.382 4.0426-7.382 6.3955 0 2.6914 1.9688 2.767 3.174 0.12187 1.3169-2.8903 4.1066-3.0144 4.6473-0.20675 0.49677 2.5795-2.5199 6.6894-4.9101 6.6894-6.0589 0-7.9767-6.2905-3.7343-12.248l2.1769-3.0572-2.9269 0.71148c-9.8731 2.4-22.025 12.75-26.749 22.782-3.0828 6.5473-3.5644 14.102-1.1215 17.589 3.6014 5.1417 8.8221 0.78959 5.8793-4.9012-1.3407-2.5926-1.3897-3.2906-0.28035-3.9937 1.9009-1.2048 2.3338-1.1166 4.9608 1.0106 3.5547 2.8784 3.295 9.4959-0.50077 12.761-2.5584 2.2006-2.6915 2.61-1.3479 4.1439 0.82003 0.93611 2.2394 3.1792 3.1541 4.9847 0.91475 1.8055 2.0414 3.049 2.5036 2.7633s1.3186-4.0129 1.903-8.2827zm-45.852 4.8638c7.9465-5.3369 12.814-15.37 11.549-23.806-0.76222-5.0828-1.8078-5.4678-3.5338-1.3008-1.4704 3.5498-6.1291 7.7252-9.5881 8.5933-3.0479 0.76498-8.0144-1.2199-9.9433-3.9739-3.1543-4.5034-0.68212-11.099 3.9145-10.443 1.8534 0.26443 2.0837 0.85638 1.7996 4.627-0.317 4.2078-0.25085 4.315 2.4677 4 5.4434-0.63083 9.2733-10.377 6.2775-15.974-5.3639-10.022-28.801 0.0106-33.035 14.142-1.8393 6.1392-0.45815 8.8195 6.5854 12.78 5.2155 2.9324 6.233 3.191 8.2683 2.1017 1.9258-1.0307 2.5865-0.97646 3.8814 0.31835 1.4139 1.4139 1.4083 1.8546-0.05986 4.6938-3.6345 7.0284 3.385 9.6368 11.417 4.2424zm23.432-30.331c3.0346-5.062 5.3323-9.3888 5.1059-9.6151s-2.7731 0.76522-5.6595 2.2035c-2.8863 1.4383-6.337 2.6151-7.6682 2.6151-2.0555 0-2.3123 0.33912-1.704 2.25 0.39398 1.2375 1.2103 4.3875 1.8141 7s1.4345 4.75 1.8459 4.75 3.231-4.1416 6.2656-9.2035zm-2.5896-10.8c5.9352-2.6935 14.201-11.602 18.689-20.143l3.743-7.123-3.8754 0.73339c-2.1315 0.40336-7.3988 0.68468-11.705 0.62514-8.7244-0.1206-11.004 0.57239-7.5086 2.2827 1.2862 0.62931 3.1465 2.7935 4.134 4.8093 1.6159 3.2985 1.6512 4.0108 0.35203 7.12-1.6498 3.9484-3.0914 5.1265-5.2567 4.2956-1.3292-0.51006-1.3063-0.93117 0.18826-3.4612 3.5758-6.0533-1.4177-11.437-7.1342-7.6912-7.4173 4.86-8.7278 16.89-2.1296 19.549 3.3802 1.3619 5.8151 1.1308 10.504-0.99705zm-19.819-6.496c0-0.825-0.8449-1.5-1.8776-1.5-1.0327 0-2.4378 0.675-3.1224 1.5-1.0614 1.2789-0.78457 1.5 1.8776 1.5 2.1088 0 3.1224-0.48693 3.1224-1.5zm44.629-5.0579c3.2291-1.9568 7.1262-3.8166 8.6602-4.1328 1.534-0.31622 2.659-0.86985 2.5-1.2303-0.15898-0.36044-2.4106-2.5933-5.0037-4.9619l-4.7146-4.3066-4.0354 8.7346c-2.2195 4.804-4.0354 8.8966-4.0354 9.0947 0 0.71435 0.84915 0.30473 6.6288-3.1977zm21.821-10.771c-2.5065-5.4749-2.6774-5.6252-4.7474-4.1753-2.7712 1.941-4.6065 1.9007-6.8736-0.15093-3.56-3.2218-0.94758-8.3484 2.7082-5.3144 2.119 1.7586 3.0106 0.43121 1.8809-2.8001-1.2856-3.6773-5.5817-4.2623-7.8211-1.0651-2.2825 3.2587-1.9789 6.2269 0.99858 9.7654 2.7564 3.2758 15.715 11.415 16.18 10.162 0.15121-0.4082-0.89512-3.2979-2.3252-6.4215zm22.096-1.1258c2.4455-2.4455 3.0356-5.7756 1.8243-10.295-0.83539-3.1173-2.0074-2.8116-2.7111 0.70694-0.77589 3.8794-5.8564 6.7296-9.2443 5.186-3.6603-1.6678-5.7366-5.6112-5.0057-9.5074 0.61567-3.2818 0.52941-3.3898-3.1803-3.983-2.4021-0.38411-4.8955-1.7395-6.7381-3.6627-2.504-2.6136-2.9127-3.8039-2.8402-8.2714 0.0466-2.8701 1.2694-8.9542 2.7174-13.52s2.6265-9.5159 2.619-11c-0.01756-3.4698-1.0181-7.1984-1.9316-7.1984-0.39158 0-1.6984 4.7012-2.904 10.447s-3.7021 15.421-5.5477 21.5l-3.3556 11.053 3.1263 0.0318c4.8272 0.0491 8.6263 4.0175 8.6263 9.0109 0 1.8012 0.41556 2.0698 2.4224 1.5662 1.9768-0.49614 3.0907 0.17274 6.055 3.6358 6.2357 7.285 11.638 8.731 16.068 4.3008zm-81.756-3.4261c2.8788-1.4592 6.5641-1.9735 16.447-2.295 13.966-0.45437 17.249-1.6809 19.206-7.1765 1.3187-3.7026-0.3613-8.0589-3.2682-8.4746-2.9735-0.42524-4.8869 1.2395-5.7049 4.9634-1.2597 5.7354-6.47 4.4274-6.47-1.6243 0-6.5178 6.8752-11.031 13.162-8.6407 1.4529 0.55239 3.7949 2.2481 5.2044 3.7682 1.4095 1.5201 2.7696 2.557 3.0224 2.3042 0.88532-0.88532 7.4151-23.451 6.9867-24.145-0.23804-0.38531-2.0578 0.40219-4.0439 1.75-1.9861 1.3478-3.9983 2.4506-4.4715 2.4506s-0.86045 1.1038-0.86045 2.453c0 6.0125-4.8447 10.771-8.8073 8.6502-2.9271-1.5665-3.7718-4.9584-1.7344-6.9646 1.5426-1.519 1.7717-1.493 3.1423 0.35664 1.2677 1.7108 1.613 1.7821 2.4236 0.5 1.3566-2.1458 1.1949-3.5684-0.5722-5.035-2.8692-2.3812-7.965 1.1323-11.341 7.8193-1.6215 3.2121-3.5473 6.3311-4.2797 6.9311-0.73238 0.59999-4.9316 2.2942-9.3316 3.765s-9.463 3.7887-11.251 5.151c-5.4027 4.1161-7.9514 11.271-5.0489 14.173 1.6542 1.6542 3.2695 1.5093 7.5898-0.68062zm75.71-8.1194c0.52887-2.4079 1.186-3.0062 3.3295-3.0316l2.6705-0.0316-2.86-2.5151c-3.294-2.8967-4.2815-2.7825-6.9594 0.80426-1.3386 1.793-1.7396 3.4028-1.2918 5.187 0.93694 3.7331 4.2595 3.4646 5.1112-0.41295zm13.14-1.6063c-0.71344-5.2051-4.3137-12.321-8.674-17.144-1.616-1.7875-3.0571-3.2496-3.2024-3.249-0.14526 5.4e-4 -0.2879 2.4755-0.317 5.5-0.0356 3.7014 0.34754 5.499 1.1721 5.499 1.8836 0 8.1952 7.8782 8.9066 11.117 1.0656 4.8517 2.82 3.4218 2.1147-1.7236zm-18.225-10.3c2.1774-2.406 1.7565-7.9812-0.71661-9.4927-1.5018-0.91785-2.2663-0.53522-4.5987 2.3017-3.0387 3.6959-5.1 3.5094-5.1-0.46154 0-4.1268 3.4985-6.6823 8.5933-6.277 4.5767 0.364 5.7143-0.83383 2.9616-3.1184-0.79479-0.65962-2.8667-3.4147-4.6042-6.1224-1.7376-2.7077-3.4609-4.9231-3.8297-4.9231-1.3475 0-6.2863 21.493-5.5828 24.296 1.3539 5.3944 9.309 7.7404 12.877 3.7975zm-48.738-16.408c1.0024-1.273 3.0466-3.1159 4.5426-4.0953 2.2247-1.4566 2.684-2.4463 2.5222-5.4355-0.10878-2.0101 0.18172-4.7354 0.64557-6.0564 0.82952-2.3624 0.76737-2.3914-3.7894-1.7668-6.556 0.8986-10.524 3.2454-12.177 7.2028-1.923 4.6024-1.8697 4.8854 1.6824 8.9309 3.6609 4.1696 4.1761 4.2652 6.5738 1.2203zm21.332-6.6923c4.2629-3.0355 10.189-16.097 7.2404-15.958-0.4125 0.0195-1.875 0.65828-3.25 1.4195-2.0655 1.1436-2.5 2.1327-2.5 5.6917 0 3.3542-0.39954 4.3866-1.8052 4.6644-1.261 0.24925-2.1561-0.57285-2.9692-2.7271-1.3795-3.6548-3.9599-4.0152-6.1689-0.86144-1.8097 2.5838-1.9784 5.1209-0.52152 7.8432 1.3749 2.569 6.3151 2.5331 9.9744-0.0726zm563.63 62.283c-2.3898-4.6213-10.6-12.646-17.504-17.108-8.3525-5.3985-10.291-5.7457-15.416-2.7606-14.803 8.622-36.97 11.82-55.515 8.0085-14.169-2.9121-30.324-10.87-41.602-20.494-5.5544-4.7397-14.606-14.638-14.606-15.973 0-0.36876 2.1585-0.92612 4.7967-1.2386 4.7673-0.56462 10.203-2.4938 10.203-3.621-1e-5 -0.32421-2.9055-2.74-6.4567-5.3683-3.5512-2.6284-8.0046-6.6784-9.8964-9-3.5753-4.3875-10.647-16.62-10.647-18.418 0-0.56667 2.8125-1.6073 6.25-2.3126 9.1807-1.8835 9.2797-2.002 5.4624-6.5406-6.2254-7.4018-10.304-15.051-12.104-22.7l-0.64698-2.75 6.769 7e-3c7.0194 0.0073 19.923 2.6663 26.627 5.4869 2.1219 0.8928 4.0642 1.4172 4.3161 1.1653 0.25192-0.25192-0.92172-3.7004-2.6081-7.6633-1.6864-3.9629-3.0661-7.6728-3.0661-8.2443 0-1.3842 14.117-0.20279 20.607 1.7245 2.691 0.79917 7.454 2.9953 10.584 4.8803s5.9428 3.176 6.25 2.8688c0.89648-0.89648 0.64336-9.4424-0.38598-13.032-0.88947-3.1014-0.81669-3.2541 1.25-2.6225 24.734 7.5587 51.047 31.93 60.565 56.096 5.1812 13.154 6.1599 26.926 2.999 42.199l-1.3176 6.3665 4.9329 4.1335c2.7131 2.2734 8.3265 7.1984 12.474 10.944 4.1477 3.7461 9.4538 7.9513 11.791 9.345 4.8416 2.8867 5.1694 3.7838 2 5.4721-1.2375 0.65919-2.7566 1.8857-3.3758 2.7256-0.95731 1.2985-1.3662 1.0624-2.7313-1.5774zm-54.682-18.063c2.0195-0.74972 1.1376-1.0439-4.9188-1.6407-13.33-1.3135-24.042-7.1306-24.042-13.056 0-5.427 6.8003-5.8272 8.9947-0.52941 0.68635 1.657 1.6275 3.0127 2.0914 3.0127 1.5082 0 2.9139-3.7774 2.9139-7.8307 0-3.2836-0.60537-4.4937-3.5348-7.0657-5.7789-5.074-13.101-3.8901-18.953 3.0643-2.3705 2.8172-2.6707 3.9069-2.3018 8.3556 0.67306 8.1161 5.5797 13.068 15.79 15.935 5.8097 1.6314 19.277 1.4937 23.961-0.2449zm-43.961-8.091c0-2.8821-2.1054-5.6837-3.342-4.4471-1.0792 1.0792-0.74677 4.8359 0.54201 6.1247 1.9269 1.9269 2.8 1.4038 2.8-1.6776zm-11.657-4.2327c6.7433-3.0725 5.6533-14.386-1.8603-19.309-2.9704-1.9463-3.1587-1.0019-0.48239 2.4196 2.6712 3.415 2.7417 10 0.10699 10-1.0412 0-2.152-0.675-2.4686-1.5-0.82938-2.1613-3.2836-1.8447-5.0302 0.64909-1.3142 1.8762-1.324 2.4996-0.0777 4.9097 2.0601 3.9837 5.2576 4.9062 9.8123 2.831zm49.594-0.31385c1.0223-1.2318 1.6465-1.23 4.6224 0.0134 1.8923 0.79065 3.4405 1.2818 3.4405 1.0915 0-0.19033-1.7614-1.7615-3.9141-3.4915l-3.9141-3.1455-2.0521 3.4781c-1.5108 2.5606-1.6976 3.4781-0.70831 3.4781 0.73911 0 1.8757-0.64086 2.5258-1.4241zm26.182-8.3829c3.213-3.596 5.2234-9.981 4.3004-13.658-0.87101-3.4704-5.9518-7.5345-9.4193-7.5345-2.5805 0-9 4.1739-9 5.8518 0 0.37068 1.0099 1.1182 2.2442 1.6611 2.627 1.1556 3.4279 3.9724 1.716 6.0352-1.7074 2.0572-5.3361 1.799-7.4436-0.52975-2.2925-2.5332-1.6638-7.7299 2.5123-20.767 4.1262-12.881 5.5465-24.251 3.0295-24.251-0.43725 0-1.0391 1.8198-1.3374 4.044-0.29833 2.2242-3.1278 9.4674-6.2877 16.096-6.558 13.757-7.6403 19.411-5.0263 26.256 2.8703 7.5158 8.3084 10.911 16.511 10.31 4.541-0.33316 5.8684-0.90166 8.2009-3.5121zm-88.619-5.193c0-1.8926-3.7397-2.4773-6.4764-1.0126-3.004 1.6077-1.4384 3.1723 2.8193 2.8174 2.4486-0.2041 3.6571-0.80051 3.6571-1.8048zm25.328-1.0958c1.102-1.7646 1.0629-2.3676-0.24758-3.8156-0.85603-0.9459-1.843-3.1528-2.1933-4.9042-0.7323-3.6615-2.3011-4.0417-4.8869-1.1844-1.6344 1.806-1.6611 2.1698-0.27558 3.75 0.84392 0.9625 2.2752 3.2125 3.1807 5 1.9276 3.8054 2.6494 3.9937 4.4227 1.1542zm24.651-12.196c-0.52056-3.4714-1.2392-4.7337-3.2042-5.6291-1.3933-0.63481-2.6603-1.0248-2.8156-0.86676s-0.4208 2.5374-0.58996 5.2874l-0.30756 5 3.4692 0.54585c1.908 0.30022 3.6154 0.45396 3.7942 0.34165s0.023-2.2179-0.34604-4.6791zm-14.05 2.7202c1.9757-1.9757 2.027-6.444 0.10323-8.9874-1.3783-1.8223-1.4701-1.7182-1.5 1.7019-0.0347 3.9777-2.3586 5.8824-3.8737 3.1751-1.0739-1.9189-3.1581-0.90197-3.1581 1.541 0 3.9492 5.402 5.5961 8.4286 2.5696zm23.838-14.679c-0.21137-0.4125-1.5952-0.75988-3.0753-0.77196-1.48-0.0121-4.6035-0.89008-6.941-1.9511s-4.25-1.5012-4.25-0.97804c0 1.6083 3.8108 4.8655 6.4746 5.5341 2.1352 0.53589 2.5254 1.2095 2.5254 4.3588 0 2.0487 0.29978 4.0247 0.66618 4.3911 0.7587 0.75869 5.189-9.4335 4.6001-10.583zm-49.047 9.206c4.4286-1.23 9.2911-5.1078 11.317-9.0254 1.8808-3.637 1.8752-10.235-0.0117-13.884-5.0762-9.8163-22.524-9.0604-22.524 0.97589 0 2.3681 1.8395 3.5377 3.2871 2.0901 1.863-1.863 4.5762-1.251 6.3317 1.4281 2.2323 3.407 0.58656 7.0575-4.0563 8.9974-4.0272 1.6827-10.904 0.73123-18.272-2.5282-6.2773-2.7768-7.1523-2.5234-3.7272 1.079 3.5365 3.7197 10.176 7.8072 16.379 10.083 5.5336 2.0305 6.5361 2.1001 11.277 0.78349zm82.267-8.206c-1.3454-4.6691-7.4307-16.75-8.4372-16.75-0.57711 0-1.0493 1.5035-1.0493 3.3411s-0.67013 5.5501-1.4892 8.25c-0.81904 2.6999-1.494 5.2218-1.5 5.6041-6e-3 0.38236 2.1267 0.86375 4.7392 1.0698s5.5678 0.45566 6.5674 0.55479c1.4353 0.14236 1.6811-0.29278 1.169-2.0698zm-28.9-9.3985c6.2402-4.0887 7.2843-14.289 2.4524-23.958-3.176-6.3556-12.36-17.344-13.541-16.201-0.39353 0.38083 0.17659 1.9558 1.2669 3.5 9.4388 13.367 12.054 29.308 4.8076 29.308-2.6021 0-3.9384-2.2694-3.0271-5.1409 0.76117-2.3982-2.1522-2.5243-4.716-0.20414-2.1095 1.9091-2.4287 7.9884-0.54694 10.418 3.1353 4.0474 9.0574 5.0618 13.304 2.2789zm-70.979-0.93329c-0.33385-0.86998-0.60699-2.9491-0.60699-4.6202v-3.0384l-6.0149 0.43508c-8.8694 0.64155-9.319 1.9826-1.9067 5.6866 6.9974 3.4966 9.4502 3.9386 8.5286 1.5369zm39.643-3.1697c-0.36725-3.8221-0.0734-5.0982 1.5022-6.5241 2.8242-2.5559 5.5508-1.2409 5.0138 2.4181-0.3147 2.1442-0.0133 2.8575 1.2074 2.8575 2.5107 0 4.0268-2.0877 4.0268-5.545 0-4.876-5.2278-8.4281-9.3224-6.3344-5.265 2.6921-6.9202 8.0162-4.5797 14.73 1.613 4.627 2.6746 3.8366 2.152-1.6023zm-32.25-13.249c4.8477-4.8477 1.0393-12.311-7.8899-15.461-6.9468-2.451-9.4367-1.8764-4.0444 0.93324 4.6335 2.4143 8.0852 5.5279 6.1281 5.5279-1.7733 0-4.1939 3.0259-4.1939 5.2427 0 5.1588 6.2501 7.5072 10 3.7573zm27.695-4.4874c1.927-4.0409 1.7161-4.4048-3.1944-5.5123-3.5949-0.81077-3.6879-0.75365-5.4368 3.3374l-1.7793 4.1623 2.6075 0.63168c5.1511 1.2479 6.1128 0.92507 7.8029-2.6191zm22.138-0.52369 2.3334-1.9446-2.5511-5.5724c-2.7686-6.0475-6.3119-11.472-7.4935-11.472-0.40784 0-1.2434 2.5875-1.8569 5.75-0.61346 3.1625-1.4266 6.9875-1.807 8.5-0.57671 2.2932-0.36908 2.75 1.25 2.75 1.0679 0 2.8078 0.87326 3.8666 1.9406 2.432 2.4517 3.3658 2.4589 6.2584 0.0483zm-68.833 0.13613c0-0.48125 0.26935-2.2218 0.59856-3.8678 0.53811-2.6905 0.27052-3.1072-2.6492-4.125-5.9292-2.0669-6.456-0.91376-2.3133 5.0641 2.4972 3.6034 4.364 4.8563 4.364 2.9288zm33.391-6.1452c0.88472-2.2111 1.6086-4.9203 1.6086-6.0203 0-1.9967 7e-3 -1.9967 3.9602 0.02024 3.918 1.9988 11.04 2.7777 11.04 1.2074 0-3.2028-14.617-11.187-20.48-11.187-1.3859 0-2.5131 0.1125-2.5048 0.25 8e-3 0.1375 0.66353 2.05 1.4561 4.25 0.79258 2.2 1.4608 6.5875 1.485 9.75 0.0241 3.1625 0.44503 5.75 0.93531 5.75s1.6153-1.8091 2.5-4.0202z" fill="#333"/>
  </g>
 </g>
</svg>
