<svg width="248.81" height="594.88" version="1.1" viewBox="0 0 248.81 594.88" xmlns="http://www.w3.org/2000/svg">
 <g transform="translate(-309.07 -139.12)">
  <g>
   <path d="m412.4 612.5c1e-3 -8.25 0.15629-11.492 0.34419-7.2043 0.1879 4.2876 0.18676 11.038-3e-3 15-0.1893 3.9624-0.34304 0.45429-0.34164-7.7957zm-30.9-24.5c0.99549-1.1 2.035-2 2.31-2s-0.31449 0.9-1.31 2-2.035 2-2.31 2 0.31449-0.9 1.31-2zm31.752-17.5c0.0111-2.2 0.21589-2.9822 0.45508-1.7383s0.23011 3.0439-0.0202 4c-0.25029 0.95609-0.446-0.0617-0.4349-2.2617zm98.827 0.91667c0.048-1.165 0.28494-1.4019 0.60416-0.60417 0.28887 0.72187 0.25335 1.5844-0.0789 1.9167-0.33229 0.33229-0.56864-0.25834-0.52522-1.3125zm-122.27-9.0998c0.72187-0.28887 1.5844-0.25335 1.9167 0.0789 0.33229 0.33229-0.25834 0.56864-1.3125 0.52522-1.165-0.048-1.4019-0.28494-0.60417-0.60416zm-34.58-15.317c0-1.925 0.2058-2.7125 0.45733-1.75 0.25152 0.9625 0.25152 2.5375 0 3.5-0.25153 0.9625-0.45733 0.175-0.45733-1.75zm123.77 1.6224c0-0.20765 0.7875-0.99515 1.75-1.75 1.5861-1.2439 1.6214-1.2085 0.37756 0.37756-1.3064 1.6658-2.1276 2.1955-2.1276 1.3724zm-94.188-36.306c0.72187-0.28887 1.5844-0.25335 1.9167 0.0789 0.33229 0.33229-0.25834 0.56864-1.3125 0.52522-1.165-0.048-1.4019-0.28494-0.60417-0.60416zm135.27-43.9c0.048-1.165 0.28494-1.4019 0.60416-0.60417 0.28887 0.72187 0.25335 1.5844-0.0789 1.9167-0.33229 0.33229-0.56864-0.25834-0.52522-1.3125zm-180-10c0.048-1.165 0.28494-1.4019 0.60416-0.60417 0.28887 0.72187 0.25335 1.5844-0.0789 1.9167-0.33229 0.33229-0.56864-0.25834-0.52522-1.3125zm-30.884-5.9167c0.0204-1.65 0.2445-2.2039 0.49804-1.231s0.23687 2.323-0.0371 3c-0.27393 0.67703-0.48137-0.11903-0.46099-1.769zm180.88-23.083c0.048-1.165 0.28494-1.4019 0.60416-0.60417 0.28887 0.72187 0.25335 1.5844-0.0789 1.9167-0.33229 0.33229-0.56864-0.25834-0.52522-1.3125zm-181-6c0.048-1.165 0.28494-1.4019 0.60416-0.60417 0.28887 0.72187 0.25335 1.5844-0.0789 1.9167-0.33229 0.33229-0.56864-0.25834-0.52522-1.3125zm39.921-30.917c1.8658-1.925 3.6173-3.5 3.8923-3.5s-1.0266 1.575-2.8923 3.5-3.6173 3.5-3.8923 3.5 1.0266-1.575 2.8923-3.5zm195.08 1.9167c0.048-1.165 0.28494-1.4019 0.60416-0.60417 0.28887 0.72187 0.25335 1.5844-0.0789 1.9167-0.33229 0.33229-0.56864-0.25834-0.52522-1.3125zm-202.08-23.794c0-0.20765 0.7875-0.99515 1.75-1.75 1.5861-1.2439 1.6214-1.2085 0.37756 0.37756-1.3064 1.6658-2.1276 2.1955-2.1276 1.3724zm149-105c0-0.20765 0.7875-0.99515 1.75-1.75 1.5861-1.2439 1.6214-1.2085 0.37756 0.37756-1.3064 1.6658-2.1276 2.1955-2.1276 1.3724zm-55.768-15.622c0-1.925 0.2058-2.7125 0.45733-1.75 0.25152 0.9625 0.25152 2.5375 0 3.5-0.25153 0.9625-0.45733 0.175-0.45733-1.75zm-75.153-37.583c0.048-1.165 0.28494-1.4019 0.60416-0.60417 0.28887 0.72187 0.25335 1.5844-0.0789 1.9167-0.33229 0.33229-0.56864-0.25834-0.52522-1.3125zm87.734-62.1c0.72187-0.28887 1.5844-0.25335 1.9167 0.0789 0.33229 0.33229-0.25834 0.56864-1.3125 0.52522-1.165-0.048-1.4019-0.28494-0.60417-0.60416z" fill="#e0e0e0"/>
   <path d="m337 383.62c0-0.20765 0.7875-0.99515 1.75-1.75 1.5861-1.2439 1.6214-1.2085 0.37756 0.37756-1.3064 1.6658-2.1276 2.1955-2.1276 1.3724zm116-193c0-0.20765 0.7875-0.99515 1.75-1.75 1.5861-1.2439 1.6214-1.2085 0.37756 0.37756-1.3064 1.6658-2.1276 2.1955-2.1276 1.3724z" fill="#d5d5d5"/>
   <path d="m433.25 689.5c0.0111-2.2 0.21589-2.9822 0.45508-1.7383s0.23011 3.0439-0.0202 4c-0.25029 0.95609-0.446-0.0617-0.4349-2.2617zm-10.173-66.083c0.048-1.165 0.28494-1.4019 0.60416-0.60417 0.28887 0.72187 0.25335 1.5844-0.0789 1.9167-0.33229 0.33229-0.56864-0.25834-0.52522-1.3125zm0.116-43.917c0.0204-1.65 0.2445-2.2039 0.49804-1.231s0.23687 2.323-0.0371 3c-0.27393 0.67703-0.48137-0.11903-0.46099-1.769zm-10-2c0.0204-1.65 0.2445-2.2039 0.49804-1.231s0.23687 2.323-0.0371 3c-0.27393 0.67703-0.48137-0.11903-0.46099-1.769zm98.884-9.0833c0.048-1.165 0.28494-1.4019 0.60416-0.60417 0.28887 0.72187 0.25335 1.5844-0.0789 1.9167-0.33229 0.33229-0.56864-0.25834-0.52522-1.3125zm-156.85-27.417c0-1.925 0.2058-2.7125 0.45733-1.75 0.25152 0.9625 0.25152 2.5375 0 3.5-0.25153 0.9625-0.45733 0.175-0.45733-1.75zm164.85-76.583c0.048-1.165 0.28494-1.4019 0.60416-0.60417 0.28887 0.72187 0.25335 1.5844-0.0789 1.9167-0.33229 0.33229-0.56864-0.25834-0.52522-1.3125zm-180-2c0.048-1.165 0.28494-1.4019 0.60416-0.60417 0.28887 0.72187 0.25335 1.5844-0.0789 1.9167-0.33229 0.33229-0.56864-0.25834-0.52522-1.3125zm-30.884-15.917c0.0204-1.65 0.2445-2.2039 0.49804-1.231s0.23687 2.323-0.0371 3c-0.27393 0.67703-0.48137-0.11903-0.46099-1.769zm214.88-3.0833c0.048-1.165 0.28494-1.4019 0.60416-0.60417 0.28887 0.72187 0.25335 1.5844-0.0789 1.9167-0.33229 0.33229-0.56864-0.25834-0.52522-1.3125zm33.079-5.4167c0-1.375 0.22698-1.9375 0.50439-1.25s0.27741 1.8125 0 2.5-0.50439 0.125-0.50439-1.25zm-247.93-9c0-1.925 0.2058-2.7125 0.45733-1.75 0.25152 0.9625 0.25152 2.5375 0 3.5-0.25153 0.9625-0.45733 0.175-0.45733-1.75zm66.926 1c0-1.375 0.22698-1.9375 0.50439-1.25s0.27741 1.8125 0 2.5-0.50439 0.125-0.50439-1.25zm170.18-5c0-4.125 0.17651-5.8125 0.39226-3.75 0.21574 2.0625 0.21574 5.4375 0 7.5-0.21575 2.0625-0.39226 0.375-0.39226-3.75zm-154.14-18.5c0.0204-1.65 0.2445-2.2039 0.49804-1.231s0.23687 2.323-0.0371 3c-0.27393 0.67703-0.48137-0.11903-0.46099-1.769zm16.963-23.5c0-1.375 0.22698-1.9375 0.50439-1.25s0.27741 1.8125 0 2.5-0.50439 0.125-0.50439-1.25zm-28.408-89.662c0.6875-0.27741 1.8125-0.27741 2.5 0s0.125 0.50439-1.25 0.50439-1.9375-0.22698-1.25-0.50439zm54.329-47.921c0.048-1.165 0.28494-1.4019 0.60416-0.60417 0.28887 0.72187 0.25335 1.5844-0.0789 1.9167-0.33229 0.33229-0.56864-0.25834-0.52522-1.3125zm-22.266-11.1c0.72187-0.28887 1.5844-0.25335 1.9167 0.0789 0.33229 0.33229-0.25834 0.56864-1.3125 0.52522-1.165-0.048-1.4019-0.28494-0.60417-0.60416zm56.457-3.0099c0.97297-0.25354 2.323-0.23687 3 0.0371 0.67703 0.27393-0.11903 0.48137-1.769 0.46099-1.65-0.0204-2.2039-0.2445-1.231-0.49804zm-109.19-7.8903c0.048-1.165 0.28494-1.4019 0.60416-0.60417 0.28887 0.72187 0.25335 1.5844-0.0789 1.9167-0.33229 0.33229-0.56864-0.25834-0.52522-1.3125zm149-1c0.048-1.165 0.28494-1.4019 0.60416-0.60417 0.28887 0.72187 0.25335 1.5844-0.0789 1.9167-0.33229 0.33229-0.56864-0.25834-0.52522-1.3125zm11.207-2.9167c8e-3 -2.75 0.20172-3.7563 0.43157-2.2362 0.22986 1.5201 0.22371 3.7701-0.0136 5-0.23736 1.2299-0.42542-0.0137-0.41792-2.7638zm-11.128-3.5c0-1.375 0.22698-1.9375 0.50439-1.25s0.27741 1.8125 0 2.5-0.50439 0.125-0.50439-1.25zm-77.079-9.5833c0.048-1.165 0.28494-1.4019 0.60416-0.60417 0.28887 0.72187 0.25335 1.5844-0.0789 1.9167-0.33229 0.33229-0.56864-0.25834-0.52522-1.3125zm16-3c0.048-1.165 0.28494-1.4019 0.60416-0.60417 0.28887 0.72187 0.25335 1.5844-0.0789 1.9167-0.33229 0.33229-0.56864-0.25834-0.52522-1.3125z" fill="#cfcfcf"/>
   <path d="m515.5 169c-0.33992-0.55-0.14148-1 0.44098-1s1.059 0.45 1.059 1-0.19844 1-0.44098 1-0.7191-0.45-1.059-1z" fill="#cacaca"/>
   <path d="m467.4 577.75-1.905-2.25 2.25 1.905c2.1144 1.7902 2.7052 2.595 1.905 2.595-0.18976 0-1.2023-1.0125-2.25-2.25zm-84.533-365.5c-1.2439-1.5861-1.2085-1.6214 0.37756-0.37756 1.6658 1.3064 2.1955 2.1276 1.3724 2.1276-0.20765 0-0.99515-0.7875-1.75-1.75z" fill="#c4c4c4"/>
   <path d="m413.08 634.42c0.048-1.165 0.28494-1.4019 0.60416-0.60417 0.28887 0.72187 0.25335 1.5844-0.0789 1.9167-0.33229 0.33229-0.56864-0.25834-0.52522-1.3125zm64.793-19.167c-1.2439-1.5861-1.2085-1.6214 0.37756-0.37756 1.6658 1.3064 2.1955 2.1276 1.3724 2.1276-0.20765 0-0.99515-0.7875-1.75-1.75zm-64.64-31.25c0-1.925 0.2058-2.7125 0.45733-1.75 0.25152 0.9625 0.25152 2.5375 0 3.5-0.25153 0.9625-0.45733 0.175-0.45733-1.75zm99.926-4c0-1.375 0.22698-1.9375 0.50439-1.25s0.27741 1.8125 0 2.5-0.50439 0.125-0.50439-1.25zm-157.85-47.5c6e-3 -3.3 0.1923-4.5294 0.41486-2.7321s0.21797 4.4974-0.0102 6c-0.22818 1.5026-0.41027 0.0321-0.40466-3.2679zm136.19-21.5c0.33992-0.55 0.81648-1 1.059-1s0.44098 0.45 0.44098 1-0.47656 1-1.059 1-0.7809-0.45-0.44098-1zm-151.25-42.5c0.0111-2.2 0.21589-2.9822 0.45508-1.7383s0.23011 3.0439-0.0202 4c-0.25029 0.95609-0.446-0.0617-0.4349-2.2617zm179.83-7.0833c0.048-1.165 0.28494-1.4019 0.60416-0.60417 0.28887 0.72187 0.25335 1.5844-0.0789 1.9167-0.33229 0.33229-0.56864-0.25834-0.52522-1.3125zm-210.77-22.917c6e-3 -3.3 0.1923-4.5294 0.41486-2.7321s0.21797 4.4974-0.0102 6c-0.22818 1.5026-0.41027 0.0321-0.40466-3.2679zm236.85-3.5c0-1.375 0.22698-1.9375 0.50439-1.25s0.27741 1.8125 0 2.5-0.50439 0.125-0.50439-1.25zm0-20c0-1.375 0.22698-1.9375 0.50439-1.25s0.27741 1.8125 0 2.5-0.50439 0.125-0.50439-1.25zm-199.66-10c0.99549-1.1 2.035-2 2.31-2s-0.31449 0.9-1.31 2-2.035 2-2.31 2 0.31449-0.9 1.31-2zm77.786-56.5c8e-3 -2.75 0.20172-3.7563 0.43157-2.2362 0.22986 1.5201 0.22371 3.7701-0.0136 5-0.23736 1.2299-0.42542-0.0138-0.41792-2.7638zm-64.207-129.08c0.048-1.165 0.28494-1.4019 0.60416-0.60417 0.28887 0.72187 0.25335 1.5844-0.0789 1.9167-0.33229 0.33229-0.56864-0.25834-0.52522-1.3125zm137.92 0.20577c0-0.20765 0.7875-0.99515 1.75-1.75 1.5861-1.2439 1.6214-1.2085 0.37756 0.37756-1.3064 1.6658-2.1276 2.1955-2.1276 1.3724z" fill="#bfbfbf"/>
   <path d="m425.87 192.25c-1.2439-1.5861-1.2085-1.6214 0.37756-0.37756 0.9625 0.75485 1.75 1.5424 1.75 1.75 0 0.82304-0.82119 0.29331-2.1276-1.3724z" fill="#b9b9b9"/>
   <path d="m461 195.62c0-0.20765 0.7875-0.99515 1.75-1.75 1.5861-1.2439 1.6214-1.2085 0.37756 0.37756-1.3064 1.6658-2.1276 2.1955-2.1276 1.3724z" fill="#b3b3b3"/>
   <path d="m404 543.62c0-0.20765 0.7875-0.99515 1.75-1.75 1.5861-1.2439 1.6214-1.2085 0.37756 0.37756-1.3064 1.6658-2.1276 2.1955-2.1276 1.3724z" fill="#aeaeae"/>
   <path d="m423.08 628.42c0.048-1.165 0.28494-1.4019 0.60416-0.60417 0.28887 0.72187 0.25335 1.5844-0.0789 1.9167-0.33229 0.33229-0.56864-0.25834-0.52522-1.3125zm0-55c0.048-1.165 0.28494-1.4019 0.60416-0.60417 0.28887 0.72187 0.25335 1.5844-0.0789 1.9167-0.33229 0.33229-0.56864-0.25834-0.52522-1.3125zm39.793-0.16667c-1.2439-1.5861-1.2085-1.6214 0.37756-0.37756 0.9625 0.75485 1.75 1.5424 1.75 1.75 0 0.82304-0.82119 0.29331-2.1276-1.3724zm-72-53c-1.2439-1.5861-1.2085-1.6214 0.37756-0.37756 0.9625 0.75485 1.75 1.5424 1.75 1.75 0 0.82304-0.82119 0.29331-2.1276-1.3724zm133.52-61.75c2e-3 -7.15 0.16103-9.9438 0.35396-6.2084 0.19293 3.7354 0.19149 9.5854-3e-3 13-0.19468 3.4146-0.35253 0.35841-0.35078-6.7916zm-204.05-21c4e-3 -4.4 0.17944-6.0756 0.39069-3.7236 0.21124 2.352 0.20827 5.952-7e-3 8-0.21487 2.048-0.38771 0.12357-0.38408-4.2764zm236.85-5c0.0204-1.65 0.2445-2.2039 0.49804-1.231s0.23687 2.323-0.0371 3c-0.27393 0.67703-0.48137-0.11903-0.46099-1.769zm0.10471-13.5c0-3.025 0.18747-4.2625 0.41659-2.75 0.22913 1.5125 0.22913 3.9875 0 5.5-0.22912 1.5125-0.41659 0.275-0.41659-2.75zm-148.14-30c0-1.375 0.22698-1.9375 0.50439-1.25s0.27741 1.8125 0 2.5-0.50439 0.125-0.50439-1.25zm114.25-15.25-1.905-2.25 2.25 1.905c1.2375 1.0477 2.25 2.0602 2.25 2.25 0 0.80025-0.80479 0.20945-2.595-1.905zm-1.9679-10-2.9371-3.25 3.25 2.9371c1.7875 1.6154 3.25 3.0779 3.25 3.25 0 0.77256-0.82513 0.0924-3.5629-2.9371zm-74.205-15.75c0-1.925 0.2058-2.7125 0.45733-1.75 0.25152 0.9625 0.25152 2.5375 0 3.5-0.25153 0.9625-0.45733 0.175-0.45733-1.75z" fill="#a3a3a3"/>
   <path d="m400 539.62c0-0.20765 0.7875-0.99515 1.75-1.75 1.5861-1.2439 1.6214-1.2085 0.37756 0.37756-1.3064 1.6658-2.1276 2.1955-2.1276 1.3724zm-30.188-206.31c0.72187-0.28887 1.5844-0.25335 1.9167 0.0789 0.33229 0.33229-0.25834 0.56864-1.3125 0.52522-1.165-0.048-1.4019-0.28494-0.60417-0.60416zm8.4565-8.0099c0.97297-0.25354 2.323-0.23687 3 0.0371 0.67703 0.27393-0.11903 0.48137-1.769 0.46099-1.65-0.0204-2.2039-0.2445-1.231-0.49804zm32.231-9.307c0.99549-1.1 2.035-2 2.31-2s-0.31449 0.9-1.31 2-2.035 2-2.31 2 0.31449-0.9 1.31-2zm-52-12c0.99549-1.1 2.035-2 2.31-2s-0.31449 0.9-1.31 2-2.035 2-2.31 2 0.31449-0.9 1.31-2zm79.25-15.706c1.2375-0.23836 3.2625-0.23836 4.5 0 1.2375 0.23835 0.225 0.43337-2.25 0.43337s-3.4875-0.19502-2.25-0.43337zm2.329-83.878c0.048-1.165 0.28494-1.4019 0.60416-0.60417 0.28887 0.72187 0.25335 1.5844-0.0789 1.9167-0.33229 0.33229-0.56864-0.25834-0.52522-1.3125zm24.421-1.4167c0.99549-1.1 2.035-2 2.31-2s-0.31449 0.9-1.31 2-2.035 2-2.31 2 0.31449-0.9 1.31-2zm-25.738-53.707c1.2439-0.23919 3.0439-0.23011 4 0.0202 0.95609 0.25029-0.0617 0.446-2.2617 0.4349-2.2-0.0111-2.9822-0.21589-1.7383-0.45508z" fill="#9d9d9d"/>
   <path d="m413.16 630c0-1.375 0.22698-1.9375 0.50439-1.25s0.27741 1.8125 0 2.5-0.50439 0.125-0.50439-1.25zm0.12812-37.5c8e-3 -2.75 0.20172-3.7563 0.43157-2.2362 0.22986 1.5201 0.22371 3.7701-0.0136 5-0.23736 1.2299-0.42542-0.0137-0.41792-2.7638zm99.793-17.083c0.048-1.165 0.28494-1.4019 0.60416-0.60417 0.28887 0.72187 0.25335 1.5844-0.0789 1.9167-0.33229 0.33229-0.56864-0.25834-0.52522-1.3125zm-98.921-10.417c0-1.375 0.22698-1.9375 0.50439-1.25s0.27741 1.8125 0 2.5-0.50439 0.125-0.50439-1.25zm77.921-57.583c0.048-1.165 0.28494-1.4019 0.60416-0.60417 0.28887 0.72187 0.25335 1.5844-0.0789 1.9167-0.33229 0.33229-0.56864-0.25834-0.52522-1.3125zm28-50c0.048-1.165 0.28494-1.4019 0.60416-0.60417 0.28887 0.72187 0.25335 1.5844-0.0789 1.9167-0.33229 0.33229-0.56864-0.25834-0.52522-1.3125zm26-18c0.048-1.165 0.28494-1.4019 0.60416-0.60417 0.28887 0.72187 0.25335 1.5844-0.0789 1.9167-0.33229 0.33229-0.56864-0.25834-0.52522-1.3125zm-236-20c0.048-1.165 0.28494-1.4019 0.60416-0.60417 0.28887 0.72187 0.25335 1.5844-0.0789 1.9167-0.33229 0.33229-0.56864-0.25834-0.52522-1.3125zm236-9c0.048-1.165 0.28494-1.4019 0.60416-0.60417 0.28887 0.72187 0.25335 1.5844-0.0789 1.9167-0.33229 0.33229-0.56864-0.25834-0.52522-1.3125zm-1-13c0.048-1.165 0.28494-1.4019 0.60416-0.60417 0.28887 0.72187 0.25335 1.5844-0.0789 1.9167-0.33229 0.33229-0.56864-0.25834-0.52522-1.3125zm-196.58-32.417c0.99549-1.1 2.035-2 2.31-2s-0.31449 0.9-1.31 2-2.035 2-2.31 2 0.31449-0.9 1.31-2zm139.5-95.378c0-0.20765 0.7875-0.99515 1.75-1.75 1.5861-1.2439 1.6214-1.2085 0.37756 0.37756-1.3064 1.6658-2.1276 2.1955-2.1276 1.3724z" fill="#929292"/>
   <path d="m514.4 301.75-1.905-2.25 2.25 1.905c1.2375 1.0477 2.25 2.0602 2.25 2.25 0 0.80025-0.80479 0.20945-2.595-1.905zm-96.533-2.5c-1.2439-1.5861-1.2085-1.6214 0.37756-0.37756 1.6658 1.3064 2.1955 2.1276 1.3724 2.1276-0.20765 0-0.99515-0.7875-1.75-1.75zm-36.467-26.5-1.905-2.25 2.25 1.905c2.1144 1.7902 2.7052 2.595 1.905 2.595-0.18976 0-1.2023-1.0125-2.25-2.25zm9.5193-4.5-2.4243-2.75 2.75 2.4243c2.5703 2.2659 3.2086 3.0757 2.4243 3.0757-0.17912 0-1.4166-1.2375-2.75-2.75zm24.948-62c-1.2439-1.5861-1.2085-1.6214 0.37756-0.37756 0.9625 0.75485 1.75 1.5424 1.75 1.75 0 0.82304-0.82119 0.29331-2.1276-1.3724zm79.533-44.5-1.905-2.25 2.25 1.905c1.2375 1.0477 2.25 2.0602 2.25 2.25 0 0.80025-0.80479 0.20945-2.595-1.905z" fill="#818181"/>
   <path d="m486.19 611.5c0.0204-1.65 0.2445-2.2039 0.49804-1.231s0.23687 2.323-0.0371 3c-0.27393 0.67703-0.48137-0.11903-0.46099-1.769zm-63.825-9.5c0-5.775 0.16528-8.1375 0.36728-5.25s0.202 7.6125 0 10.5-0.36728 0.525-0.36728-5.25zm0.78793-34c0-1.375 0.22698-1.9375 0.50439-1.25s0.27741 1.8125 0 2.5-0.50439 0.125-0.50439-1.25zm5.9211-56.583c0.048-1.165 0.28494-1.4019 0.60416-0.60417 0.28887 0.72187 0.25335 1.5844-0.0789 1.9167-0.33229 0.33229-0.56864-0.25834-0.52522-1.3125zm-108.92-62.417c0-1.375 0.22698-1.9375 0.50439-1.25s0.27741 1.8125 0 2.5-0.50439 0.125-0.50439-1.25zm0-23c0-1.375 0.22698-1.9375 0.50439-1.25s0.27741 1.8125 0 2.5-0.50439 0.125-0.50439-1.25zm236.92 0.41667c0.048-1.165 0.28494-1.4019 0.60416-0.60417 0.28887 0.72187 0.25335 1.5844-0.0789 1.9167-0.33229 0.33229-0.56864-0.25834-0.52522-1.3125zm-109.92-72.417c0-1.375 0.22698-1.9375 0.50439-1.25s0.27741 1.8125 0 2.5-0.50439 0.125-0.50439-1.25zm0-12c0-1.375 0.22698-1.9375 0.50439-1.25s0.27741 1.8125 0 2.5-0.50439 0.125-0.50439-1.25zm-43.158-19.378c0-0.20765 0.7875-0.99515 1.75-1.75 1.5861-1.2439 1.6214-1.2085 0.37756 0.37756-1.3064 1.6658-2.1276 2.1955-2.1276 1.3724zm40.079-72.206c0.048-1.165 0.28494-1.4019 0.60416-0.60417 0.28887 0.72187 0.25335 1.5844-0.0789 1.9167-0.33229 0.33229-0.56864-0.25834-0.52522-1.3125zm1-15c0.048-1.165 0.28494-1.4019 0.60416-0.60417 0.28887 0.72187 0.25335 1.5844-0.0789 1.9167-0.33229 0.33229-0.56864-0.25834-0.52522-1.3125z" fill="#707070"/>
   <path d="m381 589.62c0-0.20765 0.7875-0.99515 1.75-1.75 1.5861-1.2439 1.6214-1.2085 0.37756 0.37756-1.3064 1.6658-2.1276 2.1955-2.1276 1.3724zm98-40c0-0.20765 0.7875-0.99515 1.75-1.75 1.5861-1.2439 1.6214-1.2085 0.37756 0.37756-1.3064 1.6658-2.1276 2.1955-2.1276 1.3724zm-13.25-51.285c0.6875-0.27741 1.8125-0.27741 2.5 0s0.125 0.50439-1.25 0.50439-1.9375-0.22698-1.25-0.50439zm-118.75-102.65c0-0.1721 1.4625-1.6346 3.25-3.25l3.25-2.9371-2.9371 3.25c-2.7378 3.0295-3.5629 3.7096-3.5629 2.9371zm-4-25.065c0-0.20765 0.7875-0.99515 1.75-1.75 1.5861-1.2439 1.6214-1.2085 0.37756 0.37756-1.3064 1.6658-2.1276 2.1955-2.1276 1.3724zm147.81-47.306c0.72187-0.28887 1.5844-0.25335 1.9167 0.0789 0.33229 0.33229-0.25834 0.56864-1.3125 0.52522-1.165-0.048-1.4019-0.28494-0.60417-0.60416zm-52.051-25.024c1.2439-0.23919 3.0439-0.23011 4 0.0202 0.95609 0.25029-0.0617 0.446-2.2617 0.4349-2.2-0.0111-2.9822-0.21589-1.7383-0.45508zm52.051-7.9758c0.72187-0.28887 1.5844-0.25335 1.9167 0.0789 0.33229 0.33229-0.25834 0.56864-1.3125 0.52522-1.165-0.048-1.4019-0.28494-0.60417-0.60416zm-45-2c0.72187-0.28887 1.5844-0.25335 1.9167 0.0789 0.33229 0.33229-0.25834 0.56864-1.3125 0.52522-1.165-0.048-1.4019-0.28494-0.60417-0.60416zm-7.5625-149.01c0.9625-0.25152 2.5375-0.25152 3.5 0 0.9625 0.25153 0.175 0.45733-1.75 0.45733s-2.7125-0.2058-1.75-0.45733z" fill="#656565"/>
   <path d="m413.4 613c0-7.975 0.1553-11.238 0.34512-7.25 0.18981 3.9875 0.18981 10.512 0 14.5-0.18982 3.9875-0.34512 0.725-0.34512-7.25zm0.79756-42.5c0.0204-1.65 0.2445-2.2039 0.49804-1.231s0.23687 2.323-0.0371 3c-0.27393 0.67703-0.48137-0.11903-0.46099-1.769zm98.884 0.91667c0.048-1.165 0.28494-1.4019 0.60416-0.60417 0.28887 0.72187 0.25335 1.5844-0.0789 1.9167-0.33229 0.33229-0.56864-0.25834-0.52522-1.3125zm-156.88-23.917c0.0204-1.65 0.2445-2.2039 0.49804-1.231s0.23687 2.323-0.0371 3c-0.27393 0.67703-0.48137-0.11903-0.46099-1.769zm36.677-32.25c-1.2439-1.5861-1.2085-1.6214 0.37756-0.37756 0.9625 0.75485 1.75 1.5424 1.75 1.75 0 0.82304-0.82119 0.29331-2.1276-1.3724zm128.21-46.833c0.048-1.165 0.28494-1.4019 0.60416-0.60417 0.28887 0.72187 0.25335 1.5844-0.0789 1.9167-0.33229 0.33229-0.56864-0.25834-0.52522-1.3125zm-210.88-15.917c0.0204-1.65 0.2445-2.2039 0.49804-1.231s0.23687 2.323-0.0371 3c-0.27393 0.67703-0.48137-0.11903-0.46099-1.769zm209.24-163.75-2.9371-3.25 3.25 2.9371c1.7875 1.6154 3.25 3.0779 3.25 3.25 0 0.77256-0.82513 0.0924-3.5629-2.9371zm-83.205-38.75c0-1.925 0.2058-2.7125 0.45733-1.75 0.25152 0.9625 0.25152 2.5375 0 3.5-0.25153 0.9625-0.45733 0.175-0.45733-1.75zm-51.36-34.75c-1.2439-1.5861-1.2085-1.6214 0.37756-0.37756 1.6658 1.3064 2.1955 2.1276 1.3724 2.1276-0.20765 0-0.99515-0.7875-1.75-1.75zm32-18c-1.2439-1.5861-1.2085-1.6214 0.37756-0.37756 1.6658 1.3064 2.1955 2.1276 1.3724 2.1276-0.20765 0-0.99515-0.7875-1.75-1.75z" fill="#5f5f5f"/>
   <path d="m336 383.62c0-0.20765 0.7875-0.99515 1.75-1.75 1.5861-1.2439 1.6214-1.2085 0.37756 0.37756-1.3064 1.6658-2.1276 2.1955-2.1276 1.3724zm117.5-194.62c0.99549-1.1 2.035-2 2.31-2s-0.31449 0.9-1.31 2-2.035 2-2.31 2 0.31449-0.9 1.31-2z" fill="#4f4f4f"/>
   <path d="m423.08 636.42c0.048-1.165 0.28494-1.4019 0.60416-0.60417 0.28887 0.72187 0.25335 1.5844-0.0789 1.9167-0.33229 0.33229-0.56864-0.25834-0.52522-1.3125zm-0.82677-19.917c0.0111-2.2 0.21589-2.9822 0.45508-1.7383s0.23011 3.0439-0.0202 4c-0.25029 0.95609-0.446-0.0617-0.4349-2.2617zm63.906-10.5c0-1.375 0.22698-1.9375 0.50439-1.25s0.27741 1.8125 0 2.5-0.50439 0.125-0.50439-1.25zm-63.872-19.5c8e-3 -2.75 0.20172-3.7563 0.43157-2.2362 0.22986 1.5201 0.22371 3.7701-0.0136 5-0.23736 1.2299-0.42542-0.0137-0.41792-2.7638zm44.119-8.75-1.905-2.25 2.25 1.905c2.1144 1.7902 2.7052 2.595 1.905 2.595-0.18976 0-1.2023-1.0125-2.25-2.25zm-43.247-14.75c0-1.375 0.22698-1.9375 0.50439-1.25s0.27741 1.8125 0 2.5-0.50439 0.125-0.50439-1.25zm94.921-10.583c0.048-1.165 0.28494-1.4019 0.60416-0.60417 0.28887 0.72187 0.25335 1.5844-0.0789 1.9167-0.33229 0.33229-0.56864-0.25834-0.52522-1.3125zm-149.88-24.917c0.0204-1.65 0.2445-2.2039 0.49804-1.231s0.23687 2.323-0.0371 3c-0.27393 0.67703-0.48137-0.11903-0.46099-1.769zm134.88-7.0833c0.048-1.165 0.28494-1.4019 0.60416-0.60417 0.28887 0.72187 0.25335 1.5844-0.0789 1.9167-0.33229 0.33229-0.56864-0.25834-0.52522-1.3125zm-43.921-1.4167c0-1.375 0.22698-1.9375 0.50439-1.25s0.27741 1.8125 0 2.5-0.50439 0.125-0.50439-1.25zm-30.079-3.5833c0.048-1.165 0.28494-1.4019 0.60416-0.60417 0.28887 0.72187 0.25335 1.5844-0.0789 1.9167-0.33229 0.33229-0.56864-0.25834-0.52522-1.3125zm0.07894-8.4167c0-1.375 0.22698-1.9375 0.50439-1.25s0.27741 1.8125 0 2.5-0.50439 0.125-0.50439-1.25zm-27.285-0.75c-1.2439-1.5861-1.2085-1.6214 0.37756-0.37756 0.9625 0.75485 1.75 1.5424 1.75 1.75 0 0.82304-0.82119 0.29331-2.1276-1.3724zm-81.793-52.833c0.048-1.165 0.28494-1.4019 0.60416-0.60417 0.28887 0.72187 0.25335 1.5844-0.0789 1.9167-0.33229 0.33229-0.56864-0.25834-0.52522-1.3125zm42.116-10.917c0.0204-1.65 0.2445-2.2039 0.49804-1.231s0.23687 2.323-0.0371 3c-0.27393 0.67703-0.48137-0.11903-0.46099-1.769zm160.88-3.0833c0.048-1.165 0.28494-1.4019 0.60416-0.60417 0.28887 0.72187 0.25335 1.5844-0.0789 1.9167-0.33229 0.33229-0.56864-0.25834-0.52522-1.3125zm-147.88-15.917c0.0204-1.65 0.2445-2.2039 0.49804-1.231s0.23687 2.323-0.0371 3c-0.27393 0.67703-0.48137-0.11903-0.46099-1.769zm-55.116-2.0833c0.048-1.165 0.28494-1.4019 0.60416-0.60417 0.28887 0.72187 0.25335 1.5844-0.0789 1.9167-0.33229 0.33229-0.56864-0.25834-0.52522-1.3125zm71.116-20.917c0.0204-1.65 0.2445-2.2039 0.49804-1.231s0.23687 2.323-0.0371 3c-0.27393 0.67703-0.48137-0.11903-0.46099-1.769zm16.963-23.5c0-1.375 0.22698-1.9375 0.50439-1.25s0.27741 1.8125 0 2.5-0.50439 0.125-0.50439-1.25zm33.921-118.58c0.048-1.165 0.28494-1.4019 0.60416-0.60417 0.28887 0.72187 0.25335 1.5844-0.0789 1.9167-0.33229 0.33229-0.56864-0.25834-0.52522-1.3125zm2.116-12.917c0.0204-1.65 0.2445-2.2039 0.49804-1.231s0.23687 2.323-0.0371 3c-0.27393 0.67703-0.48137-0.11903-0.46099-1.769zm74.884-20.083c0.048-1.165 0.28494-1.4019 0.60416-0.60417 0.28887 0.72187 0.25335 1.5844-0.0789 1.9167-0.33229 0.33229-0.56864-0.25834-0.52522-1.3125zm-148.85-6.4167c0-1.925 0.2058-2.7125 0.45733-1.75 0.25152 0.9625 0.25152 2.5375 0 3.5-0.25153 0.9625-0.45733 0.175-0.45733-1.75zm11.64-6.75c-1.2439-1.5861-1.2085-1.6214 0.37756-0.37756 1.6658 1.3064 2.1955 2.1276 1.3724 2.1276-0.20765 0-0.99515-0.7875-1.75-1.75zm-23-52c-1.2439-1.5861-1.2085-1.6214 0.37756-0.37756 1.6658 1.3064 2.1955 2.1276 1.3724 2.1276-0.20765 0-0.99515-0.7875-1.75-1.75z" fill="#444"/>
   <path d="m478.87 615.25c-1.2439-1.5861-1.2085-1.6214 0.37756-0.37756 0.9625 0.75485 1.75 1.5424 1.75 1.75 0 0.82304-0.82119 0.29331-2.1276-1.3724zm-52.467-423.5-1.905-2.25 2.25 1.905c1.2375 1.0477 2.25 2.0602 2.25 2.25 0 0.80025-0.80479 0.20945-2.595-1.905z" fill="#383838"/>
   <path d="m439.38 730.75c-9.5699-10.321-19.398-24.705-26.967-39.466-6.3062-12.299-17.426-45.229-24.061-71.252-2.4494-9.6071-4.6923-17.706-4.9843-17.998-0.81081-0.81081-3.1365 2.6853-7.461 11.216-2.1608 4.2625-4.5664 7.75-5.3457 7.75-5.3116 0-14.456-56.372-14.591-89.95-0.0188-4.6579-0.35522-6.9755-0.87832-6.0501-2.0892 3.6959-6.801 26.904-10.76 53l-0.83446 5.5-4.3878-10.5c-19.761-47.288-31.538-110.2-28.273-151.03 2.2795-28.506 8.5976-61.319 15.879-82.47 13.447-39.058 34.118-61.307 57.118-61.476l3.3339-0.0245-5.6731-6.25c-17.298-19.057-23.74-44.415-17.915-70.515l1.3983-6.265-5.1025-14.235c-2.8064-7.8293-5.9515-15.905-6.9891-17.945-2.036-4.0041-2.4312-7.3352-0.9768-8.2341 1.583-0.97834 4.1134 0.58823 5.603 3.4689 1.9864 3.8412 6.9079 6.6378 14.972 8.5081l6.833 1.5847 5.0909-4.8901c10.488-10.074 20.507-15.977 34.591-20.382 6.369-1.9918 9.6112-2.3454 21.5-2.3454 11.883 0 15.134 0.35437 21.5 2.343 10.651 3.3274 21.737 9.355 30.063 16.346l7.1752 6.0246 6.1311-1.1631c8.6609-1.643 15.671-5.2914 18.432-9.5928 2.4478-3.8135 5.4033-4.3514 6.03-1.0974 0.19459 1.0104-0.89372 4.6052-2.4185 7.9885-1.5247 3.3833-4.8449 12.017-7.378 19.186l-4.6058 13.035 1.8928 6.9654c2.466 9.0747 2.6332 27.198 0.3385 36.706-3.1212 12.933-8.9001 24.07-17.642 34.002-4.0174 4.5641-4.1809 5.7571-0.78884 5.7571 3.6872 0 12.936 5.2577 18.802 10.689 18.597 17.218 30.895 50.754 36.601 99.811 2.1353 18.359 2.4508 54.916 0.58693 68-5.7124 40.098-19.995 86.51-36.904 119.92l-4.0081 7.9197-0.71263-11.262c-0.84414-13.34-3.6913-33.477-6.7954-48.06-2.4809-11.655-2.4825-11.654-4.7155 4.3716-0.60459 4.3389-3.7656 18.964-7.0245 32.5-7.1894 29.862-7.9212 33.792-8.7309 46.897-0.34955 5.6574-1.093 10.569-1.652 10.914-0.55907 0.34552-4.3558-2.8547-8.4372-7.1116-4.0814-4.2569-7.5378-7.5934-7.6809-7.4145-0.14314 0.17893-1.4285 2.9158-2.8563 6.0819s-7.4316 13.516-13.342 23c-16.271 26.109-19.324 34.918-19.324 55.743 0 16.838 2.9504 28.55 9.6293 38.223 2.349 3.4021 2.6297 6.7769 0.56351 6.7769-0.45937 0-2.1913-1.4625-3.8487-3.25zm-21.29-61.902c-3.9097-27.384-4.3675-35.841-3.8966-71.98 0.25024-19.203 0.10743-34.567-0.31735-34.142-3.1855 3.1906-20.874 30.055-20.872 31.699 6e-3 4.0268 3.1894 20.23 6.4976 33.075 5.1761 20.097 18.696 57.637 20.212 56.121 0.23354-0.23354-0.49721-6.8812-1.6239-14.773zm10.368-9.5886c1.3963-5.6793 8.9212-21.994 15.987-34.661 10.334-18.527 12.418-22.883 13.157-27.501 0.6285-3.9304 0.21099-4.7378-12.325-23.833-7.1363-10.87-14.28-22.126-15.876-25.013s-3.1767-5.2494-3.5145-5.25c-1.0108-2e-3 -1.7902 7.8746-2.995 30.267-1.2847 23.876-0.63621 54.081 1.6152 75.232 0.81961 7.7 1.491 14.139 1.492 14.309 8e-3 1.3918 1.9237-1.3734 2.4587-3.5496zm-46.568-70.009c7.7138-7.7427 21.355-28.34 19.8-29.895-0.30478-0.30478-2.2718 0.0132-4.3712 0.70669-7.2019 2.379-14.363 1.764-21.336-1.832-3.4631-1.786-6.4921-3.0517-6.7312-2.8126-0.4682 0.4682 3.5107 34.93 4.3681 37.833 0.82061 2.7781 2.1662 2.1273 8.2708-4zm95.131-2.5c0.0107-0.6875 0.67143-5.75 1.4683-11.25 0.79687-5.5 1.4631-10.347 1.4806-10.77 0.0174-0.42368-1.8482 0.18874-4.1459 1.3609-2.2977 1.1722-6.8139 2.3703-10.036 2.6625s-5.7297 0.91562-5.5724 1.3854c0.46312 1.3835 15.215 17.779 16.036 17.822 0.4125 0.0216 0.75875-0.52313 0.76944-1.2106zm-4.1078-32.953c9.1764-4.7181 12.219-8.8876 12.842-17.599 0.59964-8.3806-0.63682-12.533-5.3836-18.078-6.6301-7.7457-13.365-9.2778-18.447-4.1962-3.1103 3.1103-3.5549 5.0278-1.8879 8.1427 1.4458 2.7015 2.9648 2.4117 2.9648-0.56574 0-3.2267 3.2962-6.5 6.5454-6.5 6.491 0 9.8632 9.6682 5.3662 15.385-6.6701 8.4797-20.231 7.1866-25.223-2.405-2.4661-4.7381-1.6898-12.37 1.9358-19.031 3.8173-7.0137 7.3231-9.2869 15.085-9.7811 5.2782-0.33609 7.164 0.0248 11.684 2.2363 2.9645 1.4504 7.248 4.6529 9.519 7.1166s4.3448 4.4795 4.6085 4.4795c1.0006 0 0.41976-9.1528-1.0131-15.964-2.439-11.594-10.839-31.183-22.957-53.536-6.2618-11.55-14.458-27.862-18.213-36.25s-7.115-15.25-7.466-15.25-0.94651 3.0375-1.3232 6.75c-0.37671 3.7125-3.1947 27.9-6.2622 53.75-7.8067 65.787-7.6138 72.232 2.6805 89.56 5.0068 8.4277 9.9152 13.539 14.29 14.881 5.537 1.6982 13.634 0.46562 20.655-3.1444zm-130.9-2.1056c0.0134-4.9163 5.4913-30.805 9.3633-44.252 8.3862-29.123 16.591-45.067 38.447-74.71 15.458-20.965 24.266-35.898 28.757-48.754 6.2026-17.753 8.0793-37.62 4.8094-50.912-1.5474-6.2906-7.9234-20.064-9.2881-20.064-0.65219 0-11.093 10.584-14.422 14.619-1.6747 2.0301-1.6426 2.4343 0.76174 9.5968 4.9018 14.602 8.5449 36.109 8.56 50.534 7e-3 6.6354-1.6912 2.9418-2.9018-6.3115-2.2784-17.415-10.631-46.103-13.172-45.241-0.49006 0.1663-3.3386 3.8203-6.33 8.1199l-5.439 7.8175 1.9797 5.6825c1.0888 3.1254 3.0452 10.182 4.3476 15.682 2.772 11.707 5.2549 37.164 3.7695 38.649-0.63765 0.63765-1.219-1.22-1.6699-5.3354-1.5652-14.288-8.1293-40.39-11.494-45.706-0.99853-1.5778-4.6249 3.5576-8.7154 12.342-2.8942 6.2153-2.8939 6.3267 0.0379 15.551 3.8859 12.226 8.0368 44 5.748 44-0.46986 0-1.3947-3.9375-2.0552-8.75-1.4455-10.533-5.4712-27.006-7.9793-32.651l-1.8209-4.0988-1.4831 3.5c-0.81572 1.925-2.5363 6.4515-3.8235 10.059l-2.3404 6.5589 2.7227 9.4411c2.4443 8.4757 5.0183 31.468 3.3519 29.941-0.30012-0.275-1.2781-4.775-2.1732-10-1.8048-10.534-4.5027-20-5.7004-20-0.89056 0-2.1623 4.4158-4.9488 17.183-1.785 8.1787-5.885 33.587-5.9006 36.567-4e-3 0.6875-0.5103 1.25-1.126 1.25-2.8094 0 2.5243-46.313 7.8175-67.88 0.34846-1.4198 0.17316-2.2269-0.4344-2-1.9467 0.72696-10.45 11.422-14.587 18.347-5.0421 8.4398-6.2093 6.5157-1.5968-2.6322 4.2524-8.4338 10.27-17.22 15.981-23.334 2.5686-2.75 5.2509-6.8 5.9607-9 0.7098-2.2 2.8097-7.7732 4.6665-12.385 1.8568-4.6117 3.1316-8.6292 2.833-8.9278-1.5336-1.5336-18.223 10.42-24.961 17.879-4.6482 5.1451-5.813 4.3767-1.958-1.2917 5.6754-8.3453 18.497-20.18 26.149-24.135 3.9875-2.0613 7.2503-4.0608 7.2507-4.4433s2.2504-4.4771 5-9.099c2.7496-4.622 4.9993-8.7845 4.9993-9.25 0-1.3964-11.159-0.95603-17.477 0.68968-3.2436 0.84485-7.8296 2.3908-10.191 3.4353-6.5479 2.8964-6.1137 0.64843 0.6708-3.4729 8.4829-5.1531 16.261-7.7018 25.226-8.2663 7.4981-0.47214 7.8087-0.59455 10.426-4.1094 1.4835-1.9925 5.8202-7.3391 9.637-11.881 7.8283-9.316 7.8314-9.2242-0.45669-13.735-3.8962-2.1206-6.9721-2.9397-12.267-3.2669-10.618-0.6561-16.989 2.0755-26.019 11.154-15.554 15.639-26.392 42.062-33.469 81.606-6.9678 38.931-6.705 69.369 0.97033 112.42 6.5268 36.611 15.92 67.961 15.96 53.268zm184.85-16.191c9.4433-28.842 16.701-61.337 19.201-85.968 1.4823-14.605 0.72588-48.024-1.466-64.768-6.602-50.435-20.816-81.939-41.456-91.885-3.4098-1.6431-6.5082-2.2458-11.714-2.2788-6.0323-0.0382-8.0628 0.44026-13.75 3.24-3.6699 1.8067-6.6726 3.7567-6.6726 4.3334 0 0.57671 1.7276 3.136 3.8391 5.6873s6.133 8.0638 8.9368 12.25l5.0977 7.6111 6.8132 0.49244c3.9321 0.2842 9.4645 1.5657 13.083 3.0305 6.4564 2.6138 17.231 9.4426 17.231 10.921 0 1.1649-0.0877 1.1408-6.4678-1.7801-3.1402-1.4376-8.0321-3.2323-10.871-3.9881-5.5411-1.4753-14.677-1.8797-14.638-0.64796 0.0131 0.4125 2.1887 5.0179 4.8347 10.234 4.4346 8.7422 5.252 9.7419 10.45 12.779 7.243 4.2322 17.167 14.174 23.186 23.228 5.1929 7.8113 5.3412 10.707 0.2286 4.4625-9.4751-11.572-27.04-24.424-24.196-17.703 0.40739 0.9625 2.2694 6.6876 4.1378 12.723 1.8684 6.0349 4.0696 11.885 4.8917 13 0.82204 1.1151 3.3087 4.2775 5.526 7.0275 3.6552 4.5334 12.708 21.692 14.377 27.25 1.3912 4.6331-1.0915 1.9764-4.8588-5.1993-3.9152-7.4574-12.363-19.122-13.224-18.26-0.25346 0.25345 0.47118 6.7043 1.6103 14.335 2.416 16.185 4.0194 56.374 2.2492 56.374-0.60121 0-1.3497-2.9802-1.6952-6.75-2.4533-26.763-4.9795-45.188-6.6152-48.25-0.59894-1.1213-1.3037-0.36385-2.7912 3-2.3068 5.2163-6.1339 19.335-6.1339 22.629 0 1.239-0.45 2.5308-1 2.8707-2.4668 1.5245 0.74945-18.088 5.0017-30.5l2.9119-8.5-2.7565-9.5c-1.5161-5.225-3.1842-9.5-3.7068-9.5-2.1754 0-8.727 19.755-12.603 38-1.006 4.736-1.3513 5.3954-1.6391 3.1303-0.94512-7.4394 4.162-31.956 9.2415-44.362l2.5515-6.2321-3.9538-9.171c-2.1746-5.044-4.4165-9.6337-4.9821-10.199-2.3618-2.3618-11.425 22.293-15.022 40.863-2.0556 10.614-3.0473 12.862-3.0383 6.8879 0.0176-11.681 5.0627-34.863 10.5-48.246l3.3841-8.3298-5.1692-8.4202c-2.8431-4.6311-5.4473-8.4202-5.7872-8.4202-1.0528 0-7.713 15.073-10.486 23.73-1.4497 4.5267-3.6338 13.18-4.8537 19.229s-2.5823 11.345-3.0276 11.77c-1.0501 1.0005 0.19779-12.969 2.075-23.229 2.0492-11.2 5.0554-21.751 8.6447-30.341 2.7782-6.6488 2.9328-7.5612 1.6405-9.6821-2.637-4.328-12.293-15.477-13.404-15.477-1.6287 0-7.4212 10.043-10.242 17.758-4.453 12.178-4.1566 31.673 0.77498 50.962 2.5609 10.017 11.572 28.615 21.492 44.361 21.808 34.614 26.672 43.669 31.916 59.419 5.881 17.665 11.766 45.793 13.076 62.5 0.32341 4.125 0.84152 8.625 1.1514 10l0.56333 2.5 1.3464-3c0.7405-1.65 3.5564-9.75 6.2576-18zm-127.94 12.542c7.4882-3.8202 15.153-15.004 17.891-26.106 1.3026-5.2806 9.1105-70.594 12.126-101.44 1.1293-11.55 2.3132-23.362 2.6308-26.25s0.3302-5.25 0.0279-5.25c-0.30225 0-2.7817 4.7321-5.5098 10.516-7.0472 14.94-15.01 27.937-26.64 43.484-16.071 21.484-21.339 29.878-25.748 41.026-2.235 5.6512-5.1714 18.833-4.373 19.631 0.15087 0.15087 2.466-0.83526 5.1447-2.1914 17.834-9.0288 40.412 9.5241 33.046 27.155-3.7454 8.9641-11.463 15.38-18.5 15.38-3.5846 0-4.8422-0.59253-8.0359-3.7862-4.1014-4.1014-6.4498-10.488-5.3978-14.679 0.77275-3.0789 5.8264-7.5345 8.5457-7.5345 5.7524 0 10.659 5.8032 8.8751 10.496-1.1938 3.14 0.31754 3.3142 2.4418 0.28145 3.1514-4.4993 0.68637-13.032-4.5788-15.85-4.9216-2.634-14.56-0.24206-19.055 4.729-2.8678 3.1714-4.2277 10.216-2.9056 15.051 3.6663 13.41 18.715 21.098 30.014 15.334zm43.095-227.91c1.5351-4.5751 4.7577-11.54 7.1615-15.477l4.3705-7.1581-14.522-0.0941c-10.463-0.0678-15.907-0.54678-19.476-1.7133-2.7243-0.89056-5.1324-1.4401-5.3513-1.2213-0.21885 0.21886 1.6178 2.5648 4.0815 5.2133 4.5425 4.8832 10.448 15.526 12.661 22.815 0.66775 2.2 1.3712 4.5115 1.5633 5.1368s1.7828 1.0646 3.535 0.97652c3.0693-0.15436 3.2878-0.46433 5.9768-8.4786zm18.987-34.058c10.772-3.4212 20.74-9.5994 29.095-18.033 13.755-13.883 19.988-28.921 20.05-48.371 0.019-5.9546-0.22572-11.087-0.54371-11.405-0.31799-0.31799-3.8649 2.754-7.8821 6.8266-8.1797 8.2926-14.428 12.103-23.774 14.497-7.8582 2.0132-12.815 1.4154-22.116-2.667-3.8816-1.7036-7.3948-2.7213-7.8071-2.2614-1.8115 2.0204-2.9478 8.1175-3.6041 19.337-0.38791 6.6319-1.0908 12.296-1.5619 12.587-0.47114 0.29118-0.85661 1.4029-0.85661 2.4704 0 2.1831-2.2308 2.593-3.7603 0.69098-0.55283-0.6875-1.3155-6.2-1.6948-12.25-0.683-10.893-1.714-16.712-3.4337-19.38-0.72396-1.123-2.2544-0.75103-8.2287 2-6.2892 2.8961-8.423 3.3796-14.914 3.3796-6.7449 0-8.4103-0.41304-15.202-3.7702-7.2925-3.6048-15.678-10.575-20.611-17.132-1.201-1.5965-2.5148-2.5709-2.9196-2.1655-1.2857 1.2878-0.46237 19.13 1.1871 25.724 6.4836 25.918 29.049 47.074 55.334 51.88 7.8581 1.4366 25.901 0.37388 33.243-1.958zm-39.25-61.427c1.7875-0.93585 3.2401-2.4775 3.228-3.4259-0.043-3.3737-3.9346-10.264-8.6366-15.29-5.5404-5.9232-10.953-9.3323-18.261-11.503-4.4216-1.3131-5.1574-1.8753-4.8923-3.7383 0.26401-1.8552 0.93019-2.1822 4.3266-2.1239 9.2948 0.15956 22.168 9.2555 29.182 20.619 1.973 3.1965 3.9252 5.8118 4.3382 5.8118 1.269 0 1.9648-2.9273 1.9648-8.2661 0-10.076-5.4272-16.734-18.583-22.798-5.9425-2.7392-24.038-7.9355-27.634-7.9355-3.0613 0-12.783 17.122-12.783 22.513 0 3.2881 7.3351 13.748 13.324 19.001 2.8466 2.4966 7.4256 5.6855 10.176 7.0866 4.4094 2.2465 5.945 2.5003 13 2.149 4.8864-0.2433 9.2649-1.0606 11.25-2.0998zm20.992-3.2491 2.2416-3.5143-2.0868-6.1934c-2.2484-6.6728-2.0604-12.972 0.57538-19.28 3.5128-8.4073 16.175-16.272 40.028-24.862 1.8356-0.66104 1.6868-0.99341-1.8095-4.0433-4.787-4.1758-15.5-9.815-22.691-11.944-14.806-4.3842-33.796-2.684-48.5 4.3421-7.3043 3.4902-18.503 11.318-18.498 12.929 1e-3 0.36571 3.972 1.9195 8.8241 3.4528 11.521 3.6407 23.978 9.9071 29.69 14.935 8.6334 7.5995 11.172 16.831 7.5691 27.524-1.7445 5.1773-1.8909 6.5908-0.85473 8.25 1.7472 2.7978 2.9257 2.4563 5.5109-1.5967zm40.969-0.41437c6.9296-3.4628 15.034-11.089 20.045-18.861l3.4652-5.3748-4.6058-9.1252c-2.5332-5.0188-5.6794-10.415-6.9915-11.992l-2.3857-2.8671-10.117 2.6063c-24.627 6.3443-35.14 14.794-35.106 28.216 0.0136 5.2689 1.2025 9.6635 2.2679 8.3832 0.21557-0.25907 2.0916-3.0703 4.1689-6.2471 5.4473-8.3305 11.314-13.973 17.855-17.173 7.1794-3.5125 14.379-4.5325 15.287-2.1659 0.7592 1.9784-1.2144 4.6116-3.4666 4.6251-3.4689 0.0208-12.426 5.1577-17.793 10.204-5.3273 5.0094-10.303 13.203-10.325 17.001-0.0181 3.1678 6.5541 5.5718 15.581 5.6992 4.8826 0.0689 7.286-0.51156 12.12-2.9274zm-111.33-42.249c2.5005-4.3878 2.5725-4.8067 0.91457-5.3251-0.98969-0.30948-3.5668-1.199-5.7268-1.9768-2.1601-0.77777-4.0738-1.2678-4.2526-1.089-0.26781 0.26781 1.9572 7.4166 4.2236 13.571 0.63726 1.7303 1.3192 1.0007 4.8412-5.1796zm143.02-3.4137c1.4195-4.2219 2.4533-7.8037 2.2974-7.9596-0.31476-0.31476-12.884 3.4888-13.472 4.0768-0.54136 0.54135 6.9177 11.559 7.8256 11.559 0.42243 0 1.9294-3.4543 3.3489-7.6762z" fill="#333"/>
  </g>
 </g>
</svg>
